Sudo.mi.glyphspackage
{
glyphname = quotedbl;
kernLeft = quotesingle;
kernRight = quotesingle;
layers = (
{
layerId = "C21910D5-47BB-472B-A83D-89B2B42B8F2A";
shapes = (
{
closed = 1;
nodes = (
(265,640,l),
(197,640,l),
(156,384,l),
(204,384,l)
);
},
{
closed = 1;
nodes = (
(417,640,l),
(349,640,l),
(308,384,l),
(356,384,l)
);
}
);
width = 448;
},
{
layerId = "BA106321-29DE-4FD0-898D-B7B08A4D4215";
shapes = (
{
closed = 1;
nodes = (
(273,640,l),
(181,640,l),
(140,384,l),
(212,384,l)
);
},
{
closed = 1;
nodes = (
(433,640,l),
(341,640,l),
(300,384,l),
(372,384,l)
);
}
);
width = 448;
},
{
layerId = "EBAB10B0-9FDE-44C7-9B16-DD2313400F4E";
shapes = (
{
closed = 1;
nodes = (
(276,640,l),
(144,640,l),
(103,384,l),
(215,384,l)
);
},
{
closed = 1;
nodes = (
(470,640,l),
(338,640,l),
(297,384,l),
(409,384,l)
);
}
);
width = 448;
}
);
unicode = 34;
}
{
glyphname = quotesingle;
layers = (
{
layerId = "C21910D5-47BB-472B-A83D-89B2B42B8F2A";
shapes = (
{
closed = 1;
nodes = (
(341,640,l),
(273,640,l),
(232,384,l),
(280,384,l)
);
}
);
width = 448;
},
{
layerId = "BA106321-29DE-4FD0-898D-B7B08A4D4215";
shapes = (
{
closed = 1;
nodes = (
(353,640,l),
(261,640,l),
(220,384,l),
(292,384,l)
);
}
);
width = 448;
},
{
layerId = "EBAB10B0-9FDE-44C7-9B16-DD2313400F4E";
shapes = (
{
closed = 1;
nodes = (
(373,640,l),
(241,640,l),
(200,384,l),
(312,384,l)
);
}
);
width = 448;
}
);
unicode = 39;
}
{
glyphname = parenright;
kernLeft = parenright;
layers = (
{
layerId = "C21910D5-47BB-472B-A83D-89B2B42B8F2A";
shapes = (
{
closed = 1;
nodes = (
(202,693,l),
(266,592,o),
(281,463,o),
(253,324,cs),
(224,181,o),
(155,50,o),
(52,-51,c),
(81,-78,l),
(193,30,o),
(270,160,o),
(301,316,cs),
(333,476,o),
(307,608,o),
(237,716,c)
);
}
);
width = 448;
},
{
layerId = "BA106321-29DE-4FD0-898D-B7B08A4D4215";
shapes = (
{
closed = 1;
nodes = (
(190,686,l),
(254,587,o),
(267,461,o),
(240,326,cs),
(212,185,o),
(145,58,o),
(42,-41,c),
(86,-86,l),
(200,24,o),
(280,156,o),
(312,314,cs),
(345,478,o),
(315,611,o),
(245,721,c)
);
}
);
width = 448;
},
{
layerId = "EBAB10B0-9FDE-44C7-9B16-DD2313400F4E";
shapes = (
{
closed = 1;
nodes = (
(170,687,l),
(234,588,o),
(247,462,o),
(220,329,cs),
(191,186,o),
(124,59,o),
(21,-40,c),
(105,-87,l),
(219,23,o),
(299,155,o),
(330,311,cs),
(364,477,o),
(333,610,o),
(263,720,c)
);
}
);
width = 448;
}
);
unicode = 41;
}
{
glyphname = hyphen;
kernLeft = hyphen;
kernRight = hyphen;
layers = (
{
layerId = "C21910D5-47BB-472B-A83D-89B2B42B8F2A";
shapes = (
{
closed = 1;
nodes = (
(369,310,l),
(113,310,l),
(104,266,l),
(360,266,l)
);
}
);
width = 448;
},
{
layerId = "BA106321-29DE-4FD0-898D-B7B08A4D4215";
shapes = (
{
closed = 1;
nodes = (
(383,320,l),
(103,320,l),
(90,256,l),
(370,256,l)
);
}
);
width = 448;
},
{
layerId = "EBAB10B0-9FDE-44C7-9B16-DD2313400F4E";
shapes = (
{
closed = 1;
nodes = (
(406,336,l),
(86,336,l),
(67,240,l),
(387,240,l)
);
}
);
width = 448;
}
);
unicode = 45;
}
{
glyphname = one;
layers = (
{
layerId = "C21910D5-47BB-472B-A83D-89B2B42B8F2A";
shapes = (
{
closed = 1;
nodes = (
(353,0,l),
(362,42,l),
(221,42,l),
(331,580,l),
(292,580,l),
(109,439,l),
(131,407,l),
(270,515,l),
(173,42,l),
(34,42,l),
(25,0,l)
);
}
);
width = 448;
},
{
layerId = "BA106321-29DE-4FD0-898D-B7B08A4D4215";
shapes = (
{
closed = 1;
nodes = (
(359,0,l),
(372,64,l),
(238,64,l),
(343,580,l),
(291,580,l),
(97,439,l),
(131,386,l),
(249,476,l),
(166,64,l),
(32,64,l),
(19,0,l)
);
}
);
width = 448;
},
{
layerId = "EBAB10B0-9FDE-44C7-9B16-DD2313400F4E";
shapes = (
{
closed = 1;
nodes = (
(369,0,l),
(385,80,l),
(261,80,l),
(363,580,l),
(291,580,l),
(77,439,l),
(118,373,l),
(223,443,l),
(149,80,l),
(25,80,l),
(9,0,l)
);
}
);
width = 448;
}
);
unicode = 49;
}
{
glyphname = two;
layers = (
{
background = {
shapes = (
{
closed = 1;
nodes = (
(149,519,l),
(191,528,o),
(230,532,o),
(270,532,cs),
(361,532,o),
(392,495,o),
(375,409,cs),
(359,327,o),
(319,299,o),
(231,263,cs),
(106,212,o),
(59,166,o),
(38,82,cs),
(18,0,l),
(337,0,l),
(346,44,l),
(80,44,l),
(89,78,ls),
(106,144,o),
(141,184,o),
(245,224,cs),
(336,259,o),
(404,296,o),
(427,408,cs),
(452,533,o),
(378,576,o),
(275,576,cs),
(228,576,o),
(178,568,o),
(144,559,c)
);
}
);
};
layerId = "C21910D5-47BB-472B-A83D-89B2B42B8F2A";
shapes = (
{
closed = 1;
nodes = (
(149,519,l),
(191,528,o),
(230,532,o),
(270,532,cs),
(349,532,o),
(379,499,o),
(379,438,cs),
(379,394,o),
(365,352,o),
(336,323,cs),
(263,250,o),
(79,250,o),
(38,82,cs),
(18,0,l),
(337,0,l),
(346,44,l),
(80,44,l),
(89,78,ls),
(129,230,o),
(284,208,o),
(372,296,cs),
(415,339,o),
(432,387,o),
(432,440,cs),
(432,526,o),
(382,576,o),
(275,576,cs),
(228,576,o),
(178,568,o),
(144,559,c)
);
}
);
width = 448;
},
{
background = {
shapes = (
{
closed = 1;
nodes = (
(140,503,l),
(184,512,o),
(218,518,o),
(261,518,cs),
(352,518,o),
(373,490,o),
(357,408,cs),
(342,334,o),
(303,302,o),
(221,272,cs),
(146,244,o),
(64,212,o),
(33,85,cs),
(12,0,l),
(343,0,l),
(356,64,l),
(102,64,l),
(107,83,ls),
(123,145,o),
(154,176,o),
(250,213,cs),
(342,248,o),
(409,289,o),
(433,408,cs),
(458,536,o),
(381,582,o),
(274,582,cs),
(220,582,o),
(174,577,o),
(134,567,c)
);
}
);
};
layerId = "BA106321-29DE-4FD0-898D-B7B08A4D4215";
shapes = (
{
closed = 1;
nodes = (
(140,503,l),
(184,512,o),
(218,518,o),
(261,518,cs),
(339,518,o),
(362,492,o),
(362,436,cs),
(362,393,o),
(344,353,o),
(318,327,cs),
(236,246,o),
(80,277,o),
(33,85,cs),
(12,0,l),
(343,0,l),
(356,64,l),
(102,64,l),
(107,83,ls),
(143,219,o),
(280,192,o),
(373,285,cs),
(421,333,o),
(438,388,o),
(438,437,cs),
(438,529,o),
(391,582,o),
(274,582,cs),
(220,582,o),
(174,575,o),
(134,567,c)
);
}
);
width = 448;
},
{
background = {
shapes = (
{
closed = 1;
nodes = (
(126,481,l),
(166,490,o),
(199,496,o),
(238,496,cs),
(321,496,o),
(339,471,o),
(325,399,cs),
(311,330,o),
(280,300,o),
(207,272,cs),
(104,233,o),
(47,191,o),
(23,89,cs),
(2,0,l),
(353,0,l),
(369,80,l),
(136,80,l),
(136,81,ls),
(147,136,o),
(170,171,o),
(258,207,cs),
(350,244,o),
(420,294,o),
(441,400,cs),
(467,529,o),
(384,576,o),
(270,576,cs),
(213,576,o),
(164,568,o),
(122,557,c)
);
}
);
};
layerId = "EBAB10B0-9FDE-44C7-9B16-DD2313400F4E";
shapes = (
{
closed = 1;
nodes = (
(126,481,l),
(166,490,o),
(199,496,o),
(238,496,cs),
(305,496,o),
(329,474,o),
(329,423,cs),
(329,379,o),
(311,343,o),
(285,317,cs),
(217,249,o),
(65,267,o),
(23,89,cs),
(2,0,l),
(353,0,l),
(369,80,l),
(136,80,l),
(136,81,ls),
(163,213,o),
(290,191,o),
(384,285,cs),
(422,323,o),
(446,374,o),
(446,432,cs),
(446,527,o),
(384,576,o),
(270,576,cs),
(213,576,o),
(164,568,o),
(122,557,c)
);
}
);
width = 448;
}
);
unicode = 50;
}
{
glyphname = five;
layers = (
{
background = {
shapes = (
{
closed = 1;
nodes = (
(21,21,l),
(68,8,o),
(111,0,o),
(169,0,cs),
(272,0,o),
(354,46,o),
(376,156,cs),
(401,279,o),
(329,315,o),
(236,315,cs),
(193,315,o),
(155,307,o),
(125,300,c),
(133,271,l),
(204,571,l),
(183,532,l),
(430,532,l),
(438,576,l),
(157,576,l),
(84,271,l),
(96,256,l),
(147,265,o),
(185,271,o),
(230,271,cs),
(311,271,o),
(341,241,o),
(326,165,cs),
(310,82,o),
(263,44,o),
(170,44,cs),
(127,44,o),
(92,49,o),
(35,62,c)
);
}
);
};
layerId = "C21910D5-47BB-472B-A83D-89B2B42B8F2A";
shapes = (
{
closed = 1;
nodes = (
(21,21,l),
(68,8,o),
(111,0,o),
(169,0,cs),
(272,0,o),
(354,46,o),
(376,156,cs),
(401,279,o),
(329,315,o),
(236,315,cs),
(200,315,o),
(169,310,o),
(141,304,c),
(195,532,l),
(430,532,l),
(438,576,l),
(157,576,l),
(84,271,l),
(96,256,l),
(147,265,o),
(185,271,o),
(230,271,cs),
(311,271,o),
(341,241,o),
(326,165,cs),
(310,82,o),
(263,44,o),
(170,44,cs),
(127,44,o),
(92,49,o),
(35,62,c)
);
}
);
width = 448;
},
{
background = {
shapes = (
{
closed = 1;
nodes = (
(15,23,l),
(66,9,o),
(113,0,o),
(173,0,cs),
(278,0,o),
(359,40,o),
(384,162,cs),
(408,282,o),
(338,325,o),
(251,325,cs),
(210,325,o),
(178,321,o),
(154,316,c),
(148,262,l),
(222,571,l),
(197,512,l),
(432,512,l),
(444,576,l),
(151,576,l),
(78,271,l),
(100,248,l),
(149,256,o),
(185,261,o),
(228,261,cs),
(307,261,o),
(323,239,o),
(309,170,cs),
(295,97,o),
(253,64,o),
(172,64,cs),
(129,64,o),
(90,70,o),
(37,83,c)
);
}
);
};
layerId = "BA106321-29DE-4FD0-898D-B7B08A4D4215";
shapes = (
{
closed = 1;
nodes = (
(15,23,l),
(66,9,o),
(113,0,o),
(173,0,cs),
(278,0,o),
(359,40,o),
(384,162,cs),
(408,282,o),
(338,325,o),
(251,325,cs),
(214,325,o),
(185,322,o),
(161,317,c),
(208,512,l),
(432,512,l),
(444,576,l),
(151,576,l),
(78,271,l),
(100,248,l),
(149,256,o),
(185,261,o),
(228,261,cs),
(307,261,o),
(323,239,o),
(309,170,cs),
(295,97,o),
(253,64,o),
(172,64,cs),
(129,64,o),
(90,70,o),
(37,83,c)
);
}
);
width = 448;
},
{
background = {
shapes = (
{
closed = 1;
nodes = (
(6,28,l),
(59,10,o),
(109,0,o),
(174,0,cs),
(284,0,o),
(369,40,o),
(394,166,cs),
(419,288,o),
(346,333,o),
(251,333,cs),
(213,333,o),
(180,330,o),
(155,324,c),
(181,270,l),
(251,571,l),
(193,496,l),
(438,496,l),
(454,576,l),
(141,576,l),
(68,271,l),
(113,239,l),
(153,247,o),
(182,253,o),
(218,253,cs),
(280,253,o),
(292,235,o),
(281,181,cs),
(267,110,o),
(228,80,o),
(152,80,cs),
(114,80,o),
(71,88,o),
(33,98,c)
);
}
);
};
layerId = "EBAB10B0-9FDE-44C7-9B16-DD2313400F4E";
shapes = (
{
closed = 1;
nodes = (
(6,28,l),
(59,10,o),
(109,0,o),
(174,0,cs),
(284,0,o),
(369,40,o),
(394,166,cs),
(419,288,o),
(346,333,o),
(251,333,cs),
(231,333,o),
(213,332,o),
(195,330,c),
(234,496,l),
(438,496,l),
(454,576,l),
(141,576,l),
(68,271,l),
(113,239,l),
(153,247,o),
(182,253,o),
(218,253,cs),
(280,253,o),
(292,235,o),
(281,181,cs),
(267,110,o),
(228,80,o),
(152,80,cs),
(114,80,o),
(71,88,o),
(33,98,c)
);
}
);
width = 448;
}
);
unicode = 53;
}
{
glyphname = nine;
layers = (
{
background = {
shapes = (
{
closed = 1;
nodes = (
(87,-10,l),
(301,60,o),
(373,183,o),
(403,334,cs),
(436,500,o),
(378,585,o),
(273,585,cs),
(182,585,o),
(106,517,o),
(85,415,cs),
(66,324,o),
(102,247,o),
(212,247,cs),
(269,247,o),
(320,268,o),
(365,299,c),
(351,330,l),
(309,307,o),
(259,291,o),
(215,291,cs),
(128,291,o),
(121,355,o),
(132,409,cs),
(146,477,o),
(190,541,o),
(271,541,cs),
(357,541,o),
(377,466,o),
(353,344,cs),
(321,184,o),
(258,97,o),
(76,33,c)
);
}
);
};
layerId = "C21910D5-47BB-472B-A83D-89B2B42B8F2A";
shapes = (
{
closed = 1;
nodes = (
(87,-10,l),
(301,60,o),
(373,183,o),
(403,334,cs),
(436,500,o),
(378,585,o),
(273,585,cs),
(182,585,o),
(106,517,o),
(85,415,cs),
(66,324,o),
(102,247,o),
(212,247,cs),
(258,247,o),
(299,260,o),
(338,282,c),
(302,161,o),
(232,88,o),
(76,33,c)
);
},
{
closed = 1;
nodes = (
(146,477,o),
(190,541,o),
(271,541,cs),
(357,541,o),
(377,466,o),
(353,344,c),
(350,329,l),
(309,307,o),
(259,291,o),
(215,291,cs),
(128,291,o),
(121,355,o),
(132,409,cs)
);
}
);
width = 448;
},
{
background = {
shapes = (
{
closed = 1;
nodes = (
(84,-11,l),
(305,59,o),
(379,182,o),
(409,332,cs),
(442,499,o),
(382,585,o),
(273,585,cs),
(181,585,o),
(100,517,o),
(80,417,cs),
(60,319,o),
(97,239,o),
(214,239,cs),
(269,239,o),
(318,259,o),
(364,290,c),
(343,341,l),
(308,318,o),
(263,301,o),
(220,301,cs),
(143,301,o),
(139,357,o),
(148,406,cs),
(160,465,o),
(196,521,o),
(269,521,cs),
(348,521,o),
(357,453,o),
(335,346,cs),
(305,193,o),
(246,112,o),
(67,52,c)
);
}
);
};
layerId = "BA106321-29DE-4FD0-898D-B7B08A4D4215";
shapes = (
{
closed = 1;
nodes = (
(84,-11,l),
(305,59,o),
(379,182,o),
(409,332,cs),
(442,499,o),
(382,585,o),
(273,585,cs),
(181,585,o),
(100,517,o),
(80,417,cs),
(60,319,o),
(97,239,o),
(214,239,cs),
(249,239,o),
(281,247,o),
(312,261,c),
(276,162,o),
(210,100,o),
(67,52,c)
);
},
{
closed = 1;
nodes = (
(160,465,o),
(196,521,o),
(269,521,cs),
(348,521,o),
(357,453,o),
(335,346,c),
(333,335,l),
(299,315,o),
(259,301,o),
(220,301,cs),
(143,301,o),
(139,357,o),
(148,406,cs)
);
}
);
width = 448;
},
{
background = {
shapes = (
{
closed = 1;
nodes = (
(75,-11,l),
(312,59,o),
(388,181,o),
(418,329,cs),
(452,498,o),
(387,585,o),
(272,585,cs),
(174,585,o),
(89,516,o),
(69,416,cs),
(49,314,o),
(88,231,o),
(209,231,cs),
(265,231,o),
(316,250,o),
(363,281,c),
(345,350,l),
(314,327,o),
(274,309,o),
(237,309,cs),
(171,309,o),
(169,358,o),
(178,402,cs),
(188,455,o),
(217,506,o),
(270,506,cs),
(324,506,o),
(325,444,o),
(305,346,cs),
(276,201,o),
(223,125,o),
(56,67,c)
);
}
);
};
layerId = "EBAB10B0-9FDE-44C7-9B16-DD2313400F4E";
shapes = (
{
closed = 1;
nodes = (
(75,-11,l),
(312,59,o),
(388,181,o),
(418,329,cs),
(452,498,o),
(387,585,o),
(272,585,cs),
(174,585,o),
(89,516,o),
(69,416,cs),
(49,314,o),
(88,231,o),
(209,231,cs),
(231,231,o),
(253,234,o),
(273,239,c),
(238,161,o),
(177,109,o),
(56,67,c)
);
},
{
closed = 1;
nodes = (
(188,455,o),
(217,506,o),
(270,506,cs),
(324,506,o),
(325,444,o),
(305,346,c),
(300,324,l),
(280,315,o),
(258,309,o),
(237,309,cs),
(171,309,o),
(169,358,o),
(178,402,cs)
);
}
);
width = 448;
}
);
unicode = 57;
}
{
glyphname = less;
layers = (
{
layerId = "C21910D5-47BB-472B-A83D-89B2B42B8F2A";
shapes = (
{
closed = 1;
nodes = (
(377,489,l),
(349,517,l),
(68,288,l),
(260,59,l),
(297,87,l),
(129,288,l)
);
}
);
width = 448;
},
{
layerId = "BA106321-29DE-4FD0-898D-B7B08A4D4215";
shapes = (
{
closed = 1;
nodes = (
(390,481,l),
(347,525,l),
(57,288,l),
(256,51,l),
(313,95,l),
(152,288,l)
);
}
);
width = 448;
},
{
layerId = "EBAB10B0-9FDE-44C7-9B16-DD2313400F4E";
shapes = (
{
closed = 1;
nodes = (
(413,468,l),
(345,538,l),
(39,288,l),
(249,38,l),
(341,108,l),
(190,288,l)
);
}
);
width = 448;
}
);
unicode = 60;
}
{
glyphname = question;
layers = (
{
layerId = "C21910D5-47BB-472B-A83D-89B2B42B8F2A";
shapes = (
{
closed = 1;
nodes = (
(278,373,o),
(405,366,o),
(430,489,cs),
(449,583,o),
(396,638,o),
(189,645,c),
(182,603,l),
(386,592,o),
(389,537,o),
(381,495,cs),
(361,393,o),
(236,387,o),
(194,192,c),
(240,192,l)
);
},
{
closed = 1;
nodes = (
(207,-10,o),
(232,6,o),
(239,38,cs),
(247,73,o),
(224,94,o),
(195,94,cs),
(168,94,o),
(142,77,o),
(136,46,cs),
(129,10,o),
(151,-10,o),
(181,-10,cs)
);
}
);
width = 448;
},
{
layerId = "BA106321-29DE-4FD0-898D-B7B08A4D4215";
shapes = (
{
closed = 1;
nodes = (
(285,368,o),
(416,365,o),
(441,488,cs),
(460,582,o),
(400,638,o),
(178,645,c),
(167,581,l),
(373,571,o),
(377,528,o),
(370,494,cs),
(350,394,o),
(222,393,o),
(178,192,c),
(248,192,l)
);
},
{
closed = 1;
nodes = (
(215,-10,o),
(245,9,o),
(253,48,cs),
(262,92,o),
(235,118,o),
(198,118,cs),
(165,118,o),
(135,98,o),
(127,60,cs),
(118,15,o),
(145,-10,o),
(182,-10,cs)
);
}
);
width = 448;
},
{
layerId = "EBAB10B0-9FDE-44C7-9B16-DD2313400F4E";
shapes = (
{
closed = 1;
nodes = (
(300,349,o),
(423,350,o),
(448,476,cs),
(468,579,o),
(406,645,o),
(167,645,c),
(152,565,l),
(338,553,o),
(340,518,o),
(335,490,cs),
(318,403,o),
(189,386,o),
(161,192,c),
(267,192,l)
);
},
{
closed = 1;
nodes = (
(226,-10,o),
(265,11,o),
(274,55,cs),
(285,107,o),
(250,138,o),
(200,138,cs),
(158,138,o),
(119,115,o),
(110,73,cs),
(99,19,o),
(134,-10,o),
(184,-10,cs)
);
}
);
width = 448;
}
);
unicode = 63;
}
{
glyphname = A;
kernLeft = A;
kernRight = A;
layers = (
{
anchors = (
{
name = bottom;
pos = (179,0);
},
{
name = bottomAttach;
pos = (362,0);
},
{
name = top;
pos = (307,640);
}
);
background = {
anchors = (
{
name = bottom;
pos = (179,0);
},
{
name = bottomAttach;
pos = (362,0);
},
{
name = top;
pos = (307,640);
}
);
shapes = (
{
closed = 1;
nodes = (
(47,0,l),
(119,242,o),
(210,447,o),
(302,587,c),
(293,591,l),
(329,449,o),
(337,244,o),
(312,0,c),
(362,0,l),
(389,243,o),
(379,476,o),
(326,643,c),
(285,643,l),
(167,476,o),
(66,243,o),
(-5,0,c)
);
},
{
closed = 1;
nodes = (
(93,202,l),
(349,202,l),
(357,246,l),
(101,246,l)
);
}
);
};
layerId = "C21910D5-47BB-472B-A83D-89B2B42B8F2A";
shapes = (
{
closed = 1;
nodes = (
(47,0,l),
(68,71,o),
(91,138,o),
(115,202,c),
(326,202,l),
(324,138,o),
(319,70,o),
(312,0,c),
(362,0,l),
(389,243,o),
(379,476,o),
(326,643,c),
(285,643,l),
(167,476,o),
(66,243,o),
(-5,0,c)
);
},
{
closed = 1;
nodes = (
(183,378,o),
(239,490,o),
(296,578,c),
(317,489,o),
(328,377,o),
(326,246,c),
(131,246,l)
);
}
);
width = 448;
},
{
anchors = (
{
name = bottom;
pos = (179,0);
},
{
name = bottomAttach;
pos = (368,0);
},
{
name = top;
pos = (307,640);
}
);
background = {
anchors = (
{
name = bottom;
pos = (179,0);
},
{
name = bottomAttach;
pos = (368,0);
},
{
name = top;
pos = (307,640);
}
);
shapes = (
{
closed = 1;
nodes = (
(66,0,l),
(134,237,o),
(219,437,o),
(306,574,c),
(285,580,l),
(318,441,o),
(321,239,o),
(294,0,c),
(368,0,l),
(399,243,o),
(391,476,o),
(337,643,c),
(273,643,l),
(156,476,o),
(58,243,o),
(-10,0,c)
);
},
{
closed = 1;
nodes = (
(91,192,l),
(347,192,l),
(359,256,l),
(103,256,l)
);
}
);
};
layerId = "BA106321-29DE-4FD0-898D-B7B08A4D4215";
shapes = (
{
closed = 1;
nodes = (
(66,0,l),
(85,66,o),
(106,131,o),
(128,192,c),
(310,192,l),
(307,131,o),
(302,68,o),
(294,0,c),
(368,0,l),
(399,243,o),
(391,476,o),
(337,643,c),
(273,643,l),
(156,476,o),
(58,243,o),
(-10,0,c)
);
},
{
closed = 1;
nodes = (
(195,370,o),
(243,470,o),
(291,550,c),
(307,469,o),
(314,369,o),
(312,256,c),
(151,256,l)
);
}
);
width = 448;
},
{
anchors = (
{
name = bottom;
pos = (179,0);
},
{
name = bottomAttach;
pos = (378,0);
},
{
name = top;
pos = (307,640);
}
);
background = {
anchors = (
{
name = bottom;
pos = (179,0);
},
{
name = bottomAttach;
pos = (378,0);
},
{
name = top;
pos = (307,640);
}
);
shapes = (
{
closed = 1;
nodes = (
(96,0,l),
(161,236,o),
(238,436,o),
(314,573,c),
(277,581,l),
(301,442,o),
(295,240,o),
(263,0,c),
(378,0,l),
(410,242,o),
(406,474,o),
(356,640,c),
(252,640,l),
(141,474,o),
(47,242,o),
(-20,0,c)
);
},
{
closed = 1;
nodes = (
(84,160,l),
(340,160,l),
(356,240,l),
(100,240,l)
);
}
);
};
layerId = "EBAB10B0-9FDE-44C7-9B16-DD2313400F4E";
shapes = (
{
closed = 1;
nodes = (
(96,0,l),
(111,55,o),
(127,108,o),
(144,160,c),
(281,160,l),
(276,108,o),
(270,55,o),
(263,0,c),
(378,0,l),
(410,242,o),
(406,474,o),
(356,640,c),
(252,640,l),
(141,474,o),
(47,242,o),
(-20,0,c)
);
},
{
closed = 1;
nodes = (
(206,346,o),
(245,440,o),
(283,519,c),
(293,439,o),
(294,347,o),
(287,240,c),
(170,240,l)
);
}
);
width = 448;
}
);
unicode = 65;
}
{
glyphname = C;
kernLeft = O;
kernRight = C;
layers = (
{
anchors = (
{
name = bottom;
pos = (211,0);
},
{
name = bottomAttach;
pos = (263,0);
},
{
name = top;
pos = (339,640);
}
);
layerId = "C21910D5-47BB-472B-A83D-89B2B42B8F2A";
shapes = (
{
closed = 1;
nodes = (
(261,-9,o),
(300,-3,o),
(334,4,c),
(332,44,l),
(296,38,o),
(263,35,o),
(236,35,cs),
(110,35,o),
(98,115,o),
(138,315,cs),
(179,519,o),
(225,603,o),
(354,603,cs),
(379,603,o),
(411,601,o),
(442,596,c),
(453,636,l),
(424,643,o),
(385,647,o),
(353,647,cs),
(205,647,o),
(134,562,o),
(86,323,cs),
(37,80,o),
(77,-9,o),
(229,-9,cs)
);
}
);
width = 448;
},
{
anchors = (
{
name = bottom;
pos = (211,0);
},
{
name = bottomAttach;
pos = (263,0);
},
{
name = top;
pos = (339,640);
}
);
layerId = "BA106321-29DE-4FD0-898D-B7B08A4D4215";
shapes = (
{
closed = 1;
nodes = (
(265,-9,o),
(308,-5,o),
(342,4,c),
(335,67,l),
(301,59,o),
(270,55,o),
(241,55,cs),
(113,55,o),
(119,128,o),
(156,313,cs),
(194,504,o),
(223,583,o),
(357,583,cs),
(379,583,o),
(409,581,o),
(437,575,c),
(458,634,l),
(426,642,o),
(387,647,o),
(354,647,cs),
(200,647,o),
(128,563,o),
(80,325,cs),
(31,81,o),
(74,-9,o),
(232,-9,cs)
);
}
);
width = 448;
},
{
anchors = (
{
name = bottom;
pos = (211,0);
},
{
name = bottomAttach;
pos = (263,0);
},
{
name = top;
pos = (339,640);
}
);
layerId = "EBAB10B0-9FDE-44C7-9B16-DD2313400F4E";
shapes = (
{
closed = 1;
nodes = (
(271,-9,o),
(316,-4,o),
(354,7,c),
(348,83,l),
(317,75,o),
(288,71,o),
(261,71,cs),
(144,71,o),
(151,138,o),
(185,310,cs),
(222,492,o),
(250,567,o),
(372,567,cs),
(392,567,o),
(419,565,o),
(444,559,c),
(467,631,l),
(433,641,o),
(391,647,o),
(355,647,cs),
(193,647,o),
(118,564,o),
(71,328,cs),
(22,82,o),
(69,-9,o),
(237,-9,cs)
);
}
);
width = 448;
}
);
unicode = 67;
}
{
glyphname = H;
layers = (
{
anchors = (
{
name = bottom;
pos = (179,0);
},
{
name = top;
pos = (307,640);
}
);
layerId = "C21910D5-47BB-472B-A83D-89B2B42B8F2A";
shapes = (
{
closed = 1;
nodes = (
(69,0,l),
(122,266,l),
(342,266,l),
(289,0,l),
(337,0,l),
(465,640,l),
(417,640,l),
(351,310,l),
(131,310,l),
(197,640,l),
(149,640,l),
(21,0,l)
);
}
);
width = 448;
},
{
anchors = (
{
name = bottom;
pos = (179,0);
},
{
name = top;
pos = (307,640);
}
);
layerId = "BA106321-29DE-4FD0-898D-B7B08A4D4215";
shapes = (
{
closed = 1;
nodes = (
(87,0,l),
(138,256,l),
(322,256,l),
(271,0,l),
(343,0,l),
(471,640,l),
(399,640,l),
(335,320,l),
(151,320,l),
(215,640,l),
(143,640,l),
(15,0,l)
);
}
);
width = 448;
},
{
anchors = (
{
name = bottom;
pos = (179,0);
},
{
name = top;
pos = (307,640);
}
);
layerId = "EBAB10B0-9FDE-44C7-9B16-DD2313400F4E";
shapes = (
{
closed = 1;
nodes = (
(117,0,l),
(167,248,l),
(291,248,l),
(241,0,l),
(353,0,l),
(481,640,l),
(369,640,l),
(307,328,l),
(183,328,l),
(245,640,l),
(133,640,l),
(5,0,l)
);
}
);
width = 448;
}
);
unicode = 72;
}
{
glyphname = I;
kernLeft = I;
kernRight = I;
layers = (
{
anchors = (
{
name = "#center";
pos = (237,288);
},
{
name = bottom;
pos = (179,0);
},
{
name = bottomAttach;
pos = (319,0);
},
{
name = top;
pos = (307,640);
}
);
layerId = "C21910D5-47BB-472B-A83D-89B2B42B8F2A";
shapes = (
{
closed = 1;
nodes = (
(319,0,l),
(327,38,l),
(212,42,l),
(323,598,l),
(436,602,l),
(443,640,l),
(171,640,l),
(164,602,l),
(275,598,l),
(164,42,l),
(47,38,l),
(39,0,l)
);
}
);
width = 448;
},
{
anchors = (
{
name = "#center";
pos = (237,288);
},
{
name = bottom;
pos = (179,0);
},
{
name = bottomAttach;
pos = (331,0);
},
{
name = top;
pos = (307,640);
}
);
layerId = "BA106321-29DE-4FD0-898D-B7B08A4D4215";
shapes = (
{
closed = 1;
nodes = (
(331,0,l),
(342,54,l),
(228,64,l),
(330,576,l),
(445,586,l),
(455,640,l),
(159,640,l),
(148,586,l),
(258,576,l),
(156,64,l),
(37,54,l),
(27,0,l)
);
}
);
width = 448;
},
{
anchors = (
{
name = "#center";
pos = (237,288);
},
{
name = bottom;
pos = (179,0);
},
{
name = bottomAttach;
pos = (359,0);
},
{
name = top;
pos = (307,640);
}
);
layerId = "EBAB10B0-9FDE-44C7-9B16-DD2313400F4E";
shapes = (
{
closed = 1;
nodes = (
(359,0,l),
(373,68,l),
(251,80,l),
(347,560,l),
(470,572,l),
(483,640,l),
(131,640,l),
(118,572,l),
(235,560,l),
(139,80,l),
(13,68,l),
(-1,0,l)
);
}
);
width = 448;
}
);
unicode = 73;
}
{
glyphname = J;
kernLeft = J;
kernRight = U;
layers = (
{
anchors = (
{
name = top;
pos = (353,640);
}
);
layerId = "C21910D5-47BB-472B-A83D-89B2B42B8F2A";
shapes = (
{
closed = 1;
nodes = (
(50,43,o),
(87,-8,o),
(181,-8,cs),
(271,-8,o),
(345,41,o),
(371,171,cs),
(465,640,l),
(263,640,l),
(254,596,l),
(408,596,l),
(323,171,ls),
(306,83,o),
(260,36,o),
(183,36,cs),
(116,36,o),
(96,69,o),
(90,121,c),
(46,112,l)
);
}
);
width = 448;
},
{
anchors = (
{
name = top;
pos = (353,640);
}
);
layerId = "BA106321-29DE-4FD0-898D-B7B08A4D4215";
shapes = (
{
closed = 1;
nodes = (
(44,46,o),
(84,-8,o),
(183,-8,cs),
(276,-8,o),
(351,40,o),
(377,170,cs),
(471,640,l),
(245,640,l),
(232,576,l),
(386,576,l),
(306,172,ls),
(292,103,o),
(261,56,o),
(185,56,cs),
(130,56,o),
(114,83,o),
(111,134,c),
(42,123,l)
);
}
);
width = 448;
},
{
anchors = (
{
name = top;
pos = (353,640);
}
);
layerId = "EBAB10B0-9FDE-44C7-9B16-DD2313400F4E";
shapes = (
{
closed = 1;
nodes = (
(37,53,o),
(79,-8,o),
(184,-8,cs),
(283,-8,o),
(361,39,o),
(387,169,cs),
(481,640,l),
(215,640,l),
(198,552,l),
(352,552,l),
(276,173,ls),
(264,114,o),
(239,72,o),
(187,72,cs),
(155,72,o),
(143,97,o),
(141,156,c),
(36,140,l)
);
}
);
width = 448;
}
);
unicode = 74;
}
{
glyphname = K;
kernRight = K;
layers = (
{
anchors = (
{
name = bottom;
pos = (179,0);
},
{
name = top;
pos = (307,640);
},
{
name = topright;
pos = (419,640);
}
);
background = {
anchors = (
{
name = bottom;
pos = (179,0);
},
{
name = top;
pos = (307,640);
},
{
name = topright;
pos = (419,640);
}
);
shapes = (
{
closed = 1;
nodes = (
(69,0,l),
(123,271,l),
(211,271,ls),
(304,271,o),
(330,232,o),
(318,151,cs),
(298,0,l),
(351,0,l),
(369,147,ls),
(383,248,o),
(341,315,o),
(218,315,cs),
(132,315,l),
(197,640,l),
(149,640,l),
(21,0,l)
);
},
{
closed = 1;
nodes = (
(343,400,o),
(431,513,o),
(476,640,c),
(425,640,l),
(374,497,o),
(277,388,o),
(185,305,c),
(234,303,l)
);
}
);
};
layerId = "C21910D5-47BB-472B-A83D-89B2B42B8F2A";
shapes = (
{
closed = 1;
nodes = (
(69,0,l),
(123,271,l),
(211,271,ls),
(304,271,o),
(329,232,o),
(318,151,cs),
(298,0,l),
(351,0,l),
(369,147,ls),
(381,241,o),
(348,304,o),
(246,314,c),
(350,409,o),
(433,518,o),
(476,640,c),
(425,640,l),
(376,503,o),
(285,397,o),
(196,315,c),
(132,315,l),
(197,640,l),
(149,640,l),
(21,0,l)
);
}
);
width = 448;
},
{
anchors = (
{
name = bottom;
pos = (179,0);
},
{
name = top;
pos = (307,640);
},
{
name = topright;
pos = (419,640);
}
);
background = {
anchors = (
{
name = bottom;
pos = (179,0);
},
{
name = top;
pos = (307,640);
},
{
name = topright;
pos = (419,640);
}
);
shapes = (
{
closed = 1;
nodes = (
(87,0,l),
(139,261,l),
(209,261,ls),
(293,261,o),
(314,234,o),
(301,149,cs),
(279,0,l),
(354,0,l),
(372,148,ls),
(386,263,o),
(341,325,o),
(220,325,cs),
(152,325,l),
(215,640,l),
(143,640,l),
(15,0,l)
);
},
{
closed = 1;
nodes = (
(367,401,o),
(428,487,o),
(484,640,c),
(407,640,l),
(354,492,o),
(289,414,o),
(196,324,c),
(255,300,l)
);
}
);
};
layerId = "BA106321-29DE-4FD0-898D-B7B08A4D4215";
shapes = (
{
closed = 1;
nodes = (
(87,0,l),
(139,261,l),
(209,261,ls),
(293,261,o),
(314,234,o),
(301,149,cs),
(279,0,l),
(354,0,l),
(372,148,ls),
(384,244,o),
(354,302,o),
(276,319,c),
(375,412,o),
(432,498,o),
(484,640,c),
(407,640,l),
(354,492,o),
(290,415,o),
(197,325,c),
(152,325,l),
(215,640,l),
(143,640,l),
(15,0,l)
);
}
);
width = 448;
},
{
anchors = (
{
name = bottom;
pos = (179,0);
},
{
name = top;
pos = (307,640);
},
{
name = topright;
pos = (379,640);
}
);
background = {
anchors = (
{
name = bottom;
pos = (179,0);
},
{
name = top;
pos = (307,640);
},
{
name = topright;
pos = (379,640);
}
);
shapes = (
{
closed = 1;
nodes = (
(117,0,l),
(168,253,l),
(208,253,ls),
(268,253,o),
(285,227,o),
(272,145,cs),
(250,0,l),
(367,0,l),
(383,145,ls),
(396,260,o),
(357,333,o),
(221,333,cs),
(184,333,l),
(245,640,l),
(133,640,l),
(5,0,l)
);
},
{
closed = 1;
nodes = (
(375,399,o),
(437,496,o),
(498,640,c),
(377,640,l),
(329,510,o),
(278,421,o),
(200,332,c),
(256,293,l)
);
}
);
};
layerId = "EBAB10B0-9FDE-44C7-9B16-DD2313400F4E";
shapes = (
{
closed = 1;
nodes = (
(117,0,l),
(168,253,l),
(208,253,ls),
(268,253,o),
(285,227,o),
(272,145,cs),
(250,0,l),
(367,0,l),
(383,145,ls),
(393,237,o),
(370,303,o),
(290,325,c),
(387,419,o),
(443,510,o),
(498,640,c),
(377,640,l),
(329,510,o),
(278,421,o),
(201,333,c),
(184,333,l),
(245,640,l),
(133,640,l),
(5,0,l)
);
}
);
width = 448;
}
);
unicode = 75;
}
{
glyphname = L;
kernRight = L;
layers = (
{
anchors = (
{
name = "#center";
pos = (153,352);
},
{
name = "#slash";
pos = (121,271);
},
{
name = bottom;
pos = (173,0);
},
{
name = top;
pos = (173,640);
}
);
layerId = "C21910D5-47BB-472B-A83D-89B2B42B8F2A";
shapes = (
{
closed = 1;
nodes = (
(333,0,l),
(342,44,l),
(78,44,l),
(197,640,l),
(149,640,l),
(21,0,l)
);
}
);
width = 448;
},
{
anchors = (
{
name = "#center";
pos = (153,352);
},
{
name = "#slash";
pos = (121,271);
},
{
name = bottom;
pos = (173,0);
},
{
name = top;
pos = (179,640);
}
);
guides = (
{
angle = 78.69;
pos = (339,0);
},
{
angle = 78.69;
pos = (275,0);
},
{
angle = 78.69;
pos = (211,0);
},
{
angle = 78.69;
pos = (147,0);
},
{
angle = 78.69;
pos = (83,0);
},
{
angle = 78.69;
pos = (19,0);
}
);
layerId = "BA106321-29DE-4FD0-898D-B7B08A4D4215";
shapes = (
{
closed = 1;
nodes = (
(339,0,l),
(352,64,l),
(100,64,l),
(215,640,l),
(143,640,l),
(15,0,l)
);
}
);
width = 448;
},
{
anchors = (
{
name = "#center";
pos = (153,352);
},
{
name = "#slash";
pos = (121,271);
},
{
name = bottom;
pos = (173,0);
},
{
name = top;
pos = (189,640);
}
);
layerId = "EBAB10B0-9FDE-44C7-9B16-DD2313400F4E";
shapes = (
{
closed = 1;
nodes = (
(349,0,l),
(367,88,l),
(135,88,l),
(245,640,l),
(133,640,l),
(5,0,l)
);
}
);
width = 448;
}
);
unicode = 76;
}
{
glyphname = N;
layers = (
{
anchors = (
{
name = bottom;
pos = (179,0);
},
{
name = top;
pos = (307,640);
}
);
background = {
anchors = (
{
name = bottom;
pos = (179,0);
},
{
name = top;
pos = (307,640);
}
);
shapes = (
{
closed = 1;
nodes = (
(21,0,l),
(69,0,l),
(191,608,l),
(213,640,l),
(149,640,l)
);
},
{
closed = 1;
nodes = (
(295,31,l),
(274,0,l),
(337,0,l),
(465,640,l),
(417,640,l)
);
},
{
closed = 1;
nodes = (
(274,0,l),
(319,0,l),
(280,257,l),
(213,640,l),
(168,640,l),
(207,384,l)
);
}
);
};
layerId = "C21910D5-47BB-472B-A83D-89B2B42B8F2A";
shapes = (
{
closed = 1;
nodes = (
(21,0,l),
(69,0,l),
(181,557,l),
(207,384,l),
(274,0,l),
(337,0,l),
(465,640,l),
(417,640,l),
(306,86,l),
(280,257,l),
(213,640,l),
(149,640,l)
);
}
);
width = 448;
},
{
anchors = (
{
name = bottom;
pos = (179,0);
},
{
name = top;
pos = (307,640);
}
);
background = {
anchors = (
{
name = bottom;
pos = (179,0);
},
{
name = top;
pos = (307,640);
}
);
shapes = (
{
closed = 1;
nodes = (
(15,0,l),
(87,0,l),
(209,608,l),
(224,640,l),
(143,640,l)
);
},
{
closed = 1;
nodes = (
(277,31,l),
(263,0,l),
(343,0,l),
(471,640,l),
(399,640,l)
);
},
{
closed = 1;
nodes = (
(263,0,l),
(302,25,l),
(291,256,l),
(224,640,l),
(183,615,l),
(195,384,l)
);
}
);
};
layerId = "BA106321-29DE-4FD0-898D-B7B08A4D4215";
shapes = (
{
closed = 1;
nodes = (
(15,0,l),
(87,0,l),
(189,507,l),
(195,384,l),
(263,0,l),
(343,0,l),
(471,640,l),
(399,640,l),
(297,131,l),
(291,256,l),
(224,640,l),
(143,640,l)
);
}
);
width = 448;
},
{
anchors = (
{
name = bottom;
pos = (179,0);
},
{
name = top;
pos = (307,640);
}
);
background = {
anchors = (
{
name = bottom;
pos = (179,0);
},
{
name = top;
pos = (307,640);
}
);
shapes = (
{
closed = 1;
nodes = (
(5,0,l),
(107,0,l),
(220,608,l),
(244,640,l),
(133,640,l)
);
},
{
closed = 1;
nodes = (
(266,31,l),
(243,0,l),
(353,0,l),
(481,640,l),
(379,640,l)
);
},
{
closed = 1;
nodes = (
(243,0,l),
(292,25,l),
(290,272,l),
(244,640,l),
(193,615,l),
(196,368,l)
);
}
);
};
layerId = "EBAB10B0-9FDE-44C7-9B16-DD2313400F4E";
shapes = (
{
closed = 1;
nodes = (
(5,0,l),
(107,0,l),
(195,472,l),
(196,368,l),
(243,0,l),
(353,0,l),
(481,640,l),
(379,640,l),
(291,165,l),
(290,272,l),
(244,640,l),
(133,640,l)
);
}
);
width = 448;
}
);
unicode = 78;
}
{
glyphname = O;
layers = (
{
anchors = (
{
name = "#center";
pos = (243,319);
},
{
name = bottom;
pos = (179,0);
},
{
name = bottomAttach;
pos = (241,0);
},
{
name = top;
pos = (307,640);
}
);
layerId = "C21910D5-47BB-472B-A83D-89B2B42B8F2A";
shapes = (
{
closed = 1;
nodes = (
(304,-10,o),
(380,100,o),
(423,315,cs),
(468,539,o),
(432,650,o),
(306,650,cs),
(185,650,o),
(107,543,o),
(63,323,cs),
(19,104,o),
(57,-10,o),
(181,-10,cs)
);
},
{
closed = 1;
nodes = (
(92,34,o),
(74,119,o),
(113,315,cs),
(154,517,o),
(210,606,o),
(304,606,cs),
(394,606,o),
(412,521,o),
(373,323,cs),
(333,123,o),
(276,34,o),
(183,34,cs)
);
}
);
width = 448;
},
{
anchors = (
{
name = "#center";
pos = (243,319);
},
{
name = bottom;
pos = (179,0);
},
{
name = bottomAttach;
pos = (244,0);
},
{
name = top;
pos = (307,640);
}
);
layerId = "BA106321-29DE-4FD0-898D-B7B08A4D4215";
shapes = (
{
closed = 1;
nodes = (
(309,-10,o),
(386,99,o),
(429,313,cs),
(474,538,o),
(436,650,o),
(304,650,cs),
(181,650,o),
(101,544,o),
(57,325,cs),
(13,105,o),
(54,-10,o),
(182,-10,cs)
);
},
{
closed = 1;
nodes = (
(107,56,o),
(93,125,o),
(131,313,cs),
(170,509,o),
(218,584,o),
(301,584,cs),
(380,584,o),
(393,515,o),
(355,325,cs),
(316,131,o),
(269,56,o),
(185,56,cs)
);
}
);
width = 448;
},
{
anchors = (
{
name = "#center";
pos = (243,319);
},
{
name = bottom;
pos = (179,0);
},
{
name = bottomAttach;
pos = (248,0);
},
{
name = top;
pos = (307,640);
}
);
layerId = "EBAB10B0-9FDE-44C7-9B16-DD2313400F4E";
shapes = (
{
closed = 1;
nodes = (
(316,-10,o),
(396,98,o),
(438,310,cs),
(484,537,o),
(442,650,o),
(303,650,cs),
(174,650,o),
(91,545,o),
(48,328,cs),
(3,106,o),
(48,-10,o),
(184,-10,cs)
);
},
{
closed = 1;
nodes = (
(131,72,o),
(125,136,o),
(160,310,cs),
(197,496,o),
(237,568,o),
(299,568,cs),
(355,568,o),
(361,504,o),
(326,328,cs),
(289,144,o),
(249,72,o),
(187,72,cs)
);
}
);
width = 448;
}
);
unicode = 79;
}
{
glyphname = P;
kernRight = P;
layers = (
{
anchors = (
{
name = bottom;
pos = (45,0);
},
{
name = top;
pos = (287,640);
}
);
layerId = "C21910D5-47BB-472B-A83D-89B2B42B8F2A";
shapes = (
{
closed = 1;
nodes = (
(69,0,l),
(110,202,l),
(210,202,ls),
(318,202,o),
(405,273,o),
(433,415,cs),
(462,560,o),
(403,640,o),
(294,640,cs),
(149,640,l),
(21,0,l)
);
},
{
closed = 1;
nodes = (
(188,596,l),
(286,596,ls),
(382,596,o),
(404,528,o),
(383,423,cs),
(362,318,o),
(311,246,o),
(214,246,cs),
(118,246,l)
);
}
);
width = 448;
},
{
anchors = (
{
name = bottom;
pos = (51,0);
},
{
name = top;
pos = (287,640);
}
);
layerId = "BA106321-29DE-4FD0-898D-B7B08A4D4215";
shapes = (
{
closed = 1;
nodes = (
(87,0,l),
(125,192,l),
(211,192,ls),
(323,192,o),
(409,264,o),
(438,408,cs),
(467,557,o),
(407,640,o),
(295,640,cs),
(143,640,l),
(15,0,l)
);
},
{
closed = 1;
nodes = (
(202,576,l),
(281,576,ls),
(374,576,o),
(383,515,o),
(364,420,cs),
(345,323,o),
(307,256,o),
(212,256,cs),
(138,256,l)
);
}
);
width = 448;
},
{
anchors = (
{
name = bottom;
pos = (61,0);
},
{
name = top;
pos = (287,640);
}
);
layerId = "EBAB10B0-9FDE-44C7-9B16-DD2313400F4E";
shapes = (
{
closed = 1;
nodes = (
(117,0,l),
(154,184,l),
(213,184,ls),
(329,184,o),
(418,257,o),
(446,401,cs),
(477,554,o),
(415,640,o),
(298,640,cs),
(133,640,l),
(5,0,l)
);
},
{
closed = 1;
nodes = (
(229,560,l),
(264,560,ls),
(344,560,o),
(351,505,o),
(334,418,cs),
(315,326,o),
(281,263,o),
(199,263,cs),
(170,263,l)
);
}
);
width = 448;
}
);
unicode = 80;
}
{
glyphname = U;
kernLeft = U;
kernRight = U;
layers = (
{
anchors = (
{
name = bottom;
pos = (179,0);
},
{
name = bottomAttach;
pos = (237,0);
},
{
name = top;
pos = (307,640);
}
);
layerId = "C21910D5-47BB-472B-A83D-89B2B42B8F2A";
shapes = (
{
closed = 1;
nodes = (
(54,165,ls),
(30,44,o),
(87,-8,o),
(181,-8,cs),
(271,-8,o),
(345,40,o),
(370,163,cs),
(465,640,l),
(417,640,l),
(322,163,ls),
(308,94,o),
(270,36,o),
(183,36,cs),
(95,36,o),
(87,90,o),
(101,159,cs),
(197,640,l),
(149,640,l)
);
}
);
width = 448;
},
{
anchors = (
{
name = bottom;
pos = (179,0);
},
{
name = bottomAttach;
pos = (238,0);
},
{
name = top;
pos = (307,640);
}
);
layerId = "BA106321-29DE-4FD0-898D-B7B08A4D4215";
shapes = (
{
closed = 1;
nodes = (
(50,175,ls),
(24,46,o),
(84,-8,o),
(183,-8,cs),
(276,-8,o),
(351,40,o),
(377,170,cs),
(471,640,l),
(399,640,l),
(306,172,ls),
(292,103,o),
(261,56,o),
(185,56,cs),
(111,56,o),
(106,97,o),
(120,166,cs),
(215,640,l),
(143,640,l)
);
}
);
width = 448;
},
{
anchors = (
{
name = bottom;
pos = (179,0);
},
{
name = bottomAttach;
pos = (241,0);
},
{
name = top;
pos = (307,640);
}
);
layerId = "EBAB10B0-9FDE-44C7-9B16-DD2313400F4E";
shapes = (
{
closed = 1;
nodes = (
(43,191,ls),
(15,49,o),
(79,-8,o),
(184,-8,cs),
(283,-8,o),
(361,41,o),
(390,183,cs),
(481,640,l),
(369,640,l),
(278,186,ls),
(265,118,o),
(239,72,o),
(187,72,cs),
(138,72,o),
(139,110,o),
(153,178,cs),
(245,640,l),
(133,640,l)
);
}
);
width = 448;
}
);
unicode = 85;
}
{
glyphname = X;
kernLeft = X;
kernRight = X;
layers = (
{
anchors = (
{
name = bottom;
pos = (179,0);
},
{
name = top;
pos = (307,640);
}
);
background = {
anchors = (
{
name = bottom;
pos = (179,0);
},
{
name = top;
pos = (307,640);
}
);
shapes = (
{
closed = 1;
nodes = (
(223,281,ls),
(285,195,o),
(301,140,o),
(300,0,c),
(348,0,l),
(349,128,o),
(338,204,o),
(266,301,cs),
(253,318,ls),
(189,405,o),
(173,463,o),
(193,640,c),
(146,640,l),
(128,470,o),
(142,390,o),
(212,295,cs)
);
},
{
closed = 1;
nodes = (
(257,281,l),
(367,377,o),
(418,468,o),
(469,640,c),
(420,640,l),
(371,472,o),
(325,391,o),
(231,313,c),
(215,313,l),
(106,209,o),
(59,130,o),
(7,0,c),
(59,0,l),
(112,130,o),
(153,197,o),
(240,281,c)
);
}
);
};
layerId = "C21910D5-47BB-472B-A83D-89B2B42B8F2A";
shapes = (
{
closed = 1;
nodes = (
(59,0,l),
(110,125,o),
(149,191,o),
(230,271,c),
(286,191,o),
(301,135,o),
(300,0,c),
(348,0,l),
(349,126,o),
(338,201,o),
(271,294,c),
(372,386,o),
(420,475,o),
(469,640,c),
(420,640,l),
(374,482,o),
(330,401,o),
(247,327,c),
(188,410,o),
(174,470,o),
(193,640,c),
(146,640,l),
(129,476,o),
(141,396,o),
(206,304,c),
(103,204,o),
(57,125,o),
(7,0,c)
);
}
);
width = 448;
},
{
anchors = (
{
name = bottom;
pos = (179,0);
},
{
name = top;
pos = (307,640);
}
);
background = {
anchors = (
{
name = bottom;
pos = (179,0);
},
{
name = top;
pos = (307,640);
}
);
shapes = (
{
closed = 1;
nodes = (
(227,266,l),
(273,185,o),
(283,123,o),
(282,0,c),
(354,0,l),
(356,128,o),
(340,208,o),
(281,310,c),
(250,333,l),
(202,408,o),
(195,483,o),
(211,640,c),
(140,640,l),
(122,470,o),
(137,378,o),
(204,284,c)
);
},
{
closed = 1;
nodes = (
(270,285,l),
(382,382,o),
(426,470,o),
(476,640,c),
(403,640,l),
(357,484,o),
(317,408,o),
(240,337,c),
(202,310,l),
(95,204,o),
(52,128,o),
(1,0,c),
(77,0,l),
(124,122,o),
(162,184,o),
(237,264,c)
);
}
);
};
layerId = "BA106321-29DE-4FD0-898D-B7B08A4D4215";
shapes = (
{
closed = 1;
nodes = (
(77,0,l),
(123,119,o),
(160,181,o),
(231,258,c),
(274,180,o),
(283,120,o),
(282,0,c),
(354,0,l),
(356,125,o),
(341,203,o),
(287,300,c),
(386,391,o),
(429,480,o),
(476,640,c),
(403,640,l),
(358,487,o),
(319,411,o),
(245,341,c),
(202,413,o),
(196,490,o),
(211,640,c),
(140,640,l),
(123,479,o),
(135,390,o),
(193,301,c),
(92,199,o),
(50,123,o),
(1,0,c)
);
}
);
width = 448;
},
{
anchors = (
{
name = bottom;
pos = (179,0);
},
{
name = top;
pos = (307,640);
}
);
background = {
anchors = (
{
name = bottom;
pos = (179,0);
},
{
name = top;
pos = (307,640);
}
);
shapes = (
{
closed = 1;
nodes = (
(206,268,l),
(247,186,o),
(255,124,o),
(253,0,c),
(364,0,l),
(368,127,o),
(353,207,o),
(300,308,c),
(274,334,l),
(226,407,o),
(222,482,o),
(240,640,c),
(129,640,l),
(110,471,o),
(122,379,o),
(184,285,c)
);
},
{
closed = 1;
nodes = (
(286,287,l),
(390,380,o),
(436,470,o),
(486,640,c),
(373,640,l),
(329,484,o),
(293,407,o),
(224,336,c),
(188,310,l),
(87,208,o),
(41,128,o),
(-9,0,c),
(107,0,l),
(153,123,o),
(187,187,o),
(257,268,c)
);
}
);
};
layerId = "EBAB10B0-9FDE-44C7-9B16-DD2313400F4E";
shapes = (
{
closed = 1;
nodes = (
(107,0,l),
(145,102,o),
(175,163,o),
(224,228,c),
(250,162,o),
(255,104,o),
(253,0,c),
(364,0,l),
(368,125,o),
(354,204,o),
(303,303,c),
(396,391,o),
(439,480,o),
(486,640,c),
(373,640,l),
(336,509,o),
(305,434,o),
(254,370,c),
(225,434,o),
(225,508,o),
(240,640,c),
(129,640,l),
(111,479,o),
(121,388,o),
(176,298,c),
(83,201,o),
(39,123,o),
(-9,0,c)
);
}
);
width = 448;
}
);
unicode = 88;
}
{
glyphname = Z;
kernLeft = Z;
kernRight = Z;
layers = (
{
anchors = (
{
name = "#center";
pos = (243,320);
},
{
name = bottom;
pos = (179,0);
},
{
name = top;
pos = (307,640);
}
);
background = {
anchors = (
{
name = bottom;
pos = (179,0);
},
{
name = center;
pos = (243,320);
},
{
name = top;
pos = (307,640);
}
);
shapes = (
{
closed = 1;
nodes = (
(337,0,l),
(346,44,l),
(55,44,l),
(80,37,l),
(458,603,l),
(465,640,l),
(156,640,l),
(147,596,l),
(426,596,l),
(401,603,l),
(23,37,l),
(16,0,l)
);
}
);
};
layerId = "C21910D5-47BB-472B-A83D-89B2B42B8F2A";
shapes = (
{
closed = 1;
nodes = (
(337,0,l),
(346,44,l),
(85,44,l),
(458,603,l),
(465,640,l),
(156,640,l),
(147,596,l),
(396,596,l),
(23,37,l),
(16,0,l)
);
}
);
width = 448;
},
{
anchors = (
{
name = "#center";
pos = (243,320);
},
{
name = bottom;
pos = (179,0);
},
{
name = top;
pos = (307,640);
}
);
background = {
anchors = (
{
name = bottom;
pos = (179,0);
},
{
name = center;
pos = (243,320);
},
{
name = top;
pos = (307,640);
}
);
shapes = (
{
closed = 1;
nodes = (
(343,0,l),
(356,64,l),
(59,64,l),
(103,52,l),
(462,588,l),
(471,640,l),
(150,640,l),
(137,576,l),
(423,576,l),
(379,588,l),
(20,52,l),
(10,0,l)
);
}
);
};
layerId = "BA106321-29DE-4FD0-898D-B7B08A4D4215";
shapes = (
{
closed = 1;
nodes = (
(343,0,l),
(356,64,l),
(111,64,l),
(462,588,l),
(471,640,l),
(150,640,l),
(137,576,l),
(371,576,l),
(20,52,l),
(10,0,l)
);
}
);
width = 448;
},
{
anchors = (
{
name = "#center";
pos = (243,320);
},
{
name = bottom;
pos = (179,0);
},
{
name = top;
pos = (307,640);
}
);
background = {
anchors = (
{
name = bottom;
pos = (179,0);
},
{
name = center;
pos = (243,320);
},
{
name = top;
pos = (307,640);
}
);
shapes = (
{
closed = 1;
nodes = (
(353,0,l),
(369,80,l),
(62,80,l),
(138,60,l),
(470,580,l),
(481,640,l),
(140,640,l),
(124,560,l),
(420,560,l),
(343,580,l),
(11,60,l),
(0,0,l)
);
}
);
};
layerId = "EBAB10B0-9FDE-44C7-9B16-DD2313400F4E";
shapes = (
{
closed = 1;
nodes = (
(353,0,l),
(369,80,l),
(151,80,l),
(470,580,l),
(481,640,l),
(140,640,l),
(124,560,l),
(330,560,l),
(11,60,l),
(0,0,l)
);
}
);
width = 448;
}
);
unicode = 90;
}
{
glyphname = bracketright;
kernLeft = parenright;
layers = (
{
layerId = "C21910D5-47BB-472B-A83D-89B2B42B8F2A";
shapes = (
{
closed = 1;
nodes = (
(388,704,l),
(216,704,l),
(207,660,l),
(331,660,l),
(195,-20,l),
(71,-20,l),
(62,-64,l),
(234,-64,l)
);
}
);
width = 448;
},
{
layerId = "BA106321-29DE-4FD0-898D-B7B08A4D4215";
shapes = (
{
closed = 1;
nodes = (
(400,704,l),
(204,704,l),
(191,640,l),
(315,640,l),
(187,0,l),
(63,0,l),
(50,-64,l),
(246,-64,l)
);
}
);
width = 448;
},
{
layerId = "EBAB10B0-9FDE-44C7-9B16-DD2313400F4E";
shapes = (
{
closed = 1;
nodes = (
(420,704,l),
(184,704,l),
(168,624,l),
(292,624,l),
(170,16,l),
(46,16,l),
(30,-64,l),
(266,-64,l)
);
}
);
width = 448;
}
);
unicode = 93;
}
{
glyphname = asciicircum;
layers = (
{
background = {
shapes = (
{
closed = 1;
nodes = (
(47,192,l),
(98,192,l),
(309,566,l),
(259,566,l)
);
},
{
closed = 1;
nodes = (
(325,566,l),
(277,566,l),
(338,192,l),
(387,192,l)
);
}
);
};
layerId = "C21910D5-47BB-472B-A83D-89B2B42B8F2A";
shapes = (
{
closed = 1;
nodes = (
(47,192,l),
(98,192,l),
(284,522,l),
(338,192,l),
(387,192,l),
(325,566,l),
(259,566,l)
);
}
);
width = 448;
},
{
background = {
shapes = (
{
closed = 1;
nodes = (
(41,192,l),
(118,192,l),
(319,566,l),
(249,566,l)
);
},
{
closed = 1;
nodes = (
(335,566,l),
(267,566,l),
(318,192,l),
(393,192,l)
);
}
);
};
layerId = "BA106321-29DE-4FD0-898D-B7B08A4D4215";
shapes = (
{
closed = 1;
nodes = (
(41,192,l),
(118,192,l),
(278,489,l),
(318,192,l),
(393,192,l),
(335,566,l),
(249,566,l)
);
}
);
width = 448;
},
{
background = {
shapes = (
{
closed = 1;
nodes = (
(31,192,l),
(148,192,l),
(335,566,l),
(238,566,l)
);
},
{
closed = 1;
nodes = (
(344,566,l),
(251,566,l),
(288,192,l),
(403,192,l)
);
}
);
};
layerId = "EBAB10B0-9FDE-44C7-9B16-DD2313400F4E";
shapes = (
{
closed = 1;
nodes = (
(31,192,l),
(148,192,l),
(265,426,l),
(288,192,l),
(403,192,l),
(344,566,l),
(238,566,l)
);
}
);
width = 448;
}
);
unicode = 94;
}
{
glyphname = underscore;
layers = (
{
layerId = "C21910D5-47BB-472B-A83D-89B2B42B8F2A";
shapes = (
{
closed = 1;
nodes = (
(339,0,l),
(19,0,l),
(10,-44,l),
(330,-44,l)
);
}
);
width = 448;
},
{
layerId = "BA106321-29DE-4FD0-898D-B7B08A4D4215";
shapes = (
{
closed = 1;
nodes = (
(339,0,l),
(19,0,l),
(6,-64,l),
(326,-64,l)
);
}
);
width = 448;
},
{
layerId = "EBAB10B0-9FDE-44C7-9B16-DD2313400F4E";
shapes = (
{
closed = 1;
nodes = (
(339,0,l),
(19,0,l),
(0,-96,l),
(320,-96,l)
);
}
);
width = 448;
}
);
unicode = 95;
}
{
glyphname = c;
kernLeft = o;
kernRight = c;
layers = (
{
anchors = (
{
name = bottom;
pos = (195,0);
},
{
name = bottomAttach;
pos = (256,0);
},
{
name = top;
pos = (285,448);
}
);
layerId = "C21910D5-47BB-472B-A83D-89B2B42B8F2A";
shapes = (
{
closed = 1;
nodes = (
(390,436,l),
(356,448,o),
(312,455,o),
(272,455,cs),
(139,455,o),
(76,354,o),
(51,228,cs),
(25,98,o),
(51,-7,o),
(185,-7,cs),
(226,-7,o),
(267,0,o),
(308,12,c),
(304,54,l),
(262,42,o),
(225,36,o),
(193,36,cs),
(101,36,o),
(77,97,o),
(101,220,cs),
(126,346,o),
(174,413,o),
(274,413,cs),
(304,413,o),
(336,410,o),
(376,398,c)
);
}
);
width = 448;
},
{
anchors = (
{
name = bottom;
pos = (195,0);
},
{
name = bottomAttach;
pos = (267,0);
},
{
name = top;
pos = (285,448);
}
);
layerId = "BA106321-29DE-4FD0-898D-B7B08A4D4215";
shapes = (
{
closed = 1;
nodes = (
(398,435,l),
(360,449,o),
(320,455,o),
(279,455,cs),
(138,455,o),
(76,355,o),
(51,230,cs),
(25,99,o),
(50,-7,o),
(197,-7,cs),
(232,-7,o),
(274,-3,o),
(318,11,c),
(312,73,l),
(274,63,o),
(242,57,o),
(204,57,cs),
(119,57,o),
(100,96,o),
(125,218,cs),
(150,346,o),
(191,391,o),
(280,391,cs),
(314,391,o),
(344,387,o),
(378,377,c)
);
}
);
width = 448;
},
{
anchors = (
{
name = bottom;
pos = (195,0);
},
{
name = bottomAttach;
pos = (267,0);
},
{
name = top;
pos = (285,448);
}
);
layerId = "EBAB10B0-9FDE-44C7-9B16-DD2313400F4E";
shapes = (
{
closed = 1;
nodes = (
(417,429,l),
(376,447,o),
(333,455,o),
(289,455,cs),
(136,455,o),
(76,356,o),
(52,233,cs),
(25,100,o),
(50,-7,o),
(209,-7,cs),
(247,-7,o),
(292,-3,o),
(339,15,c),
(331,92,l),
(301,84,o),
(268,77,o),
(235,77,cs),
(159,77,o),
(143,110,o),
(164,215,cs),
(187,330,o),
(225,371,o),
(307,371,cs),
(337,371,o),
(368,366,o),
(391,358,c)
);
}
);
width = 448;
}
);
unicode = 99;
}
{
glyphname = e;
kernLeft = o;
kernRight = e;
layers = (
{
anchors = (
{
name = bottom;
pos = (179,0);
},
{
name = bottomAttach;
pos = (296,0);
},
{
name = top;
pos = (269,448);
}
);
background = {
anchors = (
{
name = bottom;
pos = (179,0);
},
{
name = bottomAttach;
pos = (296,0);
},
{
name = top;
pos = (269,448);
}
);
shapes = (
{
closed = 1;
nodes = (
(30,95,o),
(54,-13,o),
(198,-13,cs),
(243,-13,o),
(289,-6,o),
(331,9,c),
(326,48,l),
(286,37,o),
(245,29,o),
(209,29,cs),
(99,29,o),
(83,101,o),
(107,220,cs),
(134,354,o),
(182,417,o),
(266,417,cs),
(347,417,o),
(369,348,o),
(338,226,c),
(385,256,l),
(93,256,l),
(84,214,l),
(387,214,l),
(426,371,o),
(381,461,o),
(268,461,cs),
(146,461,o),
(83,357,o),
(57,228,cs)
);
}
);
};
layerId = "C21910D5-47BB-472B-A83D-89B2B42B8F2A";
shapes = (
{
closed = 1;
nodes = (
(30,95,o),
(54,-13,o),
(198,-13,cs),
(243,-13,o),
(289,-6,o),
(331,9,c),
(326,48,l),
(286,37,o),
(245,29,o),
(209,29,cs),
(101,29,o),
(84,99,o),
(106,214,c),
(387,214,l),
(426,371,o),
(381,461,o),
(268,461,cs),
(146,461,o),
(83,357,o),
(57,228,cs)
);
},
{
closed = 1;
nodes = (
(143,365,o),
(190,417,o),
(266,417,cs),
(340,417,o),
(365,359,o),
(345,256,c),
(115,256,l)
);
}
);
width = 448;
},
{
anchors = (
{
name = bottom;
pos = (179,0);
},
{
name = bottomAttach;
pos = (286,0);
},
{
name = top;
pos = (269,448);
}
);
background = {
anchors = (
{
name = bottom;
pos = (179,0);
},
{
name = bottomAttach;
pos = (286,0);
},
{
name = top;
pos = (269,448);
}
);
shapes = (
{
closed = 1;
nodes = (
(24,96,o),
(50,-13,o),
(200,-13,cs),
(240,-13,o),
(286,-5,o),
(335,15,c),
(328,75,l),
(288,62,o),
(249,51,o),
(206,51,cs),
(119,51,o),
(100,92,o),
(125,218,cs),
(151,348,o),
(192,397,o),
(264,397,cs),
(331,397,o),
(350,346,o),
(320,227,c),
(369,262,l),
(100,262,l),
(87,202,l),
(391,202,l),
(434,357,o),
(391,461,o),
(266,461,cs),
(140,461,o),
(77,358,o),
(51,230,cs)
);
}
);
};
layerId = "BA106321-29DE-4FD0-898D-B7B08A4D4215";
shapes = (
{
closed = 1;
nodes = (
(24,96,o),
(50,-13,o),
(200,-13,cs),
(240,-13,o),
(286,-5,o),
(335,15,c),
(328,75,l),
(288,62,o),
(249,51,o),
(206,51,cs),
(123,51,o),
(102,89,o),
(122,202,c),
(391,202,l),
(434,357,o),
(391,461,o),
(266,461,cs),
(140,461,o),
(77,358,o),
(51,230,cs)
);
},
{
closed = 1;
nodes = (
(161,358,o),
(201,397,o),
(264,397,cs),
(324,397,o),
(346,357,o),
(328,262,c),
(135,262,l)
);
}
);
width = 448;
},
{
anchors = (
{
name = bottom;
pos = (179,0);
},
{
name = bottomAttach;
pos = (286,0);
},
{
name = top;
pos = (269,448);
}
);
background = {
anchors = (
{
name = bottom;
pos = (179,0);
},
{
name = bottomAttach;
pos = (286,0);
},
{
name = top;
pos = (269,448);
}
);
shapes = (
{
closed = 1;
nodes = (
(15,97,o),
(43,-13,o),
(201,-13,cs),
(249,-13,o),
(301,-1,o),
(351,18,c),
(341,93,l),
(301,80,o),
(256,67,o),
(220,67,cs),
(148,67,o),
(132,103,o),
(154,215,cs),
(178,335,o),
(211,381,o),
(262,381,cs),
(307,381,o),
(320,335,o),
(291,228,c),
(339,265,l),
(110,265,l),
(95,189,l),
(396,189,l),
(446,337,o),
(408,461,o),
(265,461,cs),
(131,461,o),
(67,359,o),
(42,233,cs)
);
}
);
};
layerId = "EBAB10B0-9FDE-44C7-9B16-DD2313400F4E";
shapes = (
{
closed = 1;
nodes = (
(15,97,o),
(43,-13,o),
(201,-13,cs),
(249,-13,o),
(301,-1,o),
(351,18,c),
(341,93,l),
(301,80,o),
(256,67,o),
(220,67,cs),
(154,67,o),
(135,98,o),
(149,189,c),
(396,189,l),
(446,337,o),
(408,461,o),
(265,461,cs),
(131,461,o),
(67,359,o),
(42,233,cs)
);
},
{
closed = 1;
nodes = (
(189,349,o),
(219,381,o),
(262,381,cs),
(301,381,o),
(316,345,o),
(300,265,c),
(166,265,l)
);
}
);
width = 448;
}
);
unicode = 101;
}
{
color = 9;
glyphname = f;
kernLeft = f;
kernRight = f;
layers = (
{
anchors = (
{
name = bottom;
pos = (101,-192);
},
{
name = top;
pos = (347,640);
}
);
background = {
anchors = (
{
name = bottom;
pos = (101,-192);
},
{
name = top;
pos = (347,640);
}
);
shapes = (
{
closed = 1;
nodes = (
(206,406,l),
(374,406,l),
(383,448,l),
(104,448,l),
(96,408,l),
(182,405,l)
);
},
{
closed = 1;
nodes = (
(102,-150,o),
(130,-114,o),
(147,-14,cs),
(238,503,ls),
(247,555,o),
(280,604,o),
(347,604,cs),
(373,604,o),
(406,600,o),
(436,593,c),
(450,635,l),
(420,642,o),
(386,648,o),
(345,648,cs),
(272,648,o),
(207,605,o),
(190,502,cs),
(100,-10,ls),
(85,-96,o),
(57,-133,o),
(23,-170,c),
(56,-195,l)
);
}
);
};
layerId = "C21910D5-47BB-472B-A83D-89B2B42B8F2A";
shapes = (
{
closed = 1;
nodes = (
(102,-150,o),
(130,-114,o),
(147,-14,cs),
(221,406,l),
(374,406,l),
(383,448,l),
(228,448,l),
(238,503,ls),
(247,555,o),
(280,604,o),
(347,604,cs),
(373,604,o),
(406,600,o),
(436,593,c),
(450,635,l),
(420,642,o),
(386,648,o),
(345,648,cs),
(272,648,o),
(207,605,o),
(190,502,cs),
(181,448,l),
(104,448,l),
(96,408,l),
(173,405,l),
(100,-10,ls),
(85,-96,o),
(57,-133,o),
(23,-170,c),
(56,-195,l)
);
}
);
width = 448;
},
{
anchors = (
{
name = bottom;
pos = (101,-192);
},
{
name = top;
pos = (353,640);
}
);
background = {
anchors = (
{
name = bottom;
pos = (101,-192);
},
{
name = top;
pos = (353,640);
}
);
shapes = (
{
closed = 1;
nodes = (
(222,384,l),
(382,384,l),
(395,448,l),
(104,448,l),
(91,386,l),
(182,382,l)
);
},
{
closed = 1;
nodes = (
(116,-159,o),
(155,-113,o),
(171,-14,cs),
(261,499,ls),
(269,546,o),
(296,584,o),
(351,584,cs),
(379,584,o),
(408,580,o),
(440,575,c),
(459,637,l),
(422,644,o),
(386,648,o),
(350,648,cs),
(274,648,o),
(208,608,o),
(189,501,cs),
(101,-9,ls),
(86,-95,o),
(55,-131,o),
(20,-168,c),
(68,-204,l)
);
}
);
};
layerId = "BA106321-29DE-4FD0-898D-B7B08A4D4215";
shapes = (
{
closed = 1;
nodes = (
(116,-159,o),
(155,-113,o),
(171,-14,cs),
(241,384,l),
(382,384,l),
(395,448,l),
(252,448,l),
(261,499,ls),
(269,546,o),
(296,584,o),
(351,584,cs),
(379,584,o),
(408,580,o),
(440,575,c),
(459,637,l),
(422,644,o),
(386,648,o),
(350,648,cs),
(274,648,o),
(208,608,o),
(189,501,cs),
(180,448,l),
(104,448,l),
(91,386,l),
(169,383,l),
(101,-9,ls),
(86,-95,o),
(55,-131,o),
(20,-168,c),
(68,-204,l)
);
}
);
width = 448;
},
{
anchors = (
{
name = bottom;
pos = (101,-192);
},
{
name = top;
pos = (371,640);
}
);
background = {
anchors = (
{
name = bottom;
pos = (101,-192);
},
{
name = top;
pos = (371,640);
}
);
shapes = (
{
closed = 1;
nodes = (
(258,364,l),
(398,364,l),
(415,448,l),
(104,448,l),
(87,366,l),
(178,362,l)
);
},
{
closed = 1;
nodes = (
(167,-153,o),
(195,-102,o),
(211,-8,cs),
(300,496,ls),
(307,536,o),
(333,568,o),
(393,568,cs),
(415,568,o),
(442,566,o),
(466,562,c),
(486,632,l),
(455,640,o),
(405,648,o),
(366,648,cs),
(274,648,o),
(208,609,o),
(190,502,cs),
(101,0,ls),
(87,-80,o),
(63,-123,o),
(28,-170,c),
(118,-205,l)
);
}
);
};
layerId = "EBAB10B0-9FDE-44C7-9B16-DD2313400F4E";
shapes = (
{
closed = 1;
nodes = (
(167,-153,o),
(195,-102,o),
(211,-8,cs),
(277,364,l),
(398,364,l),
(415,448,l),
(292,448,l),
(300,496,ls),
(307,536,o),
(333,568,o),
(393,568,cs),
(415,568,o),
(442,566,o),
(466,562,c),
(486,632,l),
(455,640,o),
(405,648,o),
(366,648,cs),
(274,648,o),
(208,609,o),
(190,502,cs),
(180,448,l),
(104,448,l),
(87,366,l),
(165,363,l),
(101,0,ls),
(87,-80,o),
(63,-123,o),
(28,-170,c),
(118,-205,l)
);
}
);
width = 448;
},
{
anchors = (
{
name = bottom;
pos = (139,0);
},
{
name = top;
pos = (353,640);
}
);
associatedMasterId = "BA106321-29DE-4FD0-898D-B7B08A4D4215";
attr = {
coordinates = (
400,
-64,
1
);
};
background = {
anchors = (
{
name = bottom;
pos = (139,0);
},
{
name = top;
pos = (353,640);
}
);
shapes = (
{
closed = 1;
nodes = (
(222,384,l),
(382,384,l),
(395,448,l),
(104,448,l),
(91,386,l),
(182,382,l)
);
},
{
closed = 1;
nodes = (
(138,-31,o),
(175,15,o),
(193,114,cs),
(261,499,ls),
(269,546,o),
(296,584,o),
(351,584,cs),
(379,584,o),
(408,580,o),
(440,575,c),
(459,637,l),
(422,644,o),
(386,648,o),
(350,648,cs),
(274,648,o),
(208,608,o),
(189,501,cs),
(123,119,ls),
(108,33,o),
(77,-3,o),
(42,-40,c),
(90,-76,l)
);
}
);
};
layerId = "0C2A1DFD-3D88-46A3-B9E6-57B1133C91C6";
name = "{400, 1, -64}";
shapes = (
{
closed = 1;
nodes = (
(138,-31,o),
(175,15,o),
(193,114,cs),
(241,384,l),
(382,384,l),
(395,448,l),
(252,448,l),
(261,499,ls),
(269,546,o),
(296,584,o),
(351,584,cs),
(379,584,o),
(408,580,o),
(440,575,c),
(459,637,l),
(422,644,o),
(386,648,o),
(350,648,cs),
(274,648,o),
(208,608,o),
(189,501,cs),
(180,448,l),
(104,448,l),
(91,386,l),
(169,383,l),
(123,119,ls),
(108,33,o),
(77,-3,o),
(42,-40,c),
(90,-76,l)
);
}
);
width = 448;
},
{
anchors = (
{
name = bottom;
pos = (157,0);
},
{
name = top;
pos = (371,640);
}
);
associatedMasterId = "EBAB10B0-9FDE-44C7-9B16-DD2313400F4E";
attr = {
coordinates = (
700,
-64,
1
);
};
background = {
anchors = (
{
name = bottom;
pos = (157,0);
},
{
name = top;
pos = (371,640);
}
);
shapes = (
{
closed = 1;
nodes = (
(258,364,l),
(398,364,l),
(415,448,l),
(104,448,l),
(87,366,l),
(178,362,l)
);
},
{
closed = 1;
nodes = (
(190,-25,o),
(217,25,o),
(234,120,cs),
(300,496,ls),
(307,536,o),
(333,568,o),
(393,568,cs),
(415,568,o),
(442,566,o),
(466,562,c),
(486,632,l),
(455,640,o),
(405,648,o),
(366,648,cs),
(274,648,o),
(209,610,o),
(190,502,cs),
(124,128,ls),
(110,49,o),
(86,5,o),
(51,-42,c),
(141,-77,l)
);
}
);
};
layerId = "72FD8BAF-D23D-41E5-A137-4EED7A017B0C";
name = "{700, 1, -64}";
shapes = (
{
closed = 1;
nodes = (
(190,-25,o),
(217,25,o),
(234,120,cs),
(277,364,l),
(398,364,l),
(415,448,l),
(292,448,l),
(300,496,ls),
(307,536,o),
(333,568,o),
(393,568,cs),
(415,568,o),
(442,566,o),
(466,562,c),
(486,632,l),
(455,640,o),
(405,648,o),
(366,648,cs),
(274,648,o),
(209,610,o),
(190,502,cs),
(180,448,l),
(104,448,l),
(87,366,l),
(165,363,l),
(124,128,ls),
(110,49,o),
(86,5,o),
(51,-42,c),
(141,-77,l)
);
}
);
width = 448;
},
{
anchors = (
{
name = bottom;
pos = (126,0);
},
{
name = top;
pos = (347,640);
}
);
associatedMasterId = "C21910D5-47BB-472B-A83D-89B2B42B8F2A";
attr = {
coordinates = (
200,
-64,
1
);
};
background = {
anchors = (
{
name = bottom;
pos = (126,0);
},
{
name = top;
pos = (347,640);
}
);
shapes = (
{
closed = 1;
nodes = (
(206,406,l),
(374,406,l),
(383,448,l),
(104,448,l),
(96,408,l),
(182,405,l)
);
},
{
closed = 1;
nodes = (
(124,-22,o),
(151,13,o),
(169,114,cs),
(238,503,ls),
(247,555,o),
(280,604,o),
(347,604,cs),
(373,604,o),
(406,600,o),
(436,593,c),
(450,635,l),
(420,642,o),
(386,648,o),
(345,648,cs),
(272,648,o),
(208,605,o),
(190,502,cs),
(122,118,ls),
(107,33,o),
(79,-5,o),
(45,-42,c),
(78,-67,l)
);
}
);
};
layerId = "130DE1DF-4E37-4F88-A729-EAD246BFBEA1";
name = "{200, 1, -64}";
shapes = (
{
closed = 1;
nodes = (
(124,-22,o),
(151,13,o),
(169,114,cs),
(221,406,l),
(374,406,l),
(383,448,l),
(228,448,l),
(238,503,ls),
(247,555,o),
(280,604,o),
(347,604,cs),
(373,604,o),
(406,600,o),
(436,593,c),
(450,635,l),
(420,642,o),
(386,648,o),
(345,648,cs),
(272,648,o),
(208,605,o),
(190,502,cs),
(180,448,l),
(104,448,l),
(96,408,l),
(173,405,l),
(122,118,ls),
(107,33,o),
(79,-5,o),
(45,-42,c),
(78,-67,l)
);
}
);
width = 448;
}
);
unicode = 102;
}
{
glyphname = g;
kernLeft = g;
kernRight = g;
layers = (
{
anchors = (
{
name = "#center";
pos = (320,224);
},
{
name = bottom;
pos = (141,-192);
},
{
name = top;
pos = (269,448);
}
);
background = {
anchors = (
{
name = "#center";
pos = (320,224);
},
{
name = bottom;
pos = (141,-192);
},
{
name = top;
pos = (269,448);
}
);
shapes = (
{
closed = 1;
nodes = (
(241,-196,o),
(306,-153,o),
(326,-51,cs),
(413,384,l),
(428,448,l),
(385,448,l),
(370,399,l),
(366,374,l),
(282,-44,ls),
(267,-121,o),
(229,-154,o),
(141,-154,cs),
(112,-154,o),
(77,-149,o),
(45,-142,c),
(36,-182,l),
(72,-192,o),
(103,-196,o),
(144,-196,cs)
);
},
{
closed = 1;
nodes = (
(118,456,o),
(45,295,o),
(45,159,cs),
(45,51,o),
(92,-8,o),
(180,-8,cs),
(237,-8,o),
(281,18,o),
(330,57,c),
(311,84,l),
(272,54,o),
(230,34,o),
(185,34,cs),
(128,34,o),
(99,77,o),
(99,159,cs),
(99,273,o),
(154,414,o),
(271,414,cs),
(312,414,o),
(344,396,o),
(371,366,c),
(394,389,l),
(361,428,o),
(331,456,o),
(270,456,cs)
);
}
);
};
layerId = "C21910D5-47BB-472B-A83D-89B2B42B8F2A";
shapes = (
{
closed = 1;
nodes = (
(241,-196,o),
(306,-153,o),
(326,-51,cs),
(413,384,l),
(428,448,l),
(385,448,l),
(374,411,l),
(347,438,o),
(319,456,o),
(270,456,cs),
(118,456,o),
(45,295,o),
(45,159,cs),
(45,51,o),
(92,-8,o),
(180,-8,cs),
(224,-8,o),
(261,8,o),
(297,33,c),
(282,-44,ls),
(267,-121,o),
(229,-154,o),
(141,-154,cs),
(112,-154,o),
(77,-149,o),
(45,-142,c),
(36,-182,l),
(72,-192,o),
(103,-196,o),
(144,-196,cs)
);
},
{
closed = 1;
nodes = (
(128,34,o),
(99,77,o),
(99,159,cs),
(99,273,o),
(154,414,o),
(271,414,cs),
(309,414,o),
(340,398,o),
(366,372,c),
(307,81,l),
(270,53,o),
(229,34,o),
(185,34,cs)
);
}
);
width = 448;
},
{
anchors = (
{
name = "#center";
pos = (320,224);
},
{
name = bottom;
pos = (141,-192);
},
{
name = top;
pos = (269,448);
}
);
background = {
anchors = (
{
name = "#center";
pos = (320,224);
},
{
name = bottom;
pos = (141,-192);
},
{
name = top;
pos = (269,448);
}
);
shapes = (
{
closed = 1;
nodes = (
(238,-196,o),
(311,-157,o),
(335,-39,cs),
(420,384,l),
(435,448,l),
(373,448,l),
(351,383,l),
(344,367,l),
(262,-46,ls),
(251,-102,o),
(224,-132,o),
(146,-132,cs),
(115,-132,o),
(77,-132,o),
(40,-124,c),
(23,-180,l),
(62,-190,o),
(102,-196,o),
(144,-196,cs)
);
},
{
closed = 1;
nodes = (
(130,456,o),
(39,329,o),
(39,157,cs),
(39,50,o),
(88,-8,o),
(178,-8,cs),
(258,-8,o),
(313,40,o),
(348,130,c),
(320,149,l),
(289,81,o),
(241,56,o),
(191,56,cs),
(136,56,o),
(114,85,o),
(114,157,cs),
(114,300,o),
(174,394,o),
(264,394,cs),
(313,394,o),
(349,372,o),
(353,306,c),
(383,313,l),
(384,401,o),
(346,456,o),
(254,456,cs)
);
}
);
};
layerId = "BA106321-29DE-4FD0-898D-B7B08A4D4215";
shapes = (
{
closed = 1;
nodes = (
(238,-196,o),
(311,-157,o),
(335,-39,cs),
(420,384,l),
(435,448,l),
(373,448,l),
(360,409,l),
(339,440,o),
(305,456,o),
(254,456,cs),
(130,456,o),
(39,329,o),
(39,157,cs),
(39,50,o),
(88,-8,o),
(178,-8,cs),
(216,-8,o),
(249,3,o),
(276,24,c),
(262,-46,ls),
(251,-102,o),
(224,-132,o),
(146,-132,cs),
(115,-132,o),
(77,-132,o),
(40,-124,c),
(23,-180,l),
(62,-190,o),
(102,-196,o),
(144,-196,cs)
);
},
{
closed = 1;
nodes = (
(136,56,o),
(114,85,o),
(114,157,cs),
(114,300,o),
(174,394,o),
(264,394,cs),
(298,394,o),
(326,383,o),
(341,354,c),
(292,103,l),
(264,70,o),
(228,56,o),
(191,56,cs)
);
}
);
width = 448;
},
{
anchors = (
{
name = "#center";
pos = (320,224);
},
{
name = bottom;
pos = (141,-192);
},
{
name = top;
pos = (269,448);
}
);
background = {
anchors = (
{
name = "#center";
pos = (320,224);
},
{
name = bottom;
pos = (141,-192);
},
{
name = top;
pos = (269,448);
}
);
shapes = (
{
closed = 1;
nodes = (
(243,-196,o),
(320,-158,o),
(344,-40,cs),
(429,384,l),
(444,448,l),
(355,448,l),
(321,356,l),
(311,356,l),
(231,-45,ls),
(222,-90,o),
(198,-116,o),
(125,-116,cs),
(100,-116,o),
(58,-112,o),
(20,-106,c),
(0,-178,l),
(44,-188,o),
(98,-196,o),
(141,-196,cs)
);
},
{
closed = 1;
nodes = (
(109,456,o),
(26,292,o),
(26,144,cs),
(26,46,o),
(72,-8,o),
(157,-8,cs),
(212,-8,o),
(272,19,o),
(341,133,c),
(297,160,l),
(265,108,o),
(222,74,o),
(185,74,cs),
(154,74,o),
(138,97,o),
(138,143,cs),
(138,224,o),
(181,376,o),
(256,376,cs),
(290,376,o),
(315,348,o),
(327,296,c),
(386,313,l),
(362,427,o),
(305,456,o),
(244,456,cs)
);
}
);
};
layerId = "EBAB10B0-9FDE-44C7-9B16-DD2313400F4E";
shapes = (
{
closed = 1;
nodes = (
(243,-196,o),
(320,-158,o),
(344,-40,cs),
(429,384,l),
(444,448,l),
(355,448,l),
(342,414,l),
(315,446,o),
(280,456,o),
(244,456,cs),
(109,456,o),
(26,292,o),
(26,144,cs),
(26,46,o),
(72,-8,o),
(157,-8,cs),
(185,-8,o),
(214,-1,o),
(244,20,c),
(231,-45,ls),
(222,-90,o),
(198,-116,o),
(125,-116,cs),
(100,-116,o),
(58,-112,o),
(20,-106,c),
(0,-178,l),
(44,-188,o),
(98,-196,o),
(141,-196,cs)
);
},
{
closed = 1;
nodes = (
(154,74,o),
(138,97,o),
(138,143,cs),
(138,224,o),
(181,376,o),
(256,376,cs),
(277,376,o),
(295,366,o),
(309,344,c),
(263,116,l),
(237,89,o),
(210,74,o),
(185,74,cs)
);
}
);
width = 448;
},
{
anchors = (
{
name = "#center";
pos = (330,275);
},
{
name = bottom;
pos = (166,-64);
},
{
name = top;
pos = (269,448);
}
);
associatedMasterId = "BA106321-29DE-4FD0-898D-B7B08A4D4215";
attr = {
coordinates = (
400,
-64,
1
);
};
background = {
anchors = (
{
name = "#center";
pos = (330,275);
},
{
name = bottom;
pos = (141,-192);
},
{
name = top;
pos = (269,448);
}
);
shapes = (
{
closed = 1;
nodes = (
(263,-68,o),
(337,-29,o),
(361,89,cs),
(420,384,l),
(435,448,l),
(373,448,l),
(351,383,l),
(344,367,l),
(288,82,ls),
(277,26,o),
(250,-4,o),
(171,-4,cs),
(141,-4,o),
(103,-4,o),
(66,4,c),
(49,-52,l),
(87,-62,o),
(127,-68,o),
(170,-68,cs)
);
},
{
closed = 1;
nodes = (
(139,456,o),
(52,360,o),
(52,232,cs),
(52,139,o),
(103,88,o),
(197,88,cs),
(277,88,o),
(331,136,o),
(366,225,c),
(338,244,l),
(307,177,o),
(260,152,o),
(210,152,cs),
(152,152,o),
(127,176,o),
(127,232,cs),
(127,328,o),
(182,392,o),
(264,392,cs),
(313,392,o),
(349,370,o),
(353,305,c),
(383,312,l),
(384,401,o),
(346,456,o),
(254,456,cs)
);
}
);
};
layerId = "2FC22154-4411-4A42-8A86-21C966DDCE08";
name = "{400, 1, -64}";
shapes = (
{
closed = 1;
nodes = (
(263,-68,o),
(337,-29,o),
(361,89,cs),
(420,384,l),
(435,448,l),
(373,448,l),
(360,409,l),
(339,440,o),
(305,456,o),
(254,456,cs),
(139,456,o),
(52,360,o),
(52,232,cs),
(52,139,o),
(103,88,o),
(197,88,cs),
(236,88,o),
(268,99,o),
(296,121,c),
(288,82,ls),
(277,26,o),
(250,-4,o),
(171,-4,cs),
(141,-4,o),
(103,-4,o),
(66,4,c),
(49,-52,l),
(87,-62,o),
(127,-68,o),
(170,-68,cs)
);
},
{
closed = 1;
nodes = (
(152,152,o),
(127,176,o),
(127,232,cs),
(127,328,o),
(182,392,o),
(264,392,cs),
(298,392,o),
(326,382,o),
(341,353,c),
(311,201,l),
(282,165,o),
(247,152,o),
(210,152,cs)
);
}
);
width = 448;
},
{
anchors = (
{
name = "#center";
pos = (330,275);
},
{
name = bottom;
pos = (166,-64);
},
{
name = top;
pos = (269,448);
}
);
associatedMasterId = "EBAB10B0-9FDE-44C7-9B16-DD2313400F4E";
attr = {
coordinates = (
700,
-64,
1
);
};
background = {
shapes = (
{
closed = 1;
nodes = (
(185,456,o),
(141,433,o),
(109,401,cs),
(62,355,o),
(41,283,o),
(41,225,cs),
(41,181,o),
(54,146,o),
(78,122,cs),
(100,100,o),
(136,88,o),
(183,88,cs),
(257,88,o),
(318,133,o),
(368,260,c),
(325,280,l),
(298,207,o),
(252,174,o),
(209,174,cs),
(188,174,o),
(173,179,o),
(163,189,cs),
(155,197,o),
(151,208,o),
(151,224,cs),
(151,250,o),
(163,315,o),
(194,346,cs),
(208,360,o),
(229,370,o),
(255,370,cs),
(297,370,o),
(327,343,o),
(325,271,c),
(378,278,l),
(378,405,o),
(325,456,o),
(239,456,cs)
);
},
{
closed = 1;
nodes = (
(269,-68,o),
(346,-30,o),
(370,88,cs),
(429,384,l),
(444,448,l),
(355,448,l),
(321,356,l),
(311,356,l),
(257,83,ls),
(248,38,o),
(224,12,o),
(151,12,cs),
(126,12,o),
(84,16,o),
(46,22,c),
(26,-50,l),
(70,-60,o),
(124,-68,o),
(167,-68,cs)
);
}
);
};
hints = (
{
horizontal = 1;
origin = (0,4);
type = TTSnap;
},
{
horizontal = 1;
options = 4;
origin = (0,19);
target = (0,2);
type = TTStem;
},
{
options = 8;
origin = (0,3);
type = TTSnap;
},
{
options = 4;
origin = (0,3);
target = (0,5);
type = TTStem;
},
{
options = 4;
origin = (0,5);
target = (0,19);
type = TTShift;
},
{
horizontal = 1;
options = 4;
origin = (0,5);
target = (0,3);
type = TTStem;
},
{
horizontal = 1;
options = 4;
origin = (0,2);
type = TTStem;
},
{
horizontal = 1;
origin = (0,2);
stem = -1;
type = TTSnap;
},
{
options = 8;
origin = (0,25);
type = TTSnap;
},
{
options = 4;
origin = (0,25);
target = (0,29);
type = TTStem;
},
{
origin = (0,25);
target = (0,25);
type = TTShift;
},
{
options = 4;
origin = (0,5);
target = (0,5);
type = TTShift;
},
{
horizontal = 1;
options = 4;
origin = (0,9);
target = (1,5);
type = TTStem;
},
{
horizontal = 1;
options = 4;
origin = (0,15);
target = (1,12);
type = TTStem;
},
{
origin = (1,2);
type = TTSnap;
},
{
options = 4;
origin = (1,2);
target = (0,12);
type = TTStem;
}
);
layerId = "3ABFDEE6-3C27-45E9-BA6B-3C3D475E2DC7";
name = "5. Mar 25 at 12:33";
shapes = (
{
closed = 1;
nodes = (
(269,-68,o),
(346,-30,o),
(370,88,cs),
(429,384,l),
(444,448,l),
(355,448,l),
(342,413,l),
(318,443,o),
(283,456,o),
(239,456,cs),
(119,456,o),
(41,345,o),
(41,225,cs),
(41,138,o),
(88,88,o),
(183,88,cs),
(211,88,o),
(238,95,o),
(262,110,c),
(257,83,ls),
(248,38,o),
(224,12,o),
(151,12,cs),
(126,12,o),
(84,16,o),
(46,22,c),
(26,-50,l),
(70,-60,o),
(124,-68,o),
(167,-68,cs)
);
},
{
closed = 1;
nodes = (
(173,174,o),
(151,188,o),
(151,224,cs),
(151,282,o),
(178,370,o),
(255,370,cs),
(277,370,o),
(297,362,o),
(309,345,c),
(282,208,l),
(259,184,o),
(234,174,o),
(209,174,cs)
);
}
);
width = 448;
},
{
anchors = (
{
name = "#center";
pos = (330,275);
},
{
name = bottom;
pos = (166,-64);
},
{
name = top;
pos = (269,448);
}
);
associatedMasterId = "C21910D5-47BB-472B-A83D-89B2B42B8F2A";
attr = {
coordinates = (
200,
-64,
1
);
};
background = {
shapes = (
{
closed = 1;
nodes = (
(208,456,o),
(160,435,o),
(125,400,cs),
(84,359,o),
(60,299,o),
(60,231,cs),
(60,184,o),
(74,148,o),
(98,124,cs),
(121,101,o),
(155,88,o),
(196,88,cs),
(268,88,o),
(336,122,o),
(379,217,c),
(354,231,l),
(314,152,o),
(265,130,o),
(208,130,cs),
(175,130,o),
(151,139,o),
(136,154,cs),
(118,172,o),
(111,198,o),
(111,231,cs),
(111,290,o),
(130,341,o),
(163,374,cs),
(188,399,o),
(222,414,o),
(263,414,cs),
(316,414,o),
(354,390,o),
(371,313,c),
(394,316,l),
(382,422,o),
(329,456,o),
(265,456,cs)
);
},
{
closed = 1;
nodes = (
(268,-68,o),
(333,-25,o),
(353,77,cs),
(413,384,l),
(428,448,l),
(385,448,l),
(370,399,l),
(366,374,l),
(309,84,ls),
(294,7,o),
(256,-26,o),
(168,-26,cs),
(139,-26,o),
(104,-21,o),
(72,-14,c),
(63,-54,l),
(99,-64,o),
(130,-68,o),
(171,-68,cs)
);
}
);
};
hints = (
{
horizontal = 1;
options = 4;
place = (456,52);
type = TTStem;
},
{
horizontal = 1;
options = 4;
place = (88,52);
type = TTStem;
},
{
place = (108,0);
type = TTSnap;
},
{
options = 4;
place = (108,48);
type = TTStem;
}
);
layerId = "F55DA991-2234-48CA-B255-B9861A9FD4C8";
name = "5. Mar 25 at 12:36";
shapes = (
{
closed = 1;
nodes = (
(268,-68,o),
(333,-25,o),
(353,77,cs),
(413,384,l),
(428,448,l),
(385,448,l),
(370,399,l),
(346,441,o),
(308,456,o),
(265,456,cs),
(140,456,o),
(60,356,o),
(60,231,cs),
(60,140,o),
(113,88,o),
(196,88,cs),
(240,88,o),
(282,101,o),
(318,132,c),
(309,84,ls),
(294,7,o),
(256,-26,o),
(168,-26,cs),
(139,-26,o),
(104,-21,o),
(72,-14,c),
(63,-54,l),
(99,-64,o),
(130,-68,o),
(171,-68,cs)
);
},
{
closed = 1;
nodes = (
(141,130,o),
(111,164,o),
(111,231,cs),
(111,329,o),
(165,414,o),
(263,414,cs),
(307,414,o),
(341,397,o),
(361,347,c),
(330,192,l),
(295,144,o),
(254,130,o),
(208,130,cs)
);
}
);
width = 448;
}
);
unicode = 103;
}
{
glyphname = l;
layers = (
{
anchors = (
{
name = "#center";
pos = (224,351);
},
{
name = "#slash";
pos = (238,384);
},
{
name = bottom;
pos = (193,0);
},
{
name = top;
pos = (269,640);
}
);
layerId = "C21910D5-47BB-472B-A83D-89B2B42B8F2A";
shapes = (
{
closed = 1;
nodes = (
(162,599,l),
(236,596,l),
(141,117,ls),
(124,29,o),
(169,-4,o),
(234,-4,cs),
(254,-4,o),
(272,-2,o),
(294,2,c),
(295,43,l),
(277,41,o),
(256,39,o),
(241,39,cs),
(193,39,o),
(178,62,o),
(188,112,cs),
(293,640,l),
(170,640,l)
);
}
);
width = 448;
},
{
anchors = (
{
name = "#center";
pos = (224,351);
},
{
name = "#slash";
pos = (238,384);
},
{
name = bottom;
pos = (193,0);
},
{
name = top;
pos = (269,640);
}
);
layerId = "BA106321-29DE-4FD0-898D-B7B08A4D4215";
shapes = (
{
closed = 1;
nodes = (
(148,581,l),
(222,576,l),
(133,127,ls),
(114,31,o),
(168,-4,o),
(243,-4,cs),
(262,-4,o),
(280,-3,o),
(304,0,c),
(306,63,l),
(286,61,o),
(266,60,o),
(249,60,cs),
(206,60,o),
(195,80,o),
(202,116,cs),
(307,640,l),
(160,640,l)
);
}
);
width = 448;
},
{
anchors = (
{
name = "#center";
pos = (224,351);
},
{
name = "#slash";
pos = (238,384);
},
{
name = bottom;
pos = (193,0);
},
{
name = top;
pos = (269,640);
}
);
layerId = "EBAB10B0-9FDE-44C7-9B16-DD2313400F4E";
shapes = (
{
closed = 1;
nodes = (
(130,567,l),
(203,560,l),
(120,143,ls),
(98,34,o),
(165,-4,o),
(259,-4,cs),
(279,-4,o),
(300,-4,o),
(328,0,c),
(331,79,l),
(311,77,o),
(292,76,o),
(275,76,cs),
(232,76,o),
(223,96,o),
(230,133,cs),
(331,640,l),
(144,640,l)
);
}
);
width = 448;
}
);
unicode = 108;
}
{
glyphname = m;
layers = (
{
anchors = (
{
name = bottom;
pos = (179,0);
},
{
name = top;
pos = (269,448);
}
);
background = {
anchors = (
{
name = bottom;
pos = (179,0);
},
{
name = top;
pos = (269,448);
}
);
shapes = (
{
closed = 1;
nodes = (
(49,0,l),
(126,382,l),
(123,382,l),
(133,448,l),
(89,448,l),
(75,370,l),
(1,0,l)
);
},
{
closed = 1;
nodes = (
(203,0,l),
(273,350,ls),
(282,393,o),
(270,450,o),
(205,450,cs),
(168,450,o),
(137,431,o),
(103,398,c),
(120,373,l),
(143,394,o),
(168,406,o),
(195,406,cs),
(227,406,o),
(232,385,o),
(225,350,cs),
(155,0,l)
);
},
{
closed = 1;
nodes = (
(357,0,l),
(427,350,ls),
(440,414,o),
(414,450,o),
(357,450,cs),
(320,450,o),
(289,434,o),
(255,403,c),
(273,373,l),
(297,394,o),
(322,406,o),
(349,406,cs),
(381,406,o),
(386,385,o),
(379,350,cs),
(309,0,l)
);
}
);
};
layerId = "C21910D5-47BB-472B-A83D-89B2B42B8F2A";
shapes = (
{
closed = 1;
nodes = (
(49,0,l),
(125,377,l),
(146,395,o),
(170,406,o),
(195,406,cs),
(227,406,o),
(232,385,o),
(225,350,cs),
(155,0,l),
(203,0,l),
(273,350,ls),
(275,359,o),
(276,367,o),
(276,375,c),
(298,394,o),
(323,406,o),
(349,406,cs),
(381,406,o),
(386,385,o),
(379,350,cs),
(309,0,l),
(357,0,l),
(427,350,ls),
(440,414,o),
(414,450,o),
(357,450,cs),
(325,450,o),
(296,437,o),
(268,414,c),
(258,435,o),
(239,450,o),
(205,450,cs),
(178,450,o),
(154,440,o),
(129,421,c),
(133,448,l),
(89,448,l),
(75,370,l),
(1,0,l)
);
}
);
width = 448;
},
{
anchors = (
{
name = bottom;
pos = (179,0);
},
{
name = top;
pos = (269,448);
}
);
background = {
anchors = (
{
name = bottom;
pos = (179,0);
},
{
name = top;
pos = (269,448);
}
);
shapes = (
{
closed = 1;
nodes = (
(59,0,l),
(136,384,l),
(134,384,l),
(141,448,l),
(83,448,l),
(72,384,l),
(-5,0,l)
);
},
{
closed = 1;
nodes = (
(211,0,l),
(278,332,ls),
(290,393,o),
(266,451,o),
(205,451,cs),
(169,451,o),
(140,431,o),
(125,409,c),
(132,366,l),
(144,376,o),
(170,387,o),
(189,387,cs),
(219,387,o),
(221,369,o),
(214,335,cs),
(147,0,l)
);
},
{
closed = 1;
nodes = (
(363,0,l),
(430,332,ls),
(446,413,o),
(409,450,o),
(349,450,cs),
(322,450,o),
(289,439,o),
(262,414,c),
(275,360,l),
(292,374,o),
(317,386,o),
(341,386,cs),
(369,386,o),
(373,369,o),
(366,334,cs),
(299,0,l)
);
}
);
};
layerId = "BA106321-29DE-4FD0-898D-B7B08A4D4215";
shapes = (
{
closed = 1;
nodes = (
(59,0,l),
(132,366,l),
(144,376,o),
(170,387,o),
(189,387,cs),
(219,387,o),
(221,369,o),
(214,335,cs),
(147,0,l),
(211,0,l),
(278,332,ls),
(280,342,o),
(281,355,o),
(281,365,c),
(298,377,o),
(320,386,o),
(341,386,cs),
(369,386,o),
(373,369,o),
(366,334,cs),
(299,0,l),
(363,0,l),
(430,332,ls),
(446,413,o),
(409,450,o),
(349,450,cs),
(324,450,o),
(293,440,o),
(267,418,c),
(254,439,o),
(234,451,o),
(205,451,cs),
(178,451,o),
(155,440,o),
(138,425,c),
(141,448,l),
(83,448,l),
(72,384,l),
(-5,0,l)
);
}
);
width = 448;
},
{
anchors = (
{
name = bottom;
pos = (179,0);
},
{
name = top;
pos = (269,448);
}
);
background = {
anchors = (
{
name = bottom;
pos = (179,0);
},
{
name = top;
pos = (269,448);
}
);
shapes = (
{
closed = 1;
nodes = (
(77,0,l),
(154,384,l),
(149,384,l),
(153,448,l),
(71,448,l),
(60,383,l),
(-17,0,l)
);
},
{
closed = 1;
nodes = (
(221,0,l),
(287,331,ls),
(300,395,o),
(278,451,o),
(216,451,cs),
(180,451,o),
(153,432,o),
(139,410,c),
(142,346,l),
(154,360,o),
(173,371,o),
(189,371,cs),
(208,371,o),
(209,358,o),
(202,324,cs),
(137,0,l)
);
},
{
closed = 1;
nodes = (
(375,0,l),
(441,331,ls),
(458,412,o),
(415,450,o),
(357,450,cs),
(323,450,o),
(293,440,o),
(268,415,c),
(285,346,l),
(298,360,o),
(318,370,o),
(332,370,cs),
(350,370,o),
(353,358,o),
(346,324,cs),
(281,0,l)
);
}
);
};
layerId = "EBAB10B0-9FDE-44C7-9B16-DD2313400F4E";
shapes = (
{
closed = 1;
nodes = (
(77,0,l),
(148,352,l),
(160,363,o),
(175,371,o),
(189,371,cs),
(208,371,o),
(209,358,o),
(202,324,cs),
(137,0,l),
(221,0,l),
(287,331,ls),
(288,337,o),
(289,344,o),
(290,351,c),
(302,362,o),
(320,370,o),
(332,370,cs),
(350,370,o),
(353,358,o),
(346,324,cs),
(281,0,l),
(375,0,l),
(441,331,ls),
(458,412,o),
(415,450,o),
(357,450,cs),
(326,450,o),
(299,442,o),
(275,422,c),
(263,440,o),
(244,451,o),
(216,451,cs),
(189,451,o),
(167,440,o),
(152,425,c),
(153,448,l),
(71,448,l),
(60,383,l),
(-17,0,l)
);
}
);
width = 448;
}
);
unicode = 109;
}
{
glyphname = n;
kernLeft = n;
kernRight = n;
layers = (
{
anchors = (
{
name = bottom;
pos = (179,0);
},
{
name = origin.hook;
pos = (289,0);
},
{
name = origin.hook.left;
pos = (21,0);
},
{
name = top;
pos = (269,448);
}
);
background = {
anchors = (
{
name = bottom;
pos = (179,0);
},
{
name = origin.hook;
pos = (289,0);
},
{
name = origin.hook.left;
pos = (21,0);
},
{
name = top;
pos = (269,448);
}
);
shapes = (
{
closed = 1;
nodes = (
(69,0,l),
(143,370,l),
(142,370,l),
(152,448,l),
(109,448,l),
(95,370,l),
(21,0,l)
);
},
{
closed = 1;
nodes = (
(337,0,l),
(398,307,ls),
(420,420,o),
(367,452,o),
(303,452,cs),
(232,452,o),
(153,396,o),
(106,347,c),
(125,327,l),
(181,372,o),
(235,408,o),
(292,408,cs),
(349,408,o),
(365,381,o),
(350,307,cs),
(289,0,l)
);
}
);
};
layerId = "C21910D5-47BB-472B-A83D-89B2B42B8F2A";
shapes = (
{
closed = 1;
nodes = (
(69,0,l),
(136,336,l),
(188,377,o),
(239,408,o),
(292,408,cs),
(349,408,o),
(365,381,o),
(350,307,cs),
(289,0,l),
(337,0,l),
(398,307,ls),
(420,420,o),
(367,452,o),
(303,452,cs),
(249,452,o),
(190,420,o),
(143,382,c),
(152,448,l),
(109,448,l),
(95,370,l),
(21,0,l)
);
}
);
width = 448;
},
{
anchors = (
{
name = bottom;
pos = (179,0);
},
{
name = origin.hook;
pos = (271,0);
},
{
name = origin.hook.left;
pos = (15,0);
},
{
name = top;
pos = (269,448);
}
);
background = {
anchors = (
{
name = bottom;
pos = (179,0);
},
{
name = origin.hook;
pos = (271,0);
},
{
name = origin.hook.left;
pos = (15,0);
},
{
name = top;
pos = (269,448);
}
);
shapes = (
{
closed = 1;
nodes = (
(87,0,l),
(164,384,l),
(162,384,l),
(168,448,l),
(103,448,l),
(92,384,l),
(15,0,l)
);
},
{
closed = 1;
nodes = (
(343,0,l),
(403,300,ls),
(424,406,o),
(375,452,o),
(299,452,cs),
(229,452,o),
(160,400,o),
(107,344,c),
(137,312,l),
(179,352,o),
(233,388,o),
(283,388,cs),
(327,388,o),
(343,361,o),
(332,304,cs),
(271,0,l)
);
}
);
};
layerId = "BA106321-29DE-4FD0-898D-B7B08A4D4215";
shapes = (
{
closed = 1;
nodes = (
(87,0,l),
(152,326,l),
(192,361,o),
(239,388,o),
(283,388,cs),
(327,388,o),
(343,361,o),
(332,304,cs),
(271,0,l),
(343,0,l),
(403,300,ls),
(424,406,o),
(375,452,o),
(299,452,cs),
(252,452,o),
(204,428,o),
(163,396,c),
(168,448,l),
(103,448,l),
(92,384,l),
(15,0,l)
);
}
);
width = 448;
},
{
anchors = (
{
name = bottom;
pos = (179,0);
},
{
name = origin.hook;
pos = (241,0);
},
{
name = origin.hook.left;
pos = (5,0);
},
{
name = top;
pos = (269,448);
}
);
background = {
anchors = (
{
name = bottom;
pos = (179,0);
},
{
name = origin.hook;
pos = (241,0);
},
{
name = origin.hook.left;
pos = (5,0);
},
{
name = top;
pos = (269,448);
}
);
shapes = (
{
closed = 1;
nodes = (
(117,0,l),
(194,384,l),
(188,384,l),
(193,448,l),
(93,448,l),
(82,384,l),
(5,0,l)
);
},
{
closed = 1;
nodes = (
(353,0,l),
(415,310,ls),
(434,406,o),
(390,452,o),
(311,452,cs),
(234,452,o),
(167,399,o),
(100,337,c),
(140,288,l),
(180,332,o),
(232,368,o),
(269,368,cs),
(302,368,o),
(311,351,o),
(303,310,cs),
(241,0,l)
);
}
);
};
layerId = "EBAB10B0-9FDE-44C7-9B16-DD2313400F4E";
shapes = (
{
closed = 1;
nodes = (
(117,0,l),
(183,328,l),
(212,351,o),
(244,368,o),
(269,368,cs),
(302,368,o),
(311,351,o),
(303,310,cs),
(241,0,l),
(353,0,l),
(415,310,ls),
(434,406,o),
(390,452,o),
(311,452,cs),
(268,452,o),
(228,435,o),
(190,410,c),
(193,448,l),
(93,448,l),
(82,384,l),
(5,0,l)
);
}
);
width = 448;
}
);
unicode = 110;
}
{
color = 7;
glyphname = p;
kernLeft = p;
kernRight = o;
layers = (
{
anchors = (
{
name = bottom;
pos = (199,0);
},
{
name = top;
pos = (269,448);
}
);
layerId = "C21910D5-47BB-472B-A83D-89B2B42B8F2A";
shapes = (
{
closed = 1;
nodes = (
(31,-192,l),
(144,374,l),
(149,399,l),
(154,448,l),
(109,448,l),
(98,385,l),
(-17,-192,l)
);
},
{
ref = _part.bowl.descender;
}
);
width = 448;
},
{
anchors = (
{
name = bottom;
pos = (199,0);
},
{
name = top;
pos = (269,448);
}
);
layerId = "BA106321-29DE-4FD0-898D-B7B08A4D4215";
shapes = (
{
closed = 1;
nodes = (
(49,-192,l),
(160,367,l),
(159,383,l),
(163,448,l),
(103,448,l),
(92,384,l),
(-23,-192,l)
);
},
{
ref = _part.bowl.descender;
}
);
width = 448;
},
{
anchors = (
{
name = bottom;
pos = (219,0);
},
{
name = top;
pos = (269,448);
}
);
layerId = "EBAB10B0-9FDE-44C7-9B16-DD2313400F4E";
shapes = (
{
closed = 1;
nodes = (
(79,-192,l),
(188,356,l),
(178,356,l),
(180,448,l),
(93,448,l),
(82,383,l),
(-33,-192,l)
);
},
{
ref = _part.bowl.descender;
}
);
width = 448;
},
{
anchors = (
{
name = bottom;
pos = (218,96);
},
{
name = top;
pos = (269,448);
}
);
associatedMasterId = "BA106321-29DE-4FD0-898D-B7B08A4D4215";
attr = {
coordinates = (
400,
-64,
1
);
};
layerId = "B9D0F280-5D5C-4550-8918-05BED0A10BE9";
name = "{400, 1, -64}";
shapes = (
{
closed = 1;
nodes = (
(74,-64,l),
(160,367,l),
(159,383,l),
(163,448,l),
(103,448,l),
(92,384,l),
(2,-64,l)
);
},
{
ref = _part.bowl.descender;
}
);
width = 448;
}
);
unicode = 112;
}
{
glyphname = s;
layers = (
{
anchors = (
{
name = bottom;
pos = (179,0);
},
{
name = top;
pos = (269,448);
},
{
name = topright;
pos = (493,448);
}
);
layerId = "C21910D5-47BB-472B-A83D-89B2B42B8F2A";
shapes = (
{
closed = 1;
nodes = (
(267,-8,o),
(345,46,o),
(345,126,cs),
(345,255,o),
(154,231,o),
(154,329,cs),
(154,366,o),
(183,412,o),
(279,412,cs),
(307,412,o),
(342,409,o),
(379,401,c),
(392,442,l),
(355,452,o),
(316,456,o),
(282,456,cs),
(168,456,o),
(106,394,o),
(106,320,cs),
(106,199,o),
(296,212,o),
(296,120,cs),
(296,80,o),
(258,36,o),
(170,36,cs),
(132,36,o),
(82,44,o),
(45,53,c),
(31,15,l),
(70,2,o),
(115,-8,o),
(168,-8,cs)
);
}
);
width = 448;
},
{
anchors = (
{
name = bottom;
pos = (179,0);
},
{
name = top;
pos = (269,448);
},
{
name = topright;
pos = (493,448);
}
);
layerId = "BA106321-29DE-4FD0-898D-B7B08A4D4215";
shapes = (
{
closed = 1;
nodes = (
(276,-8,o),
(362,45,o),
(362,142,cs),
(362,267,o),
(163,240,o),
(163,318,cs),
(163,366,o),
(211,392,o),
(281,392,cs),
(303,392,o),
(345,390,o),
(384,379,c),
(405,438,l),
(363,450,o),
(319,456,o),
(279,456,cs),
(163,456,o),
(88,394,o),
(88,308,cs),
(88,182,o),
(287,203,o),
(287,127,cs),
(287,80,o),
(239,56,o),
(170,56,cs),
(126,56,o),
(79,65,o),
(44,76,c),
(21,19,l),
(61,4,o),
(112,-8,o),
(171,-8,cs)
);
}
);
width = 448;
},
{
anchors = (
{
name = bottom;
pos = (179,0);
},
{
name = top;
pos = (269,448);
},
{
name = topright;
pos = (493,448);
}
);
layerId = "EBAB10B0-9FDE-44C7-9B16-DD2313400F4E";
shapes = (
{
closed = 1;
nodes = (
(290,-8,o),
(375,48,o),
(375,160,cs),
(375,291,o),
(185,251,o),
(185,314,cs),
(185,345,o),
(216,374,o),
(280,374,cs),
(316,374,o),
(356,367,o),
(387,358,c),
(413,433,l),
(369,448,o),
(322,456,o),
(277,456,cs),
(161,456,o),
(76,398,o),
(76,291,cs),
(76,163,o),
(265,195,o),
(265,133,cs),
(265,95,o),
(223,74,o),
(164,74,cs),
(119,74,o),
(76,83,o),
(44,94,c),
(16,27,l),
(56,7,o),
(112,-8,o),
(171,-8,cs)
);
}
);
width = 448;
}
);
unicode = 115;
}
{
glyphname = u;
kernLeft = u;
kernRight = u;
layers = (
{
anchors = (
{
name = bottom;
pos = (179.2,0);
},
{
name = bottomAttach;
pos = (339,0);
},
{
name = top;
pos = (268.8,448);
},
{
name = topright;
pos = (366,448);
}
);
background = {
anchors = (
{
name = bottom;
pos = (179.2,0);
},
{
name = bottomAttach;
pos = (339,0);
},
{
name = top;
pos = (268.8,448);
},
{
name = topright;
pos = (366,448);
}
);
shapes = (
{
closed = 1;
nodes = (
(216,-4,o),
(295,52,o),
(342,101,c),
(323,121,l),
(267,76,o),
(213,40,o),
(156,40,cs),
(99,40,o),
(83,67,o),
(98,141,cs),
(159,448,l),
(111,448,l),
(50,141,ls),
(28,28,o),
(81,-4,o),
(145,-4,cs)
);
},
{
closed = 1;
nodes = (
(339,0,l),
(353,78,l),
(427,448,l),
(379,448,l),
(305,78,l),
(306,78,l),
(296,0,l)
);
}
);
};
layerId = "C21910D5-47BB-472B-A83D-89B2B42B8F2A";
shapes = (
{
closed = 1;
nodes = (
(199,-4,o),
(258,28,o),
(305,66,c),
(296,0,l),
(339,0,l),
(353,78,l),
(427,448,l),
(379,448,l),
(312,112,l),
(260,71,o),
(209,40,o),
(156,40,cs),
(99,40,o),
(83,67,o),
(98,141,cs),
(159,448,l),
(111,448,l),
(50,141,ls),
(28,28,o),
(81,-4,o),
(145,-4,cs)
);
}
);
width = 448;
},
{
anchors = (
{
name = bottom;
pos = (179.2,0);
},
{
name = bottomAttach;
pos = (345,0);
},
{
name = top;
pos = (268.8,448);
},
{
name = topright;
pos = (365,448);
}
);
background = {
anchors = (
{
name = bottom;
pos = (179.2,0);
},
{
name = bottomAttach;
pos = (345,0);
},
{
name = top;
pos = (268.8,448);
},
{
name = topright;
pos = (365,448);
}
);
shapes = (
{
closed = 1;
nodes = (
(219,-4,o),
(288,48,o),
(341,104,c),
(311,136,l),
(269,96,o),
(215,60,o),
(165,60,cs),
(121,60,o),
(105,87,o),
(116,144,cs),
(177,448,l),
(105,448,l),
(45,148,ls),
(24,42,o),
(73,-4,o),
(149,-4,cs)
);
},
{
closed = 1;
nodes = (
(345,0,l),
(356,64,l),
(433,448,l),
(361,448,l),
(284,64,l),
(286,64,l),
(280,0,l)
);
}
);
};
layerId = "BA106321-29DE-4FD0-898D-B7B08A4D4215";
shapes = (
{
closed = 1;
nodes = (
(196,-4,o),
(244,20,o),
(285,52,c),
(280,0,l),
(345,0,l),
(356,64,l),
(433,448,l),
(361,448,l),
(296,122,l),
(256,87,o),
(209,60,o),
(165,60,cs),
(121,60,o),
(105,87,o),
(116,144,cs),
(177,448,l),
(105,448,l),
(45,148,ls),
(24,42,o),
(73,-4,o),
(149,-4,cs)
);
}
);
width = 448;
},
{
anchors = (
{
name = bottom;
pos = (179.2,0);
},
{
name = bottomAttach;
pos = (355,0);
},
{
name = top;
pos = (268.8,448);
},
{
name = topright;
pos = (365,448);
}
);
background = {
anchors = (
{
name = bottom;
pos = (179.2,0);
},
{
name = bottomAttach;
pos = (355,0);
},
{
name = top;
pos = (268.8,448);
},
{
name = topright;
pos = (365,448);
}
);
shapes = (
{
closed = 1;
nodes = (
(214,-4,o),
(281,49,o),
(348,111,c),
(308,160,l),
(268,116,o),
(216,80,o),
(179,80,cs),
(146,80,o),
(137,97,o),
(145,138,cs),
(207,448,l),
(95,448,l),
(33,138,ls),
(14,42,o),
(58,-4,o),
(137,-4,cs)
);
},
{
closed = 1;
nodes = (
(355,0,l),
(366,64,l),
(443,448,l),
(331,448,l),
(254,64,l),
(260,64,l),
(255,0,l)
);
}
);
};
layerId = "EBAB10B0-9FDE-44C7-9B16-DD2313400F4E";
shapes = (
{
closed = 1;
nodes = (
(180,-4,o),
(220,13,o),
(258,38,c),
(255,0,l),
(355,0,l),
(366,64,l),
(443,448,l),
(331,448,l),
(265,120,l),
(236,97,o),
(204,80,o),
(179,80,cs),
(146,80,o),
(137,97,o),
(145,138,cs),
(207,448,l),
(95,448,l),
(33,138,ls),
(14,42,o),
(58,-4,o),
(137,-4,cs)
);
}
);
width = 448;
}
);
unicode = 117;
}
{
color = 9;
glyphname = w;
layers = (
{
anchors = (
{
name = bottom;
pos = (179,0);
},
{
name = top;
pos = (269,448);
}
);
background = {
anchors = (
{
name = bottom;
pos = (179,0);
},
{
name = top;
pos = (269,448);
}
);
shapes = (
{
closed = 1;
nodes = (
(143,-8,o),
(195,31,o),
(210,127,cs),
(229,228,l),
(211,228,l),
(194,127,ls),
(178,30,o),
(216,-8,o),
(263,-8,cs),
(350,-8,o),
(442,100,o),
(441,367,cs),
(441,390,o),
(440,418,o),
(438,448,c),
(367,448,l),
(369,415,o),
(370,381,o),
(370,349,cs),
(370,137,o),
(313,56,o),
(271,56,cs),
(240,56,o),
(229,74,o),
(241,137,cs),
(279,320,l),
(208,320,l),
(174,143,ls),
(162,85,o),
(137,56,o),
(107,56,cs),
(80,56,o),
(66,77,o),
(80,137,cs),
(153,448,l),
(82,448,l),
(14,149,ls),
(-11,39,o),
(25,-8,o),
(88,-8,cs)
);
}
);
};
layerId = "BA106321-29DE-4FD0-898D-B7B08A4D4215";
shapes = (
{
closed = 1;
nodes = (
(129,-8,o),
(168,13,o),
(192,64,c),
(198,14,o),
(228,-8,o),
(263,-8,cs),
(350,-8,o),
(441,98,o),
(441,367,cs),
(441,390,o),
(440,418,o),
(438,448,c),
(367,448,l),
(369,415,o),
(370,381,o),
(370,349,cs),
(370,137,o),
(313,56,o),
(271,56,cs),
(240,56,o),
(228,74,o),
(241,137,cs),
(279,320,l),
(208,320,l),
(174,143,ls),
(163,85,o),
(137,56,o),
(107,56,cs),
(80,56,o),
(66,77,o),
(80,137,cs),
(153,448,l),
(82,448,l),
(14,149,ls),
(-11,39,o),
(25,-8,o),
(88,-8,cs)
);
}
);
width = 448;
},
{
anchors = (
{
name = bottom;
pos = (179,0);
},
{
name = top;
pos = (269,448);
}
);
background = {
anchors = (
{
name = bottom;
pos = (179,0);
},
{
name = top;
pos = (269,448);
}
);
shapes = (
{
closed = 1;
nodes = (
(138,-8,o),
(197,19,o),
(219,127,cs),
(241,228,l),
(213,228,l),
(195,127,ls),
(176,24,o),
(216,-8,o),
(260,-8,cs),
(365,-8,o),
(454,96,o),
(454,369,cs),
(454,390,o),
(454,418,o),
(452,448,c),
(342,448,l),
(344,415,o),
(345,381,o),
(345,347,cs),
(345,146,o),
(298,76,o),
(270,76,cs),
(248,76,o),
(250,95,o),
(258,133,cs),
(295,320,l),
(192,320,l),
(156,133,ls),
(148,94,o),
(130,76,o),
(114,76,cs),
(99,76,o),
(91,87,o),
(103,134,cs),
(178,448,l),
(67,448,l),
(-1,150,ls),
(-25,43,o),
(13,-8,o),
(88,-8,cs)
);
}
);
};
layerId = "EBAB10B0-9FDE-44C7-9B16-DD2313400F4E";
shapes = (
{
closed = 1;
nodes = (
(124,-8,o),
(164,6,o),
(192,53,c),
(200,7,o),
(229,-8,o),
(260,-8,cs),
(365,-8,o),
(454,96,o),
(454,369,cs),
(454,390,o),
(454,418,o),
(452,448,c),
(342,448,l),
(344,415,o),
(345,381,o),
(345,347,cs),
(345,146,o),
(298,76,o),
(270,76,cs),
(248,76,o),
(250,95,o),
(258,133,cs),
(295,320,l),
(192,320,l),
(156,133,ls),
(148,94,o),
(130,76,o),
(114,76,cs),
(99,76,o),
(92,87,o),
(103,134,cs),
(178,448,l),
(67,448,l),
(-1,150,ls),
(-25,43,o),
(13,-8,o),
(88,-8,cs)
);
}
);
width = 448;
},
{
anchors = (
{
name = bottom;
pos = (179,0);
},
{
name = top;
pos = (269,448);
}
);
background = {
anchors = (
{
name = bottom;
pos = (179,0);
},
{
name = top;
pos = (269,448);
}
);
shapes = (
{
closed = 1;
nodes = (
(146,-8,o),
(194,38,o),
(207,127,cs),
(223,228,l),
(209,228,l),
(194,127,ls),
(181,34,o),
(217,-8,o),
(265,-8,cs),
(349,-8,o),
(434,103,o),
(435,366,cs),
(435,390,o),
(434,418,o),
(432,448,c),
(383,448,l),
(385,415,o),
(387,381,o),
(386,350,cs),
(386,125,o),
(322,34,o),
(266,34,cs),
(234,34,o),
(213,56,o),
(230,139,cs),
(267,320,l),
(220,320,l),
(186,149,ls),
(171,74,o),
(139,34,o),
(99,34,cs),
(66,34,o),
(47,60,o),
(66,139,cs),
(138,448,l),
(91,448,l),
(22,148,ls),
(-6,28,o),
(40,-8,o),
(90,-8,cs)
);
}
);
};
layerId = "C21910D5-47BB-472B-A83D-89B2B42B8F2A";
shapes = (
{
closed = 1;
nodes = (
(133,-8,o),
(171,20,o),
(192,71,c),
(198,16,o),
(228,-8,o),
(265,-8,cs),
(349,-8,o),
(435,106,o),
(435,366,cs),
(435,390,o),
(434,418,o),
(432,448,c),
(383,448,l),
(385,415,o),
(386,381,o),
(386,350,cs),
(386,127,o),
(322,34,o),
(266,34,cs),
(234,34,o),
(213,56,o),
(230,139,cs),
(267,320,l),
(220,320,l),
(186,149,ls),
(171,74,o),
(139,34,o),
(99,34,cs),
(66,34,o),
(48,60,o),
(66,139,cs),
(138,448,l),
(91,448,l),
(22,148,ls),
(-6,28,o),
(40,-8,o),
(90,-8,cs)
);
}
);
width = 448;
}
);
unicode = 119;
}
{
glyphname = x;
kernLeft = x;
kernRight = k;
layers = (
{
anchors = (
{
name = bottom;
pos = (179,0);
},
{
name = top;
pos = (269,448);
}
);
background = {
shapes = (
{
closed = 1;
nodes = (
(66,0,l),
(93,92,o),
(140,158,o),
(224,204,cs),
(250,218,ls),
(341,267,o),
(394,332,o),
(426,448,c),
(376,448,l),
(345,340,o),
(310,294,o),
(225,245,cs),
(193,227,ls),
(105,177,o),
(48,114,o),
(16,0,c)
);
},
{
closed = 1;
nodes = (
(341,0,l),
(354,112,o),
(319,173,o),
(252,228,cs),
(230,246,ls),
(167,296,o),
(147,338,o),
(160,448,c),
(113,448,l),
(99,331,o),
(134,267,o),
(193,222,cs),
(216,205,ls),
(288,151,o),
(304,90,o),
(294,0,c)
);
}
);
};
layerId = "C21910D5-47BB-472B-A83D-89B2B42B8F2A";
shapes = (
{
closed = 1;
nodes = (
(66,0,l),
(93,91,o),
(138,156,o),
(220,202,c),
(288,149,o),
(304,89,o),
(294,0,c),
(341,0,l),
(354,109,o),
(321,169,o),
(258,223,c),
(345,272,o),
(395,336,o),
(426,448,c),
(376,448,l),
(345,341,o),
(311,295,o),
(229,247,c),
(166,297,o),
(147,338,o),
(160,448,c),
(113,448,l),
(99,333,o),
(132,270,o),
(189,225,c),
(104,176,o),
(48,113,o),
(16,0,c)
);
}
);
width = 448;
},
{
anchors = (
{
name = bottom;
pos = (179,0);
},
{
name = top;
pos = (269,448);
}
);
background = {
shapes = (
{
closed = 1;
nodes = (
(84,0,l),
(109,90,o),
(152,147,o),
(225,195,c),
(254,213,l),
(346,257,o),
(400,331,o),
(431,448,c),
(358,448,l),
(328,339,o),
(291,295,o),
(221,252,c),
(182,229,l),
(95,180,o),
(40,113,o),
(11,0,c)
);
},
{
closed = 1;
nodes = (
(346,0,l),
(363,115,o),
(331,184,o),
(265,233,cs),
(234,256,ls),
(180,299,o),
(165,340,o),
(178,448,c),
(107,448,l),
(90,329,o),
(118,253,o),
(193,207,c),
(214,191,l),
(269,143,o),
(286,88,o),
(276,0,c)
);
}
);
};
layerId = "BA106321-29DE-4FD0-898D-B7B08A4D4215";
shapes = (
{
closed = 1;
nodes = (
(84,0,l),
(108,86,o),
(148,142,o),
(216,189,c),
(270,141,o),
(286,88,o),
(276,0,c),
(346,0,l),
(362,108,o),
(334,176,o),
(276,224,c),
(355,269,o),
(403,341,o),
(431,448,c),
(358,448,l),
(330,345,o),
(294,299,o),
(231,258,c),
(180,300,o),
(165,341,o),
(178,448,c),
(107,448,l),
(92,342,o),
(112,270,o),
(171,223,c),
(91,175,o),
(39,109,o),
(11,0,c)
);
}
);
width = 448;
},
{
anchors = (
{
name = bottom;
pos = (179,0);
},
{
name = top;
pos = (269,448);
}
);
background = {
anchors = (
{
name = bottom;
pos = (179,0);
},
{
name = top;
pos = (269,448);
}
);
shapes = (
{
closed = 1;
nodes = (
(114,0,l),
(137,85,o),
(179,140,o),
(246,186,c),
(274,204,l),
(359,250,o),
(410,326,o),
(441,448,c),
(328,448,l),
(300,345,o),
(266,302,o),
(200,261,c),
(162,238,l),
(81,187,o),
(30,117,o),
(1,0,c)
);
},
{
closed = 1;
nodes = (
(356,0,l),
(373,113,o),
(345,183,o),
(284,232,cs),
(256,255,ls),
(208,298,o),
(195,339,o),
(209,448,c),
(97,448,l),
(80,330,o),
(105,254,o),
(174,208,c),
(194,192,l),
(242,144,o),
(257,89,o),
(245,0,c)
);
}
);
};
layerId = "EBAB10B0-9FDE-44C7-9B16-DD2313400F4E";
shapes = (
{
closed = 1;
nodes = (
(114,0,l),
(133,76,o),
(164,128,o),
(212,171,c),
(246,127,o),
(254,76,o),
(245,0,c),
(356,0,l),
(372,107,o),
(348,176,o),
(292,225,c),
(368,272,o),
(413,341,o),
(441,448,c),
(328,448,l),
(305,358,o),
(278,313,o),
(236,276,c),
(204,312,o),
(197,356,o),
(209,448,c),
(97,448,l),
(82,342,o),
(100,269,o),
(156,222,c),
(78,174,o),
(28,106,o),
(1,0,c)
);
}
);
width = 448;
}
);
unicode = 120;
}
{
glyphname = y;
kernLeft = y;
kernRight = y;
layers = (
{
anchors = (
{
name = bottom;
pos = (371,0);
},
{
name = origin1;
pos = (380,448);
},
{
name = top;
pos = (269,448);
}
);
background = {
anchors = (
{
name = bottom;
pos = (371,0);
},
{
name = origin1;
pos = (380,448);
},
{
name = top;
pos = (269,448);
}
);
shapes = (
{
closed = 1;
nodes = (
(190,-170,o),
(274,-106,o),
(326,30,cs),
(356,108,o),
(379,202,o),
(428,448,c),
(380,448,l),
(340,248,o),
(314,136,o),
(279,42,cs),
(244,-52,o),
(199,-124,o),
(29,-158,c),
(36,-199,l)
);
},
{
closed = 1;
nodes = (
(303,53,l),
(126,74,o),
(104,125,o),
(129,448,c),
(83,448,l),
(56,159,o),
(60,34,o),
(287,12,c)
);
}
);
};
layerId = "C21910D5-47BB-472B-A83D-89B2B42B8F2A";
shapes = (
{
closed = 1;
nodes = (
(190,-170,o),
(274,-106,o),
(326,30,cs),
(356,108,o),
(379,202,o),
(428,448,c),
(380,448,l),
(342,258,o),
(317,148,o),
(284,55,c),
(124,78,o),
(105,138,o),
(129,448,c),
(83,448,l),
(57,168,o),
(61,41,o),
(268,14,c),
(234,-66,o),
(183,-127,o),
(29,-158,c),
(36,-199,l)
);
}
);
width = 448;
},
{
anchors = (
{
name = bottom;
pos = (371,0);
},
{
name = origin1;
pos = (363,448);
},
{
name = top;
pos = (269,448);
}
);
background = {
anchors = (
{
name = bottom;
pos = (371,0);
},
{
name = origin1;
pos = (363,448);
},
{
name = top;
pos = (269,448);
}
);
shapes = (
{
closed = 1;
nodes = (
(190,-172,o),
(277,-107,o),
(331,28,cs),
(363,107,o),
(390,201,o),
(435,448,c),
(363,448,l),
(327,251,o),
(299,143,o),
(264,51,cs),
(228,-43,o),
(182,-108,o),
(22,-136,c),
(30,-199,l)
);
},
{
closed = 1;
nodes = (
(299,68,l),
(135,92,o),
(119,132,o),
(147,448,c),
(78,448,l),
(51,153,o),
(53,28,o),
(280,6,c)
);
}
);
};
layerId = "BA106321-29DE-4FD0-898D-B7B08A4D4215";
shapes = (
{
closed = 1;
nodes = (
(190,-172,o),
(277,-107,o),
(331,28,cs),
(363,107,o),
(390,201,o),
(435,448,c),
(363,448,l),
(330,267,o),
(304,161,o),
(272,72,c),
(134,97,o),
(121,151,o),
(147,448,c),
(78,448,l),
(52,167,o),
(54,41,o),
(247,10,c),
(212,-61,o),
(159,-112,o),
(22,-136,c),
(30,-199,l)
);
}
);
width = 448;
},
{
anchors = (
{
name = bottom;
pos = (371,0);
},
{
name = origin1;
pos = (333,448);
},
{
name = top;
pos = (269,448);
}
);
background = {
anchors = (
{
name = bottom;
pos = (371,0);
},
{
name = origin1;
pos = (333,448);
},
{
name = top;
pos = (269,448);
}
);
shapes = (
{
closed = 1;
nodes = (
(190,-177,o),
(285,-108,o),
(338,25,cs),
(370,105,o),
(396,200,o),
(445,448,c),
(333,448,l),
(294,257,o),
(271,150,o),
(237,65,cs),
(203,-28,o),
(157,-91,o),
(12,-121,c),
(21,-200,l)
);
},
{
closed = 1;
nodes = (
(287,75,l),
(156,99,o),
(146,137,o),
(178,448,c),
(68,448,l),
(40,148,o),
(42,20,o),
(267,-2,c)
);
}
);
};
layerId = "EBAB10B0-9FDE-44C7-9B16-DD2313400F4E";
shapes = (
{
closed = 1;
nodes = (
(190,-177,o),
(285,-108,o),
(338,25,cs),
(370,105,o),
(396,200,o),
(445,448,c),
(333,448,l),
(297,272,o),
(275,167,o),
(245,85,c),
(155,112,o),
(150,175,o),
(178,448,c),
(68,448,l),
(43,176,o),
(42,45,o),
(211,7,c),
(177,-55,o),
(123,-98,o),
(12,-121,c),
(21,-200,l)
);
}
);
width = 448;
},
{
anchors = (
{
name = bottom;
pos = (405,128);
},
{
name = origin1;
pos = (362,448);
},
{
name = top;
pos = (269,448);
}
);
associatedMasterId = "BA106321-29DE-4FD0-898D-B7B08A4D4215";
attr = {
coordinates = (
400,
-64,
1
);
};
background = {
anchors = (
{
name = bottom;
pos = (405,128);
},
{
name = origin1;
pos = (362,448);
},
{
name = top;
pos = (269,448);
}
);
shapes = (
{
closed = 1;
nodes = (
(216,-51,o),
(298,13,o),
(353,136,cs),
(380,196,o),
(398,265,o),
(434,448,c),
(362,448,l),
(334,304,o),
(312,226,o),
(284,159,cs),
(249,75,o),
(208,12,o),
(48,-9,c),
(56,-71,l)
);
},
{
closed = 1;
nodes = (
(318,164,l),
(156,184,o),
(121,211,o),
(147,448,c),
(78,448,l),
(49,218,o),
(72,119,o),
(299,102,c)
);
}
);
};
layerId = "B0E59C07-4D47-4AED-94A7-44006F405CC6";
name = "{400, 1, -64}";
shapes = (
{
closed = 1;
nodes = (
(216,-51,o),
(298,13,o),
(353,136,cs),
(380,196,o),
(398,265,o),
(434,448,c),
(362,448,l),
(335,310,o),
(314,232,o),
(288,168,c),
(152,188,o),
(123,227,o),
(147,448,c),
(78,448,l),
(51,233,o),
(69,132,o),
(258,106,c),
(225,50,o),
(172,7,o),
(48,-9,c),
(56,-71,l)
);
}
);
width = 448;
},
{
anchors = (
{
name = bottom;
pos = (397,128);
},
{
name = origin1;
pos = (380,448);
},
{
name = top;
pos = (269,448);
}
);
associatedMasterId = "C21910D5-47BB-472B-A83D-89B2B42B8F2A";
attr = {
coordinates = (
200,
-64,
1
);
};
background = {
anchors = (
{
name = bottom;
pos = (397,128);
},
{
name = origin1;
pos = (380,448);
},
{
name = top;
pos = (269,448);
}
);
hints = (
{
horizontal = 1;
options = 4;
place = (-70,40);
stem = 0;
type = TTStem;
},
{
options = 4;
place = (83,46);
type = TTStem;
},
{
options = 4;
place = (427,48);
type = TTStem;
},
{
options = 4;
place = (83,29);
type = TTShift;
},
{
horizontal = 1;
options = 4;
place = (448,0);
type = TTShift;
},
{
options = 8;
place = (83,-800);
type = TTSnap;
},
{
options = 8;
place = (427,-800);
type = TTSnap;
},
{
horizontal = 1;
place = (-70,150);
type = TTInterpolate;
},
{
horizontal = 1;
options = 4;
place = (110,41.246);
type = TTStem;
},
{
options = 4;
place = (379,150);
type = TTInterpolate;
},
{
options = 4;
place = (379,150);
type = TTInterpolate;
}
);
shapes = (
{
closed = 1;
nodes = (
(214,-46,o),
(292,5,o),
(341,117,cs),
(368,178,o),
(389,252,o),
(428,448,c),
(380,448,l),
(349,290,o),
(330,200,o),
(295,125,cs),
(261,53,o),
(221,-2,o),
(55,-28,c),
(61,-69,l)
);
},
{
closed = 1;
nodes = (
(322,149,l),
(137,168,o),
(106,216,o),
(129,448,c),
(83,448,l),
(63,224,o),
(78,125,o),
(307,108,c)
);
}
);
};
hints = (
{
horizontal = 1;
options = 4;
place = (-70,40);
stem = 0;
type = TTStem;
},
{
options = 4;
place = (83,46);
type = TTStem;
},
{
options = 4;
place = (427,48);
type = TTStem;
},
{
options = 4;
place = (83,29);
type = TTShift;
},
{
horizontal = 1;
options = 4;
place = (448,0);
type = TTShift;
},
{
options = 8;
place = (83,-800);
type = TTSnap;
},
{
options = 8;
place = (427,-800);
type = TTSnap;
},
{
horizontal = 1;
place = (-70,150);
type = TTInterpolate;
},
{
horizontal = 1;
options = 4;
place = (110,41.246);
type = TTStem;
},
{
options = 4;
place = (379,150);
type = TTInterpolate;
},
{
options = 4;
place = (379,150);
type = TTInterpolate;
}
);
layerId = "59683A65-7A8B-4735-9E87-F25C42858C39";
name = "5. Mar 25 at 10:22";
shapes = (
{
closed = 1;
nodes = (
(214,-46,o),
(292,5,o),
(341,117,cs),
(368,178,o),
(389,252,o),
(428,448,c),
(380,448,l),
(352,307,o),
(334,221,o),
(306,151,c),
(136,171,o),
(107,224,o),
(129,448,c),
(83,448,l),
(64,231,o),
(78,131,o),
(288,110,c),
(255,45,o),
(208,-4,o),
(55,-28,c),
(61,-69,l)
);
}
);
width = 448;
},
{
anchors = (
{
name = bottom;
pos = (397,128);
},
{
name = origin1;
pos = (333,448);
},
{
name = top;
pos = (269,448);
}
);
associatedMasterId = "EBAB10B0-9FDE-44C7-9B16-DD2313400F4E";
attr = {
coordinates = (
700,
-64,
1
);
};
background = {
anchors = (
{
name = bottom;
pos = (397,128);
},
{
name = origin1;
pos = (333,448);
},
{
name = top;
pos = (269,448);
}
);
hints = (
{
horizontal = 1;
options = 4;
place = (-74,94);
stem = 0;
type = TTStem;
},
{
options = 4;
place = (71,103);
type = TTStem;
},
{
options = 4;
place = (443,108);
type = TTStem;
},
{
options = 4;
place = (71,33);
type = TTShift;
},
{
horizontal = 1;
options = 4;
place = (448,0);
type = TTShift;
},
{
options = 8;
place = (71,1200);
type = TTSnap;
},
{
options = 8;
place = (443,1200);
type = TTSnap;
},
{
horizontal = 1;
place = (-74,150);
type = TTInterpolate;
},
{
horizontal = 1;
options = 4;
place = (103,92.439);
type = TTStem;
},
{
options = 4;
place = (335,150);
type = TTInterpolate;
},
{
options = 4;
place = (335,150);
type = TTInterpolate;
}
);
shapes = (
{
closed = 1;
nodes = (
(224,-51,o),
(313,23,o),
(370,168,cs),
(391,221,o),
(410,271,o),
(445,448,c),
(333,448,l),
(306,316,o),
(288,243,o),
(260,180,cs),
(222,95,o),
(182,34,o),
(37,5,c),
(46,-74,l)
);
},
{
closed = 1;
nodes = (
(307,173,l),
(173,190,o),
(160,219,o),
(177,448,c),
(68,448,l),
(54,214,o),
(61,112,o),
(286,95,c)
);
}
);
};
hints = (
{
horizontal = 1;
options = 4;
place = (-74,94);
stem = 0;
type = TTStem;
},
{
options = 4;
place = (71,103);
type = TTStem;
},
{
options = 4;
place = (443,108);
type = TTStem;
},
{
options = 4;
place = (71,33);
type = TTShift;
},
{
horizontal = 1;
options = 4;
place = (448,0);
type = TTShift;
},
{
options = 8;
place = (71,1200);
type = TTSnap;
},
{
options = 8;
place = (443,1200);
type = TTSnap;
},
{
horizontal = 1;
place = (-74,150);
type = TTInterpolate;
},
{
horizontal = 1;
options = 4;
place = (103,92.439);
type = TTStem;
},
{
options = 4;
place = (335,150);
type = TTInterpolate;
},
{
options = 4;
place = (335,150);
type = TTInterpolate;
}
);
layerId = "ACCB6126-971D-4E21-8E67-1976376B22AB";
name = "5. Mar 25 at 10:26";
shapes = (
{
closed = 1;
nodes = (
(224,-51,o),
(313,23,o),
(370,168,cs),
(391,221,o),
(410,271,o),
(445,448,c),
(333,448,l),
(306,316,o),
(288,244,o),
(260,181,c),
(171,201,o),
(162,248,o),
(177,448,c),
(68,448,l),
(56,241,o),
(59,137,o),
(218,104,c),
(184,58,o),
(133,24,o),
(37,5,c),
(46,-74,l)
);
}
);
width = 448;
}
);
unicode = 121;
}
{
glyphname = braceleft;
kernRight = parenleft;
layers = (
{
layerId = "C21910D5-47BB-472B-A83D-89B2B42B8F2A";
shapes = (
{
closed = 1;
nodes = (
(268,-27,l),
(185,-11,o),
(159,7,o),
(170,62,cs),
(178,102,o),
(197,139,o),
(207,188,cs),
(223,269,o),
(198,300,o),
(150,319,c),
(207,338,o),
(242,365,o),
(258,444,cs),
(269,497,o),
(264,534,o),
(271,570,cs),
(283,629,o),
(321,651,o),
(410,667,c),
(407,704,l),
(316,692,o),
(247,668,o),
(228,574,cs),
(219,531,o),
(224,494,o),
(215,448,cs),
(203,389,o),
(170,355,o),
(113,345,c),
(106,295,l),
(159,285,o),
(176,255,o),
(165,200,cs),
(155,150,o),
(136,113,o),
(128,74,cs),
(108,-24,o),
(171,-52,o),
(257,-64,c)
);
}
);
width = 448;
},
{
layerId = "BA106321-29DE-4FD0-898D-B7B08A4D4215";
shapes = (
{
closed = 1;
nodes = (
(293,-8,l),
(207,8,o),
(179,21,o),
(189,68,cs),
(197,107,o),
(215,141,o),
(224,186,cs),
(241,267,o),
(211,299,o),
(153,318,c),
(219,336,o),
(260,364,o),
(276,442,cs),
(286,493,o),
(281,527,o),
(287,560,cs),
(298,613,o),
(337,630,o),
(428,646,c),
(424,704,l),
(319,691,o),
(241,668,o),
(222,572,cs),
(213,531,o),
(219,497,o),
(210,454,cs),
(200,403,o),
(166,373,o),
(110,364,c),
(97,276,l),
(150,267,o),
(168,243,o),
(159,198,cs),
(149,149,o),
(130,115,o),
(123,80,cs),
(103,-22,o),
(176,-51,o),
(276,-64,c)
);
}
);
width = 448;
},
{
layerId = "EBAB10B0-9FDE-44C7-9B16-DD2313400F4E";
shapes = (
{
closed = 1;
nodes = (
(325,8,l),
(240,24,o),
(212,35,o),
(221,79,cs),
(229,119,o),
(248,152,o),
(256,194,cs),
(270,264,o),
(241,297,o),
(185,317,c),
(250,335,o),
(290,363,o),
(303,428,cs),
(313,480,o),
(308,513,o),
(314,543,cs),
(325,597,o),
(364,614,o),
(455,630,c),
(454,704,l),
(325,691,o),
(231,670,o),
(213,579,cs),
(205,537,o),
(210,504,o),
(202,464,cs),
(192,412,o),
(158,383,o),
(101,374,c),
(86,268,l),
(139,259,o),
(156,236,o),
(148,194,cs),
(138,144,o),
(119,111,o),
(113,79,cs),
(93,-22,o),
(183,-51,o),
(307,-64,c)
);
}
);
width = 448;
}
);
unicode = 123;
}
{
glyphname = bar;
layers = (
{
layerId = "C21910D5-47BB-472B-A83D-89B2B42B8F2A";
shapes = (
{
closed = 1;
nodes = (
(344,704,l),
(296,704,l),
(142,-64,l),
(190,-64,l)
);
}
);
width = 448;
},
{
layerId = "BA106321-29DE-4FD0-898D-B7B08A4D4215";
shapes = (
{
closed = 1;
nodes = (
(356,704,l),
(284,704,l),
(130,-64,l),
(202,-64,l)
);
}
);
width = 448;
},
{
layerId = "EBAB10B0-9FDE-44C7-9B16-DD2313400F4E";
shapes = (
{
closed = 1;
nodes = (
(376,704,l),
(264,704,l),
(110,-64,l),
(222,-64,l)
);
}
);
width = 448;
}
);
unicode = 124;
}
{
glyphname = braceright;
kernLeft = parenright;
layers = (
{
layerId = "C21910D5-47BB-472B-A83D-89B2B42B8F2A";
shapes = (
{
closed = 1;
nodes = (
(170,-52,o),
(239,-28,o),
(258,66,cs),
(267,109,o),
(262,146,o),
(271,192,cs),
(283,251,o),
(316,285,o),
(373,295,c),
(380,345,l),
(327,355,o),
(310,385,o),
(321,440,cs),
(331,490,o),
(350,527,o),
(358,566,cs),
(378,664,o),
(315,692,o),
(229,704,c),
(218,667,l),
(301,651,o),
(327,633,o),
(316,578,cs),
(308,538,o),
(289,501,o),
(279,452,cs),
(263,371,o),
(288,340,o),
(336,321,c),
(279,302,o),
(244,275,o),
(228,196,cs),
(217,143,o),
(222,106,o),
(215,70,cs),
(203,11,o),
(165,-11,o),
(76,-27,c),
(79,-64,l)
);
}
);
width = 448;
},
{
layerId = "BA106321-29DE-4FD0-898D-B7B08A4D4215";
shapes = (
{
closed = 1;
nodes = (
(167,-51,o),
(245,-28,o),
(264,68,cs),
(273,109,o),
(267,143,o),
(276,186,cs),
(286,237,o),
(320,267,o),
(376,276,c),
(389,364,l),
(336,373,o),
(318,397,o),
(327,442,cs),
(337,491,o),
(356,525,o),
(363,560,cs),
(383,662,o),
(310,691,o),
(210,704,c),
(193,648,l),
(279,632,o),
(307,619,o),
(297,572,cs),
(289,533,o),
(271,499,o),
(262,454,cs),
(245,373,o),
(275,341,o),
(333,322,c),
(267,304,o),
(226,276,o),
(210,198,cs),
(200,147,o),
(205,113,o),
(199,80,cs),
(188,27,o),
(149,10,o),
(58,-6,c),
(62,-64,l)
);
}
);
width = 448;
},
{
layerId = "EBAB10B0-9FDE-44C7-9B16-DD2313400F4E";
shapes = (
{
closed = 1;
nodes = (
(161,-51,o),
(255,-30,o),
(273,61,cs),
(281,103,o),
(276,136,o),
(284,176,cs),
(294,228,o),
(328,257,o),
(385,266,c),
(400,372,l),
(347,381,o),
(330,404,o),
(338,446,cs),
(348,496,o),
(367,529,o),
(373,561,cs),
(393,662,o),
(303,691,o),
(179,704,c),
(161,632,l),
(246,616,o),
(274,605,o),
(265,561,cs),
(257,521,o),
(238,488,o),
(230,446,cs),
(216,376,o),
(245,343,o),
(301,323,c),
(236,305,o),
(196,277,o),
(183,212,cs),
(173,160,o),
(178,127,o),
(172,97,cs),
(161,43,o),
(122,26,o),
(31,10,c),
(32,-64,l)
);
}
);
width = 448;
}
);
unicode = 125;
}
{
glyphname = cent;
layers = (
{
background = {
shapes = (
{
closed = 1;
nodes = (
(401,500,l),
(367,512,o),
(323,519,o),
(283,519,cs),
(150,519,o),
(87,418,o),
(62,292,cs),
(36,162,o),
(62,57,o),
(196,57,cs),
(237,57,o),
(278,64,o),
(319,76,c),
(315,118,l),
(273,106,o),
(236,100,o),
(204,100,cs),
(112,100,o),
(88,161,o),
(112,284,cs),
(137,410,o),
(185,477,o),
(285,477,cs),
(315,477,o),
(347,474,o),
(387,462,c)
);
},
{
closed = 1;
nodes = (
(301,493,l),
(331,640,l),
(283,640,l),
(253,493,l)
);
},
{
closed = 1;
nodes = (
(170,80,l),
(142,-64,l),
(190,-64,l),
(218,80,l)
);
}
);
};
layerId = "C21910D5-47BB-472B-A83D-89B2B42B8F2A";
shapes = (
{
closed = 1;
nodes = (
(401,500,l),
(373,510,o),
(339,516,o),
(306,518,c),
(331,640,l),
(283,640,l),
(258,518,l),
(141,506,o),
(85,409,o),
(62,292,cs),
(38,172,o),
(58,74,o),
(166,59,c),
(142,-64,l),
(190,-64,l),
(214,57,l),
(250,59,o),
(285,66,o),
(319,76,c),
(315,118,l),
(273,106,o),
(236,100,o),
(204,100,cs),
(112,100,o),
(88,161,o),
(112,284,cs),
(137,410,o),
(185,477,o),
(285,477,cs),
(315,477,o),
(347,474,o),
(387,462,c)
);
}
);
width = 448;
},
{
background = {
shapes = (
{
closed = 1;
nodes = (
(409,499,l),
(371,513,o),
(331,519,o),
(290,519,cs),
(149,519,o),
(87,419,o),
(62,294,cs),
(36,163,o),
(61,57,o),
(208,57,cs),
(243,57,o),
(285,61,o),
(329,75,c),
(323,137,l),
(285,127,o),
(253,121,o),
(215,121,cs),
(130,121,o),
(111,160,o),
(136,282,cs),
(161,410,o),
(202,455,o),
(291,455,cs),
(325,455,o),
(355,451,o),
(389,441,c)
);
},
{
closed = 1;
nodes = (
(308,486,l),
(339,640,l),
(275,640,l),
(244,486,l)
);
},
{
closed = 1;
nodes = (
(165,86,l),
(135,-64,l),
(199,-64,l),
(229,86,l)
);
}
);
};
layerId = "BA106321-29DE-4FD0-898D-B7B08A4D4215";
shapes = (
{
closed = 1;
nodes = (
(409,499,l),
(379,510,o),
(347,516,o),
(314,518,c),
(339,640,l),
(275,640,l),
(250,516,l),
(138,499,o),
(85,407,o),
(62,294,cs),
(39,178,o),
(55,83,o),
(160,61,c),
(135,-64,l),
(199,-64,l),
(223,57,l),
(254,58,o),
(291,63,o),
(329,75,c),
(323,137,l),
(285,127,o),
(253,121,o),
(215,121,cs),
(130,121,o),
(111,160,o),
(136,282,cs),
(161,410,o),
(202,455,o),
(291,455,cs),
(325,455,o),
(355,451,o),
(389,441,c)
);
}
);
width = 448;
},
{
background = {
shapes = (
{
closed = 1;
nodes = (
(428,493,l),
(387,511,o),
(344,519,o),
(300,519,cs),
(147,519,o),
(87,420,o),
(63,297,cs),
(36,164,o),
(61,57,o),
(220,57,cs),
(258,57,o),
(303,61,o),
(350,79,c),
(342,156,l),
(312,148,o),
(279,141,o),
(246,141,cs),
(170,141,o),
(154,174,o),
(175,279,cs),
(198,394,o),
(236,435,o),
(318,435,cs),
(348,435,o),
(379,430,o),
(402,422,c)
);
},
{
closed = 1;
nodes = (
(327,481,l),
(359,640,l),
(255,640,l),
(223,481,l)
);
},
{
closed = 1;
nodes = (
(147,98,l),
(115,-64,l),
(219,-64,l),
(251,98,l)
);
}
);
};
layerId = "EBAB10B0-9FDE-44C7-9B16-DD2313400F4E";
shapes = (
{
closed = 1;
nodes = (
(428,493,l),
(398,506,o),
(366,514,o),
(334,517,c),
(359,640,l),
(255,640,l),
(229,511,l),
(127,484,o),
(83,399,o),
(63,297,cs),
(41,189,o),
(54,100,o),
(141,69,c),
(115,-64,l),
(219,-64,l),
(243,58,l),
(275,59,o),
(311,64,o),
(350,79,c),
(342,156,l),
(312,148,o),
(279,141,o),
(246,141,cs),
(170,141,o),
(154,174,o),
(175,279,cs),
(198,394,o),
(236,435,o),
(318,435,cs),
(348,435,o),
(379,430,o),
(402,422,c)
);
}
);
width = 448;
}
);
unicode = 162;
}
{
glyphname = currency;
layers = (
{
background = {
shapes = (
{
closed = 1;
nodes = (
(63,292,cs),
(44,193,o),
(104,112,o),
(205,112,cs),
(302,112,o),
(391,189,o),
(410,284,cs),
(430,383,o),
(369,464,o),
(268,464,cs),
(171,464,o),
(82,387,o)
);
},
{
closed = 1;
nodes = (
(110,284,cs),
(125,358,o),
(193,420,o),
(266,420,cs),
(337,420,o),
(377,362,o),
(363,292,cs),
(349,218,o),
(280,156,o),
(207,156,cs),
(136,156,o),
(96,214,o)
);
},
{
closed = 1;
nodes = (
(197,416,l),
(145,514,l),
(102,486,l),
(156,388,l)
);
},
{
closed = 1;
nodes = (
(276,159,l),
(329,62,l),
(371,90,l),
(317,189,l)
);
},
{
closed = 1;
nodes = (
(360,388,l),
(450,486,l),
(417,514,l),
(327,416,l)
);
},
{
closed = 1;
nodes = (
(115,189,l),
(23,90,l),
(57,62,l),
(146,159,l)
);
}
);
};
layerId = "C21910D5-47BB-472B-A83D-89B2B42B8F2A";
shapes = (
{
closed = 1;
nodes = (
(238,464,o),
(209,457,o),
(182,444,c),
(145,514,l),
(102,486,l),
(140,417,l),
(102,386,o),
(73,342,o),
(63,292,cs),
(53,241,o),
(65,195,o),
(91,163,c),
(23,90,l),
(57,62,l),
(123,134,l),
(145,120,o),
(173,112,o),
(205,112,cs),
(235,112,o),
(264,119,o),
(291,132,c),
(329,62,l),
(371,90,l),
(333,159,l),
(371,190,o),
(400,234,o),
(410,284,cs),
(420,334,o),
(409,381,o),
(383,413,c),
(450,486,l),
(417,514,l),
(351,442,l),
(328,456,o),
(300,464,o),
(268,464,cs)
);
},
{
closed = 1;
nodes = (
(136,156,o),
(96,214,o),
(110,284,cs),
(125,358,o),
(193,420,o),
(266,420,cs),
(337,420,o),
(377,362,o),
(363,292,cs),
(349,218,o),
(280,156,o),
(207,156,cs)
);
}
);
width = 448;
},
{
background = {
shapes = (
{
closed = 1;
nodes = (
(60,294,cs),
(40,194,o),
(102,112,o),
(207,112,cs),
(306,112,o),
(395,188,o),
(414,282,cs),
(434,382,o),
(371,464,o),
(267,464,cs),
(167,464,o),
(79,388,o)
);
},
{
closed = 1;
nodes = (
(126,282,cs),
(139,347,o),
(199,400,o),
(264,400,cs),
(325,400,o),
(360,353,o),
(348,294,cs),
(335,229,o),
(275,176,o),
(209,176,cs),
(149,176,o),
(114,223,o)
);
},
{
closed = 1;
nodes = (
(205,421,l),
(152,519,l),
(95,481,l),
(149,383,l)
);
},
{
closed = 1;
nodes = (
(268,154,l),
(321,57,l),
(379,95,l),
(324,194,l)
);
},
{
closed = 1;
nodes = (
(366,383,l),
(457,481,l),
(410,519,l),
(321,421,l)
);
},
{
closed = 1;
nodes = (
(108,194,l),
(17,95,l),
(63,57,l),
(152,154,l)
);
}
);
};
layerId = "BA106321-29DE-4FD0-898D-B7B08A4D4215";
shapes = (
{
closed = 1;
nodes = (
(240,464,o),
(214,459,o),
(190,449,c),
(152,519,l),
(95,481,l),
(132,413,l),
(95,382,o),
(69,340,o),
(60,294,cs),
(50,245,o),
(60,200,o),
(84,168,c),
(17,95,l),
(63,57,l),
(130,130,l),
(151,119,o),
(178,112,o),
(207,112,cs),
(233,112,o),
(258,117,o),
(283,127,c),
(321,57,l),
(379,95,l),
(341,163,l),
(377,193,o),
(405,236,o),
(414,282,cs),
(424,331,o),
(414,375,o),
(389,408,c),
(457,481,l),
(410,519,l),
(344,446,l),
(323,457,o),
(296,464,o),
(267,464,cs)
);
},
{
closed = 1;
nodes = (
(149,176,o),
(114,223,o),
(126,282,cs),
(139,347,o),
(199,400,o),
(264,400,cs),
(325,400,o),
(360,353,o),
(348,294,cs),
(335,229,o),
(275,176,o),
(209,176,cs)
);
}
);
width = 448;
},
{
background = {
shapes = (
{
closed = 1;
nodes = (
(49,297,cs),
(29,195,o),
(96,112,o),
(207,112,cs),
(312,112,o),
(403,187,o),
(422,279,cs),
(442,381,o),
(376,464,o),
(264,464,cs),
(160,464,o),
(68,389,o)
);
},
{
closed = 1;
nodes = (
(154,279,cs),
(165,337,o),
(212,384,o),
(261,384,cs),
(304,384,o),
(327,345,o),
(317,297,cs),
(306,239,o),
(259,192,o),
(210,192,cs),
(167,192,o),
(144,231,o)
);
},
{
closed = 1;
nodes = (
(213,427,l),
(160,525,l),
(84,475,l),
(139,377,l)
);
},
{
closed = 1;
nodes = (
(258,148,l),
(311,51,l),
(388,101,l),
(333,200,l)
);
},
{
closed = 1;
nodes = (
(373,377,l),
(462,475,l),
(402,525,l),
(313,427,l)
);
},
{
closed = 1;
nodes = (
(100,200,l),
(9,101,l),
(69,50,l),
(158,147,l)
);
}
);
};
layerId = "EBAB10B0-9FDE-44C7-9B16-DD2313400F4E";
shapes = (
{
closed = 1;
nodes = (
(241,464,o),
(220,461,o),
(198,454,c),
(160,525,l),
(84,475,l),
(120,411,l),
(84,381,o),
(58,341,o),
(49,297,cs),
(40,250,o),
(50,204,o),
(74,172,c),
(9,101,l),
(69,50,l),
(137,125,l),
(157,117,o),
(181,112,o),
(207,112,cs),
(230,112,o),
(252,116,o),
(272,122,c),
(311,51,l),
(388,101,l),
(352,165,l),
(388,195,o),
(413,235,o),
(422,279,cs),
(431,326,o),
(422,370,o),
(397,404,c),
(462,475,l),
(402,525,l),
(335,451,l),
(315,459,o),
(290,464,o),
(264,464,cs)
);
},
{
closed = 1;
nodes = (
(167,192,o),
(144,231,o),
(154,279,cs),
(165,337,o),
(212,384,o),
(261,384,cs),
(304,384,o),
(327,345,o),
(317,297,cs),
(306,239,o),
(259,192,o),
(210,192,cs)
);
}
);
width = 448;
}
);
unicode = 164;
}
{
glyphname = yen;
layers = (
{
background = {
shapes = (
{
closed = 1;
nodes = (
(255,262,l),
(343,340,o),
(420,441,o),
(467,576,c),
(418,576,l),
(373,447,o),
(314,369,o),
(211,267,c)
);
},
{
closed = 1;
nodes = (
(203,0,l),
(255,262,l),
(234,271,l),
(207,262,l),
(155,0,l)
);
},
{
closed = 1;
nodes = (
(249,265,l),
(189,367,o),
(163,445,o),
(170,576,c),
(123,576,l),
(115,441,o),
(152,340,o),
(207,262,c)
);
},
{
closed = 1;
nodes = (
(81,200,l),
(357,200,l),
(366,244,l),
(90,244,l)
);
},
{
closed = 1;
nodes = (
(56,76,l),
(332,76,l),
(341,120,l),
(65,120,l)
);
}
);
};
layerId = "C21910D5-47BB-472B-A83D-89B2B42B8F2A";
shapes = (
{
closed = 1;
nodes = (
(203,0,l),
(218,76,l),
(332,76,l),
(341,120,l),
(227,120,l),
(243,200,l),
(357,200,l),
(366,244,l),
(251,244,l),
(255,262,l),
(343,340,o),
(420,441,o),
(467,576,c),
(418,576,l),
(376,456,o),
(323,382,o),
(234,291,c),
(185,380,o),
(164,457,o),
(170,576,c),
(123,576,l),
(115,441,o),
(152,340,o),
(207,262,c),
(203,244,l),
(90,244,l),
(81,200,l),
(195,200,l),
(179,120,l),
(65,120,l),
(56,76,l),
(170,76,l),
(155,0,l)
);
}
);
width = 448;
},
{
background = {
shapes = (
{
closed = 1;
nodes = (
(267,260,l),
(353,339,o),
(427,440,o),
(473,576,c),
(400,576,l),
(356,447,o),
(296,369,o),
(202,268,c)
);
},
{
closed = 1;
nodes = (
(215,0,l),
(267,262,l),
(234,271,l),
(195,262,l),
(143,0,l)
);
},
{
closed = 1;
nodes = (
(262,264,l),
(207,367,o),
(180,445,o),
(187,576,c),
(117,576,l),
(108,441,o),
(143,340,o),
(195,262,c)
);
},
{
closed = 1;
nodes = (
(68,192,l),
(368,192,l),
(380,256,l),
(80,256,l)
);
},
{
closed = 1;
nodes = (
(42,64,l),
(342,64,l),
(355,128,l),
(55,128,l)
);
}
);
};
layerId = "BA106321-29DE-4FD0-898D-B7B08A4D4215";
shapes = (
{
closed = 1;
nodes = (
(215,0,l),
(228,64,l),
(342,64,l),
(355,128,l),
(240,128,l),
(253,192,l),
(368,192,l),
(380,256,l),
(266,256,l),
(267,260,l),
(353,339,o),
(427,440,o),
(473,576,c),
(400,576,l),
(362,465,o),
(312,392,o),
(239,309,c),
(200,391,o),
(181,464,o),
(187,576,c),
(117,576,l),
(108,441,o),
(143,340,o),
(195,262,c),
(194,256,l),
(80,256,l),
(68,192,l),
(181,192,l),
(168,128,l),
(55,128,l),
(42,64,l),
(156,64,l),
(143,0,l)
);
}
);
width = 448;
},
{
background = {
shapes = (
{
closed = 1;
nodes = (
(288,262,l),
(368,340,o),
(439,440,o),
(483,576,c),
(370,576,l),
(329,448,o),
(276,370,o),
(194,270,c)
);
},
{
closed = 1;
nodes = (
(235,0,l),
(288,262,l),
(234,271,l),
(176,262,l),
(123,0,l)
);
},
{
closed = 1;
nodes = (
(275,262,l),
(228,366,o),
(208,444,o),
(217,576,c),
(108,576,l),
(98,442,o),
(129,340,o),
(176,262,c)
);
},
{
closed = 1;
nodes = (
(44,176,l),
(384,176,l),
(400,256,l),
(60,256,l)
);
},
{
closed = 1;
nodes = (
(20,56,l),
(360,56,l),
(376,136,l),
(36,136,l)
);
}
);
};
layerId = "EBAB10B0-9FDE-44C7-9B16-DD2313400F4E";
shapes = (
{
closed = 1;
nodes = (
(235,0,l),
(246,56,l),
(360,56,l),
(376,136,l),
(263,136,l),
(271,176,l),
(384,176,l),
(400,256,l),
(287,256,l),
(288,262,l),
(368,340,o),
(439,440,o),
(483,576,c),
(370,576,l),
(338,476,o),
(299,408,o),
(245,335,c),
(220,407,o),
(210,476,o),
(217,576,c),
(108,576,l),
(98,442,o),
(129,340,o),
(176,262,c),
(175,256,l),
(60,256,l),
(44,176,l),
(159,176,l),
(151,136,l),
(36,136,l),
(20,56,l),
(134,56,l),
(123,0,l)
);
}
);
width = 448;
}
);
unicode = 165;
}
{
glyphname = section;
layers = (
{
background = {
shapes = (
{
closed = 1;
nodes = (
(126,252,cs),
(136,300,o),
(175,330,o),
(248,330,cs),
(319,330,o),
(343,304,o),
(334,260,cs),
(324,212,o),
(286,182,o),
(212,182,cs),
(142,182,o),
(118,208,o)
);
},
{
closed = 1;
nodes = (
(73,260,cs),
(59,192,o),
(108,138,o),
(210,138,cs),
(308,138,o),
(375,188,o),
(387,252,cs),
(403,329,o),
(352,374,o),
(250,374,cs),
(152,374,o),
(86,324,o)
);
},
{
closed = 1;
nodes = (
(216,355,l),
(210,387,o),
(212,419,o),
(216,442,cs),
(226,490,o),
(252,536,o),
(332,536,cs),
(358,536,o),
(385,532,o),
(413,526,c),
(429,567,l),
(396,576,o),
(359,580,o),
(328,580,cs),
(240,580,o),
(182,532,o),
(166,450,cs),
(159,416,o),
(162,373,o),
(173,340,c)
);
},
{
closed = 1;
nodes = (
(245,157,l),
(251,125,o),
(249,93,o),
(244,70,cs),
(234,22,o),
(208,-24,o),
(129,-24,cs),
(102,-24,o),
(75,-20,o),
(47,-14,c),
(31,-55,l),
(64,-64,o),
(101,-68,o),
(133,-68,cs),
(220,-68,o),
(278,-20,o),
(294,62,cs),
(301,96,o),
(298,139,o),
(288,172,c)
);
}
);
};
layerId = "C21910D5-47BB-472B-A83D-89B2B42B8F2A";
shapes = (
{
closed = 1;
nodes = (
(142,182,o),
(118,208,o),
(126,252,cs),
(136,300,o),
(175,330,o),
(248,330,cs),
(319,330,o),
(343,304,o),
(334,260,cs),
(324,212,o),
(286,182,o),
(212,182,cs)
);
},
{
closed = 1;
nodes = (
(237,374,o),
(224,373,o),
(214,372,c),
(211,399,o),
(213,424,o),
(216,442,cs),
(226,490,o),
(252,536,o),
(332,536,cs),
(358,536,o),
(385,532,o),
(413,526,c),
(429,567,l),
(396,576,o),
(359,580,o),
(328,580,cs),
(240,580,o),
(182,532,o),
(166,450,cs),
(160,422,o),
(161,390,o),
(168,360,c),
(116,341,o),
(82,304,o),
(73,260,cs),
(59,192,o),
(108,138,o),
(210,138,cs),
(223,138,o),
(235,139,o),
(247,141,c),
(250,113,o),
(248,88,o),
(244,70,cs),
(234,22,o),
(208,-24,o),
(129,-24,cs),
(102,-24,o),
(75,-20,o),
(47,-14,c),
(31,-55,l),
(64,-64,o),
(101,-68,o),
(133,-68,cs),
(220,-68,o),
(278,-20,o),
(294,62,cs),
(300,90,o),
(299,122,o),
(293,152,c),
(344,171,o),
(379,209,o),
(387,252,cs),
(403,329,o),
(352,374,o),
(250,374,cs)
);
}
);
width = 448;
},
{
background = {
shapes = (
{
closed = 1;
nodes = (
(138,250,cs),
(147,296,o),
(181,320,o),
(248,320,cs),
(321,320,o),
(330,302,o),
(322,262,cs),
(313,216,o),
(280,192,o),
(212,192,cs),
(150,192,o),
(130,210,o)
);
},
{
closed = 1;
nodes = (
(67,262,cs),
(53,188,o),
(103,128,o),
(210,128,cs),
(311,128,o),
(379,182,o),
(393,250,cs),
(410,334,o),
(357,384,o),
(251,384,cs),
(149,384,o),
(81,330,o)
);
},
{
closed = 1;
nodes = (
(224,354,l),
(218,384,o),
(220,414,o),
(224,435,cs),
(232,477,o),
(257,516,o),
(329,516,cs),
(357,516,o),
(386,513,o),
(416,507,c),
(434,566,l),
(400,575,o),
(360,580,o),
(326,580,cs),
(233,580,o),
(174,533,o),
(157,452,cs),
(150,417,o),
(154,374,o),
(164,341,c)
);
},
{
closed = 1;
nodes = (
(236,158,l),
(242,128,o),
(241,98,o),
(236,77,cs),
(228,35,o),
(204,-4,o),
(131,-4,cs),
(104,-4,o),
(74,-1,o),
(45,5,c),
(26,-54,l),
(61,-63,o),
(100,-68,o),
(134,-68,cs),
(227,-68,o),
(287,-21,o),
(303,60,cs),
(310,95,o),
(307,138,o),
(296,171,c)
);
}
);
};
layerId = "BA106321-29DE-4FD0-898D-B7B08A4D4215";
shapes = (
{
closed = 1;
nodes = (
(150,192,o),
(130,210,o),
(138,250,cs),
(147,296,o),
(181,320,o),
(248,320,cs),
(321,320,o),
(330,302,o),
(322,262,cs),
(313,216,o),
(280,192,o),
(212,192,cs)
);
},
{
closed = 1;
nodes = (
(240,384,o),
(230,383,o),
(221,382,c),
(220,401,o),
(221,420,o),
(224,435,cs),
(232,477,o),
(257,516,o),
(329,516,cs),
(357,516,o),
(386,513,o),
(416,507,c),
(434,566,l),
(400,575,o),
(360,580,o),
(326,580,cs),
(233,580,o),
(174,533,o),
(157,452,cs),
(152,426,o),
(153,393,o),
(158,366,c),
(109,345,o),
(76,306,o),
(67,262,cs),
(53,188,o),
(103,128,o),
(210,128,cs),
(220,128,o),
(231,129,o),
(240,130,c),
(241,111,o),
(239,91,o),
(236,77,cs),
(228,35,o),
(204,-4,o),
(131,-4,cs),
(104,-4,o),
(74,-1,o),
(45,5,c),
(26,-54,l),
(61,-63,o),
(100,-68,o),
(134,-68,cs),
(227,-68,o),
(287,-21,o),
(303,60,cs),
(308,86,o),
(308,117,o),
(302,146,c),
(351,167,o),
(384,206,o),
(393,250,cs),
(410,334,o),
(357,384,o),
(251,384,cs)
);
}
);
width = 448;
},
{
background = {
shapes = (
{
closed = 1;
nodes = (
(157,247,cs),
(165,286,o),
(196,312,o),
(248,312,cs),
(304,312,o),
(309,294,o),
(303,265,cs),
(295,226,o),
(265,200,o),
(213,200,cs),
(167,200,o),
(152,218,o)
);
},
{
closed = 1;
nodes = (
(58,265,cs),
(42,185,o),
(96,120,o),
(209,120,cs),
(316,120,o),
(388,177,o),
(402,247,cs),
(421,338,o),
(364,392,o),
(251,392,cs),
(144,392,o),
(72,335,o)
);
},
{
closed = 1;
nodes = (
(238,353,l),
(232,380,o),
(233,407,o),
(237,424,cs),
(245,464,o),
(267,500,o),
(327,500,cs),
(357,500,o),
(390,497,o),
(423,491,c),
(443,566,l),
(406,575,o),
(363,580,o),
(325,580,cs),
(223,580,o),
(159,534,o),
(143,455,cs),
(136,418,o),
(139,375,o),
(150,342,c)
);
},
{
closed = 1;
nodes = (
(222,159,l),
(229,132,o),
(227,105,o),
(224,88,cs),
(216,48,o),
(193,12,o),
(133,12,cs),
(103,12,o),
(70,15,o),
(37,21,c),
(17,-54,l),
(54,-63,o),
(98,-68,o),
(136,-68,cs),
(238,-68,o),
(302,-22,o),
(317,57,cs),
(325,94,o),
(321,137,o),
(311,170,c)
);
}
);
};
layerId = "EBAB10B0-9FDE-44C7-9B16-DD2313400F4E";
shapes = (
{
closed = 1;
nodes = (
(167,200,o),
(152,218,o),
(157,247,cs),
(165,286,o),
(196,312,o),
(248,312,cs),
(304,312,o),
(309,294,o),
(303,265,cs),
(295,226,o),
(265,200,o),
(213,200,cs)
);
},
{
closed = 1;
nodes = (
(245,392,o),
(240,392,o),
(234,391,c),
(234,403,o),
(235,416,o),
(237,424,cs),
(245,464,o),
(267,500,o),
(327,500,cs),
(357,500,o),
(390,497,o),
(423,491,c),
(443,566,l),
(406,575,o),
(363,580,o),
(325,580,cs),
(223,580,o),
(159,534,o),
(143,455,cs),
(138,428,o),
(138,396,o),
(143,369,c),
(97,346,o),
(67,309,o),
(58,265,cs),
(42,185,o),
(96,120,o),
(209,120,cs),
(215,120,o),
(220,120,o),
(227,121,c),
(227,109,o),
(226,97,o),
(224,88,cs),
(216,48,o),
(193,12,o),
(133,12,cs),
(103,12,o),
(70,15,o),
(37,21,c),
(17,-54,l),
(54,-63,o),
(98,-68,o),
(136,-68,cs),
(238,-68,o),
(302,-22,o),
(317,57,cs),
(323,85,o),
(322,116,o),
(317,144,c),
(364,167,o),
(393,204,o),
(402,247,cs),
(421,338,o),
(364,392,o),
(251,392,cs)
);
}
);
width = 448;
}
);
unicode = 167;
}
{
glyphname = copyright;
layers = (
{
layerId = "C21910D5-47BB-472B-A83D-89B2B42B8F2A";
shapes = (
{
closed = 1;
nodes = (
(290,15,o),
(409,94,o),
(441,252,cs),
(473,416,o),
(383,497,o),
(275,497,cs),
(171,497,o),
(52,420,o),
(20,260,cs),
(-12,98,o),
(78,15,o),
(186,15,cs)
);
},
{
closed = 1;
nodes = (
(240,120,o),
(266,124,o),
(290,132,c),
(284,167,l),
(263,161,o),
(240,156,o),
(221,156,cs),
(170,156,o),
(151,184,o),
(165,254,cs),
(180,328,o),
(213,361,o),
(268,361,cs),
(284,361,o),
(303,359,o),
(324,352,c),
(338,383,l),
(319,391,o),
(291,397,o),
(266,397,cs),
(193,397,o),
(142,352,o),
(124,262,cs),
(104,164,o),
(142,120,o),
(218,120,cs)
);
},
{
closed = 1;
nodes = (
(89,55,o),
(34,120,o),
(61,252,cs),
(88,388,o),
(173,457,o),
(274,457,cs),
(371,457,o),
(427,392,o),
(400,260,cs),
(373,124,o),
(287,55,o),
(187,55,cs)
);
}
);
width = 448;
},
{
layerId = "BA106321-29DE-4FD0-898D-B7B08A4D4215";
shapes = (
{
closed = 1;
nodes = (
(292,11,o),
(413,90,o),
(445,250,cs),
(479,418,o),
(385,501,o),
(274,501,cs),
(169,501,o),
(48,424,o),
(16,262,cs),
(-18,96,o),
(76,11,o),
(186,11,cs)
);
},
{
closed = 1;
nodes = (
(239,120,o),
(264,123,o),
(299,135,c),
(289,178,l),
(265,171,o),
(244,166,o),
(220,166,cs),
(174,166,o),
(161,188,o),
(174,253,cs),
(188,324,o),
(216,351,o),
(267,351,cs),
(286,351,o),
(306,348,o),
(324,340,c),
(344,380,l),
(319,391,o),
(289,397,o),
(264,397,cs),
(177,397,o),
(135,338,o),
(120,264,cs),
(104,184,o),
(127,120,o),
(218,120,cs)
);
},
{
closed = 1;
nodes = (
(91,59,o),
(40,124,o),
(65,250,cs),
(92,382,o),
(175,453,o),
(275,453,cs),
(369,453,o),
(421,388,o),
(396,262,cs),
(369,130,o),
(285,59,o),
(186,59,cs)
);
}
);
width = 448;
},
{
layerId = "EBAB10B0-9FDE-44C7-9B16-DD2313400F4E";
shapes = (
{
closed = 1;
nodes = (
(295,3,o),
(420,84,o),
(453,247,cs),
(488,422,o),
(390,509,o),
(275,509,cs),
(166,509,o),
(41,430,o),
(8,265,cs),
(-26,92,o),
(71,3,o),
(186,3,cs)
);
},
{
closed = 1;
nodes = (
(238,120,o),
(269,123,o),
(309,135,c),
(303,195,l),
(279,190,o),
(258,186,o),
(233,186,cs),
(198,186,o),
(189,198,o),
(199,250,cs),
(212,312,o),
(234,332,o),
(275,332,cs),
(294,332,o),
(315,330,o),
(333,325,c),
(353,380,l),
(323,391,o),
(287,397,o),
(257,397,cs),
(164,397,o),
(121,339,o),
(107,267,cs),
(90,185,o),
(115,120,o),
(215,120,cs)
);
},
{
closed = 1;
nodes = (
(91,67,o),
(53,139,o),
(75,247,cs),
(98,365,o),
(173,445,o),
(275,445,cs),
(369,445,o),
(408,373,o),
(386,265,cs),
(363,147,o),
(287,67,o),
(186,67,cs)
);
}
);
width = 448;
}
);
unicode = 169;
}
{
glyphname = ordfeminine;
kernLeft = zerosuperior;
kernRight = zerosuperior;
layers = (
{
background = {
shapes = (
{
closed = 1;
nodes = (
(342,320,l),
(353,384,l),
(382,528,ls),
(399,616,o),
(359,646,o),
(281,646,cs),
(246,646,o),
(207,641,o),
(168,632,c),
(174,578,l),
(209,586,o),
(241,591,o),
(269,591,cs),
(320,591,o),
(328,579,o),
(318,528,cs),
(285,366,l),
(284,320,l)
);
},
{
closed = 1;
nodes = (
(227,317,o),
(268,339,o),
(329,384,c),
(308,423,l),
(267,394,o),
(233,373,o),
(196,373,cs),
(175,373,o),
(165,383,o),
(165,400,cs),
(165,436,o),
(208,463,o),
(335,463,c),
(341,516,l),
(176,516,o),
(99,470,o),
(99,393,cs),
(99,345,o),
(131,317,o),
(177,317,cs)
);
}
);
};
layerId = "BA106321-29DE-4FD0-898D-B7B08A4D4215";
shapes = (
{
closed = 1;
nodes = (
(342,320,l),
(353,384,l),
(382,528,ls),
(400,616,o),
(359,646,o),
(281,646,cs),
(246,646,o),
(207,641,o),
(168,632,c),
(174,578,l),
(209,586,o),
(241,591,o),
(269,591,cs),
(320,591,o),
(328,579,o),
(318,528,cs),
(315,516,l),
(167,511,o),
(99,466,o),
(99,393,cs),
(99,345,o),
(131,317,o),
(177,317,cs),
(214,317,o),
(247,329,o),
(285,353,c),
(284,320,l)
);
},
{
closed = 1;
nodes = (
(165,433,o),
(202,458,o),
(305,462,c),
(295,414,l),
(260,390,o),
(229,373,o),
(196,373,cs),
(175,373,o),
(165,383,o),
(165,400,cs)
);
}
);
width = 448;
},
{
background = {
shapes = (
{
closed = 1;
nodes = (
(357,320,l),
(368,384,l),
(396,527,ls),
(413,612,o),
(367,646,o),
(280,646,cs),
(240,646,o),
(196,639,o),
(152,628,c),
(156,555,l),
(188,563,o),
(221,570,o),
(253,570,cs),
(290,570,o),
(300,562,o),
(293,529,cs),
(264,384,l),
(259,320,l)
);
},
{
closed = 1;
nodes = (
(225,317,o),
(263,341,o),
(322,408,c),
(286,434,l),
(261,403,o),
(239,387,o),
(215,387,cs),
(199,387,o),
(191,395,o),
(191,406,cs),
(191,430,o),
(216,460,o),
(310,460,c),
(315,518,l),
(204,518,o),
(84,498,o),
(84,397,cs),
(84,348,o),
(121,317,o),
(176,317,cs)
);
}
);
};
layerId = "EBAB10B0-9FDE-44C7-9B16-DD2313400F4E";
shapes = (
{
closed = 1;
nodes = (
(357,320,l),
(368,384,l),
(396,527,ls),
(413,612,o),
(367,646,o),
(280,646,cs),
(240,646,o),
(196,639,o),
(152,628,c),
(156,555,l),
(188,563,o),
(221,570,o),
(253,570,cs),
(290,570,o),
(300,562,o),
(293,529,cs),
(291,518,l),
(187,515,o),
(84,491,o),
(84,397,cs),
(84,348,o),
(121,317,o),
(176,317,cs),
(206,317,o),
(231,326,o),
(261,349,c),
(259,320,l)
);
},
{
closed = 1;
nodes = (
(191,427,o),
(210,453,o),
(279,459,c),
(270,416,l),
(252,398,o),
(234,387,o),
(215,387,cs),
(199,387,o),
(191,395,o),
(191,406,cs)
);
}
);
width = 448;
},
{
background = {
shapes = (
{
closed = 1;
nodes = (
(335,320,l),
(345,384,l),
(374,529,ls),
(392,618,o),
(350,646,o),
(284,646,cs),
(238,646,o),
(195,635,o),
(157,620,c),
(165,587,l),
(203,600,o),
(242,610,o),
(276,610,cs),
(328,610,o),
(347,594,o),
(333,527,cs),
(305,384,l),
(300,320,l)
);
},
{
closed = 1;
nodes = (
(238,316,o),
(284,349,o),
(338,401,c),
(322,425,l),
(270,374,o),
(233,352,o),
(191,352,cs),
(160,352,o),
(143,366,o),
(143,391,cs),
(143,440,o),
(196,474,o),
(347,474,c),
(350,507,l),
(168,507,o),
(98,460,o),
(98,388,cs),
(98,339,o),
(137,316,o),
(183,316,cs)
);
}
);
};
layerId = "C21910D5-47BB-472B-A83D-89B2B42B8F2A";
shapes = (
{
closed = 1;
nodes = (
(335,320,l),
(345,384,l),
(374,529,ls),
(392,618,o),
(350,646,o),
(284,646,cs),
(238,646,o),
(195,635,o),
(157,620,c),
(165,587,l),
(203,600,o),
(242,610,o),
(276,610,cs),
(328,610,o),
(347,594,o),
(333,527,cs),
(329,507,l),
(162,503,o),
(98,457,o),
(98,388,cs),
(98,339,o),
(137,316,o),
(183,316,cs),
(226,316,o),
(264,336,o),
(304,370,c),
(300,320,l)
);
},
{
closed = 1;
nodes = (
(143,437,o),
(189,470,o),
(323,474,c),
(311,414,l),
(264,370,o),
(230,352,o),
(191,352,cs),
(160,352,o),
(143,366,o),
(143,391,cs)
);
}
);
width = 448;
}
);
unicode = 170;
}
{
glyphname = guillemetleft;
kernLeft = hyphen;
kernRight = guillemetleft;
layers = (
{
layerId = "C21910D5-47BB-472B-A83D-89B2B42B8F2A";
shapes = (
{
closed = 1;
nodes = (
(150,48,l),
(130,224,l),
(220,400,l),
(178,413,l),
(75,224,l),
(104,35,l)
);
},
{
closed = 1;
nodes = (
(325,54,l),
(306,224,l),
(393,395,l),
(351,408,l),
(251,224,l),
(279,41,l)
);
}
);
width = 448;
},
{
layerId = "BA106321-29DE-4FD0-898D-B7B08A4D4215";
shapes = (
{
closed = 1;
nodes = (
(163,51,l),
(141,224,l),
(233,397,l),
(166,417,l),
(64,224,l),
(90,31,l)
);
},
{
closed = 1;
nodes = (
(338,57,l),
(317,224,l),
(406,391,l),
(339,411,l),
(240,224,l),
(266,37,l)
);
}
);
width = 448;
},
{
layerId = "EBAB10B0-9FDE-44C7-9B16-DD2313400F4E";
shapes = (
{
closed = 1;
nodes = (
(182,56,l),
(165,224,l),
(249,392,l),
(147,422,l),
(38,224,l),
(69,25,l)
);
},
{
closed = 1;
nodes = (
(358,63,l),
(342,224,l),
(423,386,l),
(321,416,l),
(215,224,l),
(246,32,l)
);
}
);
width = 448;
}
);
unicode = 171;
}
{
glyphname = logicalnot;
layers = (
{
layerId = "C21910D5-47BB-472B-A83D-89B2B42B8F2A";
shapes = (
{
closed = 1;
nodes = (
(405,349,l),
(95,349,l),
(86,305,l),
(348,305,l),
(320,167,l),
(368,167,l)
);
}
);
width = 448;
},
{
layerId = "BA106321-29DE-4FD0-898D-B7B08A4D4215";
shapes = (
{
closed = 1;
nodes = (
(412,354,l),
(90,354,l),
(77,290,l),
(331,290,l),
(306,162,l),
(374,162,l)
);
}
);
width = 448;
},
{
layerId = "EBAB10B0-9FDE-44C7-9B16-DD2313400F4E";
shapes = (
{
closed = 1;
nodes = (
(423,362,l),
(81,362,l),
(65,282,l),
(299,282,l),
(274,154,l),
(382,154,l)
);
}
);
width = 448;
}
);
unicode = 172;
}
{
glyphname = twosuperior;
kernLeft = zerosuperior;
kernRight = zerosuperior;
layers = (
{
background = {
shapes = (
{
closed = 1;
nodes = (
(272,320,l),
(280,358,l),
(133,358,l),
(148,429,o),
(229,441,o),
(278,482,cs),
(306,505,o),
(320,532,o),
(320,566,cs),
(320,608,o),
(292,640,o),
(227,640,cs),
(202,640,o),
(175,637,o),
(153,631,c),
(155,595,l),
(178,599,o),
(197,602,o),
(218,602,cs),
(259,602,o),
(274,590,o),
(274,564,cs),
(274,541,o),
(264,522,o),
(245,507,cs),
(176,449,o),
(97,454,o),
(85,320,c)
);
}
);
};
layerId = "C21910D5-47BB-472B-A83D-89B2B42B8F2A";
shapes = (
{
closed = 1;
nodes = (
(272,320,l),
(280,358,l),
(133,358,l),
(143,429,o),
(243,446,o),
(289,492,cs),
(311,514,o),
(320,534,o),
(320,564,cs),
(320,608,o),
(292,640,o),
(227,640,cs),
(202,640,o),
(175,637,o),
(153,631,c),
(155,595,l),
(178,599,o),
(197,602,o),
(218,602,cs),
(259,602,o),
(274,590,o),
(274,561,cs),
(274,544,o),
(270,530,o),
(252,512,cs),
(196,456,o),
(98,463,o),
(85,320,c)
);
}
);
width = 448;
},
{
background = {
shapes = (
{
closed = 1;
nodes = (
(278,320,l),
(289,374,l),
(153,374,l),
(170,451,o),
(324,444,o),
(324,556,cs),
(324,611,o),
(291,640,o),
(226,640,cs),
(196,640,o),
(168,637,o),
(144,632,c),
(146,579,l),
(170,583,o),
(190,586,o),
(214,586,cs),
(247,586,o),
(257,573,o),
(257,553,cs),
(257,470,o),
(79,494,o),
(79,320,c)
);
}
);
};
layerId = "BA106321-29DE-4FD0-898D-B7B08A4D4215";
shapes = (
{
closed = 1;
nodes = (
(278,320,l),
(289,374,l),
(153,374,l),
(166,428,o),
(253,444,o),
(296,487,cs),
(313,504,o),
(324,525,o),
(324,556,cs),
(324,611,o),
(291,640,o),
(226,640,cs),
(196,640,o),
(168,637,o),
(144,632,c),
(146,579,l),
(170,583,o),
(190,586,o),
(214,586,cs),
(247,586,o),
(257,573,o),
(257,553,cs),
(257,536,o),
(252,527,o),
(241,516,cs),
(195,470,o),
(79,463,o),
(79,320,c)
);
}
);
width = 448;
},
{
background = {
shapes = (
{
closed = 1;
nodes = (
(288,320,l),
(302,390,l),
(116,390,l),
(181,382,l),
(189,426,o),
(257,428,o),
(299,470,cs),
(321,492,o),
(331,517,o),
(331,548,cs),
(331,604,o),
(302,640,o),
(216,640,cs),
(185,640,o),
(157,636,o),
(130,629,c),
(134,562,l),
(153,567,o),
(171,570,o),
(187,570,cs),
(215,570,o),
(225,562,o),
(225,547,cs),
(225,532,o),
(219,522,o),
(211,514,cs),
(171,474,o),
(69,464,o),
(69,320,c)
);
}
);
};
layerId = "EBAB10B0-9FDE-44C7-9B16-DD2313400F4E";
shapes = (
{
closed = 1;
nodes = (
(288,320,l),
(302,390,l),
(177,390,l),
(194,435,o),
(257,435,o),
(299,477,cs),
(320,498,o),
(331,520,o),
(331,552,cs),
(331,605,o),
(299,640,o),
(216,640,cs),
(185,640,o),
(157,636,o),
(130,629,c),
(134,562,l),
(153,567,o),
(171,570,o),
(187,570,cs),
(215,570,o),
(225,561,o),
(225,545,cs),
(225,532,o),
(219,522,o),
(211,514,cs),
(171,474,o),
(69,464,o),
(69,320,c)
);
}
);
width = 448;
}
);
unicode = 178;
}
{
glyphname = threesuperior;
kernLeft = zerosuperior;
kernRight = zerosuperior;
layers = (
{
background = {
shapes = (
{
closed = 1;
nodes = (
(153,467,l),
(238,467,o),
(254,446,o),
(254,423,cs),
(254,388,o),
(224,352,o),
(93,352,c),
(91,314,l),
(220,314,o),
(300,347,o),
(300,427,cs),
(300,479,o),
(257,505,o),
(157,505,c)
);
},
{
closed = 1;
nodes = (
(161,606,l),
(177,608,o),
(199,610,o),
(217,610,cs),
(266,610,o),
(278,596,o),
(278,574,cs),
(278,543,o),
(258,513,o),
(232,489,c),
(262,474,l),
(294,500,o),
(325,535,o),
(325,576,cs),
(325,616,o),
(301,648,o),
(225,648,cs),
(201,648,o),
(177,645,o),
(161,642,c)
);
}
);
};
layerId = "C21910D5-47BB-472B-A83D-89B2B42B8F2A";
shapes = (
{
closed = 1;
nodes = (
(153,467,l),
(238,467,o),
(254,446,o),
(254,423,cs),
(254,388,o),
(224,352,o),
(93,352,c),
(91,314,l),
(220,314,o),
(300,347,o),
(300,427,cs),
(300,451,o),
(290,470,o),
(272,482,c),
(300,507,o),
(325,539,o),
(325,576,cs),
(325,616,o),
(301,648,o),
(225,648,cs),
(201,648,o),
(177,645,o),
(161,642,c),
(161,606,l),
(177,608,o),
(199,610,o),
(217,610,cs),
(266,610,o),
(278,596,o),
(278,574,cs),
(278,546,o),
(261,518,o),
(239,496,c),
(217,502,o),
(191,505,o),
(157,505,c)
);
}
);
width = 448;
},
{
background = {
shapes = (
{
closed = 1;
nodes = (
(146,458,l),
(224,458,o),
(239,444,o),
(239,426,cs),
(239,400,o),
(211,370,o),
(89,370,c),
(86,314,l),
(223,314,o),
(304,349,o),
(304,428,cs),
(304,483,o),
(259,514,o),
(152,514,c)
);
},
{
closed = 1;
nodes = (
(154,589,l),
(174,592,o),
(191,593,o),
(209,593,cs),
(248,593,o),
(262,585,o),
(262,566,cs),
(262,537,o),
(241,512,o),
(213,490,c),
(269,473,l),
(301,500,o),
(327,537,o),
(327,576,cs),
(327,616,o),
(305,648,o),
(218,648,cs),
(199,648,o),
(169,646,o),
(152,643,c)
);
}
);
};
layerId = "BA106321-29DE-4FD0-898D-B7B08A4D4215";
shapes = (
{
closed = 1;
nodes = (
(146,458,l),
(224,458,o),
(239,444,o),
(239,426,cs),
(239,400,o),
(211,370,o),
(89,370,c),
(86,314,l),
(223,314,o),
(304,349,o),
(304,428,cs),
(304,451,o),
(296,469,o),
(280,483,c),
(307,509,o),
(327,542,o),
(327,576,cs),
(327,616,o),
(305,648,o),
(218,648,cs),
(199,648,o),
(169,646,o),
(152,643,c),
(154,589,l),
(174,592,o),
(191,593,o),
(209,593,cs),
(248,593,o),
(262,585,o),
(262,566,cs),
(262,544,o),
(250,525,o),
(231,506,c),
(211,511,o),
(184,514,o),
(152,514,c)
);
}
);
width = 448;
},
{
background = {
shapes = (
{
closed = 1;
nodes = (
(135,450,l),
(198,450,o),
(210,443,o),
(210,429,cs),
(210,410,o),
(186,386,o),
(82,386,c),
(76,314,l),
(222,314,o),
(315,346,o),
(315,433,cs),
(315,489,o),
(263,522,o),
(143,522,c)
);
},
{
closed = 1;
nodes = (
(141,572,l),
(156,575,o),
(172,577,o),
(191,577,cs),
(223,577,o),
(231,570,o),
(231,557,cs),
(231,535,o),
(210,510,o),
(183,491,c),
(279,472,l),
(309,498,o),
(336,532,o),
(336,573,cs),
(336,614,o),
(311,648,o),
(214,648,cs),
(195,648,o),
(168,647,o),
(139,642,c)
);
}
);
};
layerId = "EBAB10B0-9FDE-44C7-9B16-DD2313400F4E";
shapes = (
{
closed = 1;
nodes = (
(135,450,l),
(198,450,o),
(210,443,o),
(210,429,cs),
(210,410,o),
(186,386,o),
(82,386,c),
(76,314,l),
(222,314,o),
(315,346,o),
(315,433,cs),
(315,454,o),
(307,472,o),
(293,485,c),
(316,508,o),
(336,539,o),
(336,573,cs),
(336,614,o),
(311,648,o),
(214,648,cs),
(195,648,o),
(168,647,o),
(139,642,c),
(141,572,l),
(156,575,o),
(172,577,o),
(191,577,cs),
(223,577,o),
(231,570,o),
(231,557,cs),
(231,544,o),
(224,530,o),
(213,517,c),
(193,520,o),
(169,522,o),
(143,522,c)
);
}
);
width = 448;
}
);
unicode = 179;
}
{
glyphname = acute;
layers = (
{
layerId = "C21910D5-47BB-472B-A83D-89B2B42B8F2A";
shapes = (
{
closed = 1;
nodes = (
(387,640,l),
(307,640,l),
(191,384,l),
(244,384,l)
);
}
);
width = 448;
},
{
layerId = "BA106321-29DE-4FD0-898D-B7B08A4D4215";
shapes = (
{
closed = 1;
nodes = (
(397,640,l),
(297,640,l),
(180,384,l),
(254,384,l)
);
}
);
width = 448;
},
{
layerId = "EBAB10B0-9FDE-44C7-9B16-DD2313400F4E";
shapes = (
{
closed = 1;
nodes = (
(416,640,l),
(277,640,l),
(160,384,l),
(274,384,l)
);
}
);
width = 448;
}
);
unicode = 180;
}
{
glyphname = ordmasculine;
kernLeft = zerosuperior;
kernRight = zerosuperior;
layers = (
{
layerId = "BA106321-29DE-4FD0-898D-B7B08A4D4215";
shapes = (
{
closed = 1;
nodes = (
(310,312,o),
(366,381,o),
(385,477,cs),
(405,573,o),
(372,648,o),
(275,648,cs),
(178,648,o),
(123,579,o),
(104,483,cs),
(84,387,o),
(116,312,o),
(213,312,cs)
);
},
{
closed = 1;
nodes = (
(164,367,o),
(153,401,o),
(168,477,cs),
(183,551,o),
(214,593,o),
(269,593,cs),
(324,593,o),
(335,557,o),
(321,483,cs),
(305,407,o),
(274,367,o),
(219,367,cs)
);
}
);
width = 448;
},
{
layerId = "EBAB10B0-9FDE-44C7-9B16-DD2313400F4E";
shapes = (
{
closed = 1;
nodes = (
(321,312,o),
(381,380,o),
(400,476,cs),
(419,572,o),
(381,648,o),
(274,648,cs),
(167,648,o),
(108,580,o),
(89,484,cs),
(70,388,o),
(107,312,o),
(214,312,cs)
);
},
{
closed = 1;
nodes = (
(186,384,o),
(180,412,o),
(193,476,cs),
(206,539,o),
(230,576,o),
(266,576,cs),
(303,576,o),
(308,547,o),
(296,484,cs),
(283,420,o),
(259,384,o),
(222,384,cs)
);
}
);
width = 448;
},
{
layerId = "C21910D5-47BB-472B-A83D-89B2B42B8F2A";
shapes = (
{
closed = 1;
nodes = (
(308,312,o),
(359,385,o),
(378,478,cs),
(397,571,o),
(377,648,o),
(277,648,cs),
(177,648,o),
(130,575,o),
(112,482,cs),
(94,389,o),
(113,312,o),
(213,312,cs)
);
},
{
closed = 1;
nodes = (
(156,348,o),
(134,381,o),
(154,478,cs),
(174,574,o),
(210,612,o),
(273,612,cs),
(335,612,o),
(355,578,o),
(336,482,cs),
(317,385,o),
(278,348,o),
(217,348,cs)
);
}
);
width = 448;
}
);
unicode = 186;
}
{
glyphname = AE;
kernLeft = A;
kernRight = E;
layers = (
{
anchors = (
{
name = bottom;
pos = (179,0);
},
{
name = top;
pos = (348,640);
}
);
background = {
anchors = (
{
name = bottom;
pos = (179,0);
},
{
name = top;
pos = (348,640);
}
);
shapes = (
{
closed = 1;
nodes = (
(262,266,l),
(396,266,l),
(405,310,l),
(271,310,l),
(328,596,l),
(516,596,l),
(525,640,l),
(231,640,l),
(115,476,o),
(13,243,o),
(-58,0,c),
(-5,0,l),
(67,243,o),
(158,448,o),
(255,596,c),
(280,596,l),
(161,0,l),
(407,0,l),
(416,44,l),
(218,44,l)
);
},
{
closed = 1;
nodes = (
(39,202,l),
(230,202,l),
(238,246,l),
(47,246,l)
);
}
);
};
layerId = "C21910D5-47BB-472B-A83D-89B2B42B8F2A";
shapes = (
{
closed = 1;
nodes = (
(262,266,l),
(396,266,l),
(405,310,l),
(271,310,l),
(328,596,l),
(516,596,l),
(525,640,l),
(231,640,l),
(115,476,o),
(13,243,o),
(-58,0,c),
(-5,0,l),
(16,71,o),
(38,137,o),
(62,202,c),
(201,202,l),
(161,0,l),
(407,0,l),
(416,44,l),
(218,44,l)
);
},
{
closed = 1;
nodes = (
(133,383,o),
(192,500,o),
(255,596,c),
(280,596,l),
(210,246,l),
(79,246,l)
);
}
);
width = 448;
},
{
anchors = (
{
name = bottom;
pos = (179,0);
},
{
name = top;
pos = (348,640);
}
);
background = {
anchors = (
{
name = bottom;
pos = (179,0);
},
{
name = top;
pos = (348,640);
}
);
shapes = (
{
closed = 1;
nodes = (
(277,256,l),
(400,256,l),
(413,320,l),
(290,320,l),
(341,576,l),
(518,576,l),
(531,640,l),
(217,640,l),
(103,475,o),
(6,243,o),
(-63,0,c),
(12,0,l),
(81,238,o),
(166,439,o),
(254,576,c),
(269,576,l),
(154,0,l),
(413,0,l),
(426,64,l),
(239,64,l)
);
},
{
closed = 1;
nodes = (
(37,192,l),
(228,192,l),
(240,256,l),
(49,256,l)
);
}
);
};
layerId = "BA106321-29DE-4FD0-898D-B7B08A4D4215";
shapes = (
{
closed = 1;
nodes = (
(277,256,l),
(400,256,l),
(413,320,l),
(290,320,l),
(341,576,l),
(518,576,l),
(531,640,l),
(217,640,l),
(103,475,o),
(6,243,o),
(-63,0,c),
(12,0,l),
(31,66,o),
(52,131,o),
(74,192,c),
(192,192,l),
(154,0,l),
(413,0,l),
(426,64,l),
(239,64,l)
);
},
{
closed = 1;
nodes = (
(147,383,o),
(200,492,o),
(254,576,c),
(269,576,l),
(205,256,l),
(98,256,l)
);
}
);
width = 448;
},
{
anchors = (
{
name = bottom;
pos = (179,0);
},
{
name = top;
pos = (348,640);
}
);
background = {
anchors = (
{
name = bottom;
pos = (179,0);
},
{
name = top;
pos = (348,640);
}
);
shapes = (
{
closed = 1;
nodes = (
(304,248,l),
(414,248,l),
(430,327,l),
(320,327,l),
(366,560,l),
(525,560,l),
(541,640,l),
(181,640,l),
(81,473,o),
(-8,243,o),
(-73,0,c),
(42,0,l),
(105,234,o),
(178,427,o),
(240,560,c),
(254,560,l),
(142,0,l),
(423,0,l),
(439,80,l),
(270,80,l)
);
},
{
closed = 1;
nodes = (
(30,160,l),
(221,160,l),
(237,240,l),
(46,240,l)
);
}
);
};
layerId = "EBAB10B0-9FDE-44C7-9B16-DD2313400F4E";
shapes = (
{
closed = 1;
nodes = (
(304,248,l),
(414,248,l),
(430,327,l),
(320,327,l),
(366,560,l),
(525,560,l),
(541,640,l),
(181,640,l),
(81,473,o),
(-8,243,o),
(-73,0,c),
(42,0,l),
(57,56,o),
(72,108,o),
(88,160,c),
(174,160,l),
(142,0,l),
(423,0,l),
(439,80,l),
(270,80,l)
);
},
{
closed = 1;
nodes = (
(157,368,o),
(201,476,o),
(240,560,c),
(254,560,l),
(190,240,l),
(114,240,l)
);
}
);
width = 448;
}
);
unicode = 198;
}
{
color = 7;
glyphname = Eth;
kernRight = O;
layers = (
{
layerId = "C21910D5-47BB-472B-A83D-89B2B42B8F2A";
shapes = (
{
closed = 1;
nodes = (
(19,266,l),
(238,266,l),
(247,310,l),
(28,310,l)
);
},
{
ref = D;
}
);
width = 448;
},
{
layerId = "BA106321-29DE-4FD0-898D-B7B08A4D4215";
shapes = (
{
closed = 1;
nodes = (
(11,256,l),
(242,256,l),
(255,320,l),
(24,320,l)
);
},
{
ref = D;
}
);
width = 448;
},
{
layerId = "EBAB10B0-9FDE-44C7-9B16-DD2313400F4E";
shapes = (
{
closed = 1;
nodes = (
(0,248,l),
(251,248,l),
(267,328,l),
(16,328,l)
);
},
{
ref = D;
}
);
width = 448;
}
);
unicode = 208;
}
{
glyphname = multiply;
layers = (
{
background = {
shapes = (
{
closed = 1;
nodes = (
(357,103,l),
(391,132,l),
(119,470,l),
(85,441,l)
);
},
{
closed = 1;
nodes = (
(448,437,l),
(422,469,l),
(22,135,l),
(48,103,l)
);
}
);
};
layerId = "C21910D5-47BB-472B-A83D-89B2B42B8F2A";
shapes = (
{
closed = 1;
nodes = (
(207,289,l),
(22,135,l),
(48,103,l),
(233,257,l),
(357,103,l),
(391,132,l),
(267,286,l),
(448,437,l),
(422,469,l),
(241,318,l),
(119,470,l),
(85,441,l)
);
}
);
width = 448;
},
{
background = {
shapes = (
{
closed = 1;
nodes = (
(339,102,l),
(395,150,l),
(136,471,l),
(80,423,l)
);
},
{
closed = 1;
nodes = (
(447,420,l),
(404,471,l),
(23,153,l),
(66,102,l)
);
}
);
};
layerId = "BA106321-29DE-4FD0-898D-B7B08A4D4215";
shapes = (
{
closed = 1;
nodes = (
(187,290,l),
(23,153,l),
(66,102,l),
(229,238,l),
(339,102,l),
(395,150,l),
(286,285,l),
(447,420,l),
(404,471,l),
(244,337,l),
(136,471,l),
(80,423,l)
);
}
);
width = 448;
},
{
background = {
shapes = (
{
closed = 1;
nodes = (
(327,92,l),
(408,161,l),
(149,481,l),
(68,412,l)
);
},
{
closed = 1;
nodes = (
(454,404,l),
(389,481,l),
(16,169,l),
(81,92,l)
);
}
);
};
layerId = "EBAB10B0-9FDE-44C7-9B16-DD2313400F4E";
shapes = (
{
closed = 1;
nodes = (
(164,293,l),
(16,169,l),
(81,92,l),
(228,215,l),
(327,92,l),
(408,161,l),
(309,283,l),
(454,404,l),
(389,481,l),
(246,361,l),
(149,481,l),
(68,412,l)
);
}
);
width = 448;
}
);
unicode = 215;
}
{
color = 7;
glyphname = thorn;
kernLeft = h;
kernRight = o;
layers = (
{
layerId = "C21910D5-47BB-472B-A83D-89B2B42B8F2A";
shapes = (
{
closed = 1;
nodes = (
(31,-192,l),
(197,640,l),
(149,640,l),
(-17,-192,l)
);
},
{
ref = _part.bowl.descender;
}
);
width = 448;
},
{
layerId = "BA106321-29DE-4FD0-898D-B7B08A4D4215";
shapes = (
{
closed = 1;
nodes = (
(49,-192,l),
(215,640,l),
(143,640,l),
(-23,-192,l)
);
},
{
ref = _part.bowl.descender;
}
);
width = 448;
},
{
layerId = "EBAB10B0-9FDE-44C7-9B16-DD2313400F4E";
shapes = (
{
closed = 1;
nodes = (
(79,-192,l),
(245,640,l),
(133,640,l),
(-33,-192,l)
);
},
{
ref = _part.bowl.descender;
}
);
width = 448;
},
{
associatedMasterId = "BA106321-29DE-4FD0-898D-B7B08A4D4215";
attr = {
coordinates = (
400,
-64,
1
);
};
layerId = "FE9248BC-247B-470B-9CA0-3FF13F60CB80";
name = "{400, 1, -64}";
shapes = (
{
closed = 1;
nodes = (
(74,-64,l),
(215,640,l),
(143,640,l),
(2,-64,l)
);
},
{
ref = _part.bowl.descender;
}
);
width = 448;
}
);
unicode = 254;
}
{
color = 7;
glyphname = Hbar;
layers = (
{
layerId = "C21910D5-47BB-472B-A83D-89B2B42B8F2A";
shapes = (
{
closed = 1;
nodes = (
(56,452,l),
(483,452,l),
(492,496,l),
(65,496,l)
);
},
{
ref = H;
}
);
width = 448;
},
{
layerId = "BA106321-29DE-4FD0-898D-B7B08A4D4215";
shapes = (
{
closed = 1;
nodes = (
(53,440,l),
(480,440,l),
(493,500,l),
(66,500,l)
);
},
{
ref = H;
}
);
width = 448;
},
{
layerId = "EBAB10B0-9FDE-44C7-9B16-DD2313400F4E";
shapes = (
{
closed = 1;
nodes = (
(43,440,l),
(490,440,l),
(506,516,l),
(59,516,l)
);
},
{
ref = H;
}
);
width = 448;
}
);
unicode = 294;
}
{
glyphname = idotless;
kernLeft = idotless;
kernRight = u;
layers = (
{
anchors = (
{
name = "#center";
pos = (224,224);
},
{
name = bottom;
pos = (185,0);
},
{
name = bottomAttach;
pos = (209,0);
},
{
name = center;
pos = (218,192);
},
{
name = top;
pos = (271,448);
}
);
layerId = "C21910D5-47BB-472B-A83D-89B2B42B8F2A";
shapes = (
{
closed = 1;
nodes = (
(209,0,l),
(299,448,l),
(127,448,l),
(119,410,l),
(242,402,l),
(161,0,l)
);
}
);
width = 448;
},
{
anchors = (
{
name = "#center";
pos = (224,224);
},
{
name = bottom;
pos = (189,0);
},
{
name = bottomAttach;
pos = (225,0);
},
{
name = center;
pos = (218,192);
},
{
name = top;
pos = (275,448);
}
);
layerId = "BA106321-29DE-4FD0-898D-B7B08A4D4215";
shapes = (
{
closed = 1;
nodes = (
(225,0,l),
(315,448,l),
(119,448,l),
(107,390,l),
(230,382,l),
(153,0,l)
);
}
);
width = 448;
},
{
anchors = (
{
name = "#center";
pos = (224,224);
},
{
name = bottom;
pos = (195,0);
},
{
name = bottomAttach;
pos = (251,0);
},
{
name = center;
pos = (218,192);
},
{
name = top;
pos = (281,448);
}
);
layerId = "EBAB10B0-9FDE-44C7-9B16-DD2313400F4E";
shapes = (
{
closed = 1;
nodes = (
(252,0,l),
(342,448,l),
(104,448,l),
(89,374,l),
(211,366,l),
(138,0,l)
);
}
);
width = 448;
}
);
unicode = 305;
}
{
glyphname = IJ;
kernLeft = I;
kernRight = U;
layers = (
{
anchors = (
{
name = top;
pos = (307,640);
}
);
layerId = "C21910D5-47BB-472B-A83D-89B2B42B8F2A";
shapes = (
{
closed = 1;
nodes = (
(175,0,ls),
(267,0,o),
(341,49,o),
(367,179,cs),
(459,640,l),
(327,640,l),
(318,596,l),
(402,596,l),
(319,179,ls),
(301,91,o),
(255,44,o),
(180,44,cs),
(84,44,l),
(194,596,l),
(266,604,l),
(273,640,l),
(91,640,l),
(84,604,l),
(146,596,l),
(36,44,l),
(-36,36,l),
(-43,0,l)
);
}
);
width = 448;
},
{
anchors = (
{
name = top;
pos = (307,640);
}
);
layerId = "BA106321-29DE-4FD0-898D-B7B08A4D4215";
shapes = (
{
closed = 1;
nodes = (
(188,0,ls),
(284,0,o),
(359,48,o),
(385,178,cs),
(477,640,l),
(321,640,l),
(308,576,l),
(392,576,l),
(313,180,ls),
(299,111,o),
(268,64,o),
(195,64,cs),
(106,64,l),
(208,576,l),
(266,586,l),
(277,640,l),
(93,640,l),
(82,586,l),
(136,576,l),
(34,64,l),
(-28,54,l),
(-39,0,l)
);
}
);
width = 448;
},
{
anchors = (
{
name = top;
pos = (307,640);
}
);
layerId = "EBAB10B0-9FDE-44C7-9B16-DD2313400F4E";
shapes = (
{
closed = 1;
nodes = (
(192,0,ls),
(300,0,o),
(383,47,o),
(409,177,cs),
(501,640,l),
(305,640,l),
(289,560,l),
(373,560,l),
(297,181,ls),
(285,122,o),
(259,80,o),
(202,80,cs),
(125,80,l),
(222,560,l),
(258,572,l),
(271,640,l),
(83,640,l),
(70,572,l),
(109,560,l),
(13,80,l),
(-31,68,l),
(-45,0,l)
);
}
);
width = 448;
}
);
unicode = 306;
}
{
glyphname = oe;
layers = (
{
anchors = (
{
name = bottom;
pos = (179,0);
},
{
name = bottomAttach;
pos = (364,0);
},
{
name = top;
pos = (269,448);
}
);
background = {
anchors = (
{
name = bottom;
pos = (179,0);
},
{
name = bottomAttach;
pos = (364,0);
},
{
name = top;
pos = (269,448);
}
);
shapes = (
{
closed = 1;
nodes = (
(169,-9,o),
(224,93,o),
(249,220,cs),
(275,351,o),
(263,457,o),
(165,457,cs),
(68,457,o),
(16,355,o),
(-9,228,cs),
(-36,97,o),
(-22,-9,o),
(79,-9,cs)
);
},
{
closed = 1;
nodes = (
(28,33,o),
(12,81,o),
(40,220,cs),
(68,361,o),
(106,415,o),
(163,415,cs),
(219,415,o),
(232,365,o),
(205,228,cs),
(176,85,o),
(137,33,o),
(80,33,cs)
);
},
{
closed = 1;
nodes = (
(335,-9,o),
(367,-2,o),
(400,13,c),
(395,52,l),
(367,41,o),
(337,33,o),
(310,33,cs),
(236,33,o),
(231,103,o),
(254,220,cs),
(282,360,o),
(316,413,o),
(371,413,cs),
(423,413,o),
(437,356,o),
(404,226,c),
(430,256,l),
(235,256,l),
(227,214,l),
(453,214,l),
(492,367,o),
(459,457,o),
(373,457,cs),
(285,457,o),
(235,355,o),
(210,228,cs),
(183,97,o),
(195,-9,o),
(301,-9,cs)
);
}
);
};
layerId = "C21910D5-47BB-472B-A83D-89B2B42B8F2A";
shapes = (
{
closed = 1;
nodes = (
(131,-9,o),
(171,25,o),
(201,79,c),
(211,24,o),
(241,-9,o),
(301,-9,cs),
(335,-9,o),
(367,-2,o),
(400,13,c),
(395,52,l),
(367,41,o),
(337,33,o),
(310,33,cs),
(237,33,o),
(231,100,o),
(253,214,c),
(453,214,l),
(492,367,o),
(459,457,o),
(373,457,cs),
(323,457,o),
(285,424,o),
(257,372,c),
(248,423,o),
(220,457,o),
(165,457,cs),
(68,457,o),
(16,355,o),
(-9,228,cs),
(-36,97,o),
(-22,-9,o),
(79,-9,cs)
);
},
{
closed = 1;
nodes = (
(28,33,o),
(12,81,o),
(40,220,cs),
(68,361,o),
(106,415,o),
(163,415,cs),
(219,415,o),
(232,365,o),
(205,228,cs),
(176,85,o),
(137,33,o),
(80,33,cs)
);
},
{
closed = 1;
nodes = (
(289,370,o),
(321,413,o),
(371,413,cs),
(419,413,o),
(434,364,o),
(411,256,c),
(262,256,l)
);
}
);
width = 448;
},
{
anchors = (
{
name = bottom;
pos = (179,0);
},
{
name = bottomAttach;
pos = (364,0);
},
{
name = top;
pos = (269,448);
}
);
background = {
anchors = (
{
name = bottom;
pos = (179,0);
},
{
name = bottomAttach;
pos = (364,0);
},
{
name = top;
pos = (269,448);
}
);
shapes = (
{
closed = 1;
nodes = (
(176,-9,o),
(225,92,o),
(250,218,cs),
(276,350,o),
(267,457,o),
(161,457,cs),
(63,457,o),
(10,356,o),
(-15,230,cs),
(-41,98,o),
(-25,-9,o),
(77,-9,cs)
);
},
{
closed = 1;
nodes = (
(43,55,o),
(34,95,o),
(59,218,cs),
(84,345,o),
(115,393,o),
(163,393,cs),
(206,393,o),
(214,351,o),
(190,230,cs),
(164,101,o),
(134,55,o),
(85,55,cs)
);
},
{
closed = 1;
nodes = (
(334,-9,o),
(369,-3,o),
(408,13,c),
(398,73,l),
(368,63,o),
(340,55,o),
(307,55,cs),
(248,55,o),
(237,95,o),
(262,218,cs),
(287,345,o),
(318,393,o),
(367,393,cs),
(413,393,o),
(412,343,o),
(383,227,c),
(432,262,l),
(237,262,l),
(224,202,l),
(454,202,l),
(495,355,o),
(484,457,o),
(373,457,cs),
(273,457,o),
(225,356,o),
(200,230,cs),
(174,98,o),
(185,-9,o),
(300,-9,cs)
);
}
);
};
layerId = "BA106321-29DE-4FD0-898D-B7B08A4D4215";
shapes = (
{
closed = 1;
nodes = (
(129,-9,o),
(168,20,o),
(196,65,c),
(209,20,o),
(241,-9,o),
(300,-9,cs),
(334,-9,o),
(369,-3,o),
(408,13,c),
(398,73,l),
(368,63,o),
(340,55,o),
(307,55,cs),
(251,55,o),
(238,91,o),
(259,202,c),
(454,202,l),
(495,355,o),
(484,457,o),
(373,457,cs),
(321,457,o),
(283,430,o),
(255,386,c),
(243,429,o),
(214,457,o),
(161,457,cs),
(63,457,o),
(10,356,o),
(-15,230,cs),
(-41,98,o),
(-25,-9,o),
(77,-9,cs)
);
},
{
closed = 1;
nodes = (
(43,55,o),
(34,95,o),
(59,218,cs),
(84,345,o),
(115,393,o),
(163,393,cs),
(206,393,o),
(214,351,o),
(190,230,cs),
(164,101,o),
(134,55,o),
(85,55,cs)
);
},
{
closed = 1;
nodes = (
(295,355,o),
(324,393,o),
(367,393,cs),
(408,393,o),
(412,354,o),
(391,262,c),
(272,262,l)
);
}
);
width = 448;
},
{
anchors = (
{
name = bottom;
pos = (179,0);
},
{
name = bottomAttach;
pos = (364,0);
},
{
name = top;
pos = (269,448);
}
);
background = {
anchors = (
{
name = bottom;
pos = (179,0);
},
{
name = bottomAttach;
pos = (364,0);
},
{
name = top;
pos = (269,448);
}
);
shapes = (
{
closed = 1;
nodes = (
(191,-9,o),
(242,91,o),
(267,215,cs),
(294,351,o),
(283,461,o),
(167,461,cs),
(58,461,o),
(1,359,o),
(-24,233,cs),
(-51,99,o),
(-30,-9,o),
(86,-9,cs)
);
},
{
closed = 1;
nodes = (
(68,71,o),
(66,106,o),
(88,215,cs),
(112,335,o),
(136,381,o),
(167,381,cs),
(194,381,o),
(197,343,o),
(175,233,cs),
(151,114,o),
(126,71,o),
(92,71,cs)
);
},
{
closed = 1;
nodes = (
(336,-9,o),
(375,-4,o),
(416,12,c),
(408,90,l),
(381,80,o),
(353,71,o),
(322,71,cs),
(268,71,o),
(263,106,o),
(285,215,cs),
(309,335,o),
(332,381,o),
(361,381,cs),
(386,381,o),
(380,336,o),
(357,228,c),
(432,266,l),
(237,266,l),
(222,189,l),
(464,189,l),
(510,350,o),
(498,461,o),
(372,461,cs),
(265,461,o),
(216,359,o),
(191,233,cs),
(164,99,o),
(178,-9,o),
(304,-9,cs)
);
}
);
};
layerId = "EBAB10B0-9FDE-44C7-9B16-DD2313400F4E";
shapes = (
{
closed = 1;
nodes = (
(133,-9,o),
(170,11,o),
(198,45,c),
(216,12,o),
(250,-9,o),
(304,-9,cs),
(336,-9,o),
(375,-4,o),
(416,12,c),
(408,90,l),
(381,80,o),
(353,71,o),
(322,71,cs),
(273,71,o),
(264,100,o),
(280,189,c),
(464,189,l),
(510,350,o),
(498,461,o),
(372,461,cs),
(325,461,o),
(290,442,o),
(262,409,c),
(245,442,o),
(216,461,o),
(167,461,cs),
(58,461,o),
(1,359,o),
(-24,233,cs),
(-51,99,o),
(-30,-9,o),
(86,-9,cs)
);
},
{
closed = 1;
nodes = (
(68,71,o),
(66,106,o),
(88,215,cs),
(112,335,o),
(136,381,o),
(167,381,cs),
(194,381,o),
(197,343,o),
(175,233,cs),
(151,114,o),
(126,71,o),
(92,71,cs)
);
},
{
closed = 1;
nodes = (
(316,348,o),
(337,381,o),
(361,381,cs),
(383,381,o),
(381,346,o),
(365,266,c),
(296,266,l)
);
}
);
width = 448;
}
);
unicode = 339;
}
{
glyphname = chook;
kernLeft = o;
kernRight = c;
layers = (
{
anchors = (
{
name = bottom;
pos = (157,0);
},
{
name = bottomAttach;
pos = (267,0);
},
{
name = top;
pos = (320,624);
}
);
background = {
anchors = (
{
name = bottom;
pos = (157,0);
},
{
name = bottomAttach;
pos = (267,0);
},
{
name = top;
pos = (320,624);
}
);
shapes = (
{
closed = 1;
nodes = (
(232,-7,o),
(274,-3,o),
(318,11,c),
(312,73,l),
(274,63,o),
(242,57,o),
(206,57,cs),
(119,57,o),
(100,96,o),
(125,221,cs),
(149,343,o),
(195,391,o),
(271,391,cs),
(308,391,o),
(332,384,o),
(360,367,c),
(388,414,l),
(358,440,o),
(317,453,o),
(271,453,cs),
(139,453,o),
(74,351,o),
(50,227,cs),
(25,99,o),
(50,-7,o),
(194,-7,cs)
);
},
{
closed = 1;
nodes = (
(401,418,l),
(370,455,o),
(365,483,o),
(373,524,cs),
(379,557,o),
(404,580,o),
(441,580,cs),
(452,580,o),
(469,579,o),
(480,577,c),
(496,631,l),
(484,635,o),
(463,640,o),
(442,640,cs),
(373,640,o),
(323,605,o),
(309,535,cs),
(299,483,o),
(321,431,o),
(366,391,c),
(360,367,l)
);
}
);
};
layerId = "BA106321-29DE-4FD0-898D-B7B08A4D4215";
shapes = (
{
closed = 1;
nodes = (
(232,-7,o),
(274,-3,o),
(318,11,c),
(312,73,l),
(274,63,o),
(242,57,o),
(206,57,cs),
(119,57,o),
(100,96,o),
(125,221,cs),
(149,343,o),
(195,391,o),
(271,391,cs),
(308,391,o),
(332,384,o),
(360,367,c),
(401,418,l),
(370,455,o),
(365,483,o),
(373,524,cs),
(379,557,o),
(404,580,o),
(441,580,cs),
(452,580,o),
(469,579,o),
(480,577,c),
(496,631,l),
(484,635,o),
(463,640,o),
(442,640,cs),
(373,640,o),
(323,605,o),
(309,535,cs),
(303,504,o),
(308,475,o),
(322,447,c),
(306,451,o),
(289,453,o),
(271,453,cs),
(139,453,o),
(74,351,o),
(50,227,cs),
(25,99,o),
(50,-7,o),
(194,-7,cs)
);
}
);
width = 448;
},
{
anchors = (
{
name = bottom;
pos = (157,0);
},
{
name = bottomAttach;
pos = (267,0);
},
{
name = top;
pos = (320,624);
}
);
background = {
anchors = (
{
name = bottom;
pos = (157,0);
},
{
name = bottomAttach;
pos = (267,0);
},
{
name = top;
pos = (320,624);
}
);
shapes = (
{
closed = 1;
nodes = (
(247,-7,o),
(291,-3,o),
(339,15,c),
(331,92,l),
(301,84,o),
(268,77,o),
(238,77,cs),
(159,77,o),
(143,110,o),
(165,220,cs),
(187,328,o),
(224,371,o),
(293,371,cs),
(325,371,o),
(357,365,o),
(378,355,c),
(414,413,l),
(375,439,o),
(324,452,o),
(276,452,cs),
(139,452,o),
(77,356,o),
(51,228,cs),
(25,100,o),
(50,-7,o),
(206,-7,cs)
);
},
{
closed = 1;
nodes = (
(414,413,l),
(387,447,o),
(383,473,o),
(390,508,cs),
(396,540,o),
(418,564,o),
(451,564,cs),
(463,564,o),
(477,563,o),
(486,560,c),
(505,631,l),
(488,636,o),
(461,640,o),
(432,640,cs),
(357,640,o),
(304,608,o),
(290,541,cs),
(279,487,o),
(309,432,o),
(367,391,c),
(357,366,l)
);
}
);
};
layerId = "EBAB10B0-9FDE-44C7-9B16-DD2313400F4E";
shapes = (
{
closed = 1;
nodes = (
(247,-7,o),
(291,-3,o),
(339,15,c),
(331,92,l),
(301,84,o),
(268,77,o),
(238,77,cs),
(159,77,o),
(143,110,o),
(165,220,cs),
(187,328,o),
(224,371,o),
(293,371,cs),
(325,371,o),
(357,365,o),
(378,355,c),
(414,413,l),
(387,447,o),
(383,473,o),
(390,508,cs),
(396,540,o),
(418,564,o),
(451,564,cs),
(463,564,o),
(477,563,o),
(486,560,c),
(505,631,l),
(488,636,o),
(461,640,o),
(432,640,cs),
(357,640,o),
(304,608,o),
(290,541,cs),
(284,511,o),
(291,478,o),
(309,450,c),
(299,451,o),
(287,452,o),
(276,452,cs),
(139,452,o),
(77,356,o),
(51,228,cs),
(25,100,o),
(50,-7,o),
(206,-7,cs)
);
}
);
width = 448;
},
{
anchors = (
{
name = bottom;
pos = (157,0);
},
{
name = bottomAttach;
pos = (256,0);
},
{
name = top;
pos = (320,624);
}
);
background = {
anchors = (
{
name = bottom;
pos = (157,0);
},
{
name = bottomAttach;
pos = (256,0);
},
{
name = top;
pos = (320,624);
}
);
shapes = (
{
closed = 1;
nodes = (
(225,-7,o),
(267,0,o),
(308,12,c),
(304,54,l),
(262,42,o),
(224,36,o),
(194,36,cs),
(100,36,o),
(76,97,o),
(101,222,cs),
(126,346,o),
(174,413,o),
(260,413,cs),
(293,413,o),
(326,406,o),
(364,380,c),
(388,409,l),
(354,436,o),
(313,454,o),
(267,454,cs),
(139,454,o),
(75,354,o),
(50,226,cs),
(25,98,o),
(50,-7,o),
(183,-7,cs)
);
},
{
closed = 1;
nodes = (
(389,409,l),
(357,449,o),
(352,483,o),
(360,526,cs),
(369,570,o),
(392,596,o),
(434,596,cs),
(450,596,o),
(466,593,o),
(478,590,c),
(492,627,l),
(476,633,o),
(455,638,o),
(434,638,cs),
(374,638,o),
(329,599,o),
(316,535,cs),
(306,485,o),
(321,439,o),
(352,404,c),
(364,380,l)
);
}
);
};
layerId = "C21910D5-47BB-472B-A83D-89B2B42B8F2A";
shapes = (
{
closed = 1;
nodes = (
(225,-7,o),
(267,0,o),
(308,12,c),
(304,54,l),
(262,42,o),
(224,36,o),
(194,36,cs),
(100,36,o),
(76,97,o),
(101,222,cs),
(126,346,o),
(174,413,o),
(260,413,cs),
(293,413,o),
(326,406,o),
(364,380,c),
(389,409,l),
(357,449,o),
(352,483,o),
(360,526,cs),
(369,570,o),
(392,596,o),
(434,596,cs),
(450,596,o),
(466,593,o),
(478,590,c),
(492,627,l),
(476,633,o),
(455,638,o),
(434,638,cs),
(374,638,o),
(329,599,o),
(316,535,cs),
(309,501,o),
(314,471,o),
(326,444,c),
(308,450,o),
(288,454,o),
(267,454,cs),
(139,454,o),
(75,354,o),
(50,226,cs),
(25,98,o),
(50,-7,o),
(183,-7,cs)
);
}
);
width = 448;
}
);
unicode = 392;
}
{
glyphname = Eturned;
kernLeft = Eturned;
layers = (
{
anchors = (
{
name = bottom;
pos = (179,0);
},
{
name = top;
pos = (307,640);
}
);
layerId = "BA106321-29DE-4FD0-898D-B7B08A4D4215";
shapes = (
{
closed = 1;
nodes = (
(344,0,l),
(472,640,l),
(158,640,l),
(145,576,l),
(387,576,l),
(336,320,l),
(148,320,l),
(135,256,l),
(323,256,l),
(285,64,l),
(33,64,l),
(20,0,l)
);
}
);
width = 448;
},
{
anchors = (
{
name = bottom;
pos = (179,0);
},
{
name = top;
pos = (307,640);
}
);
layerId = "EBAB10B0-9FDE-44C7-9B16-DD2313400F4E";
shapes = (
{
closed = 1;
nodes = (
(354,0,l),
(482,640,l),
(138,640,l),
(122,560,l),
(354,560,l),
(308,328,l),
(130,328,l),
(114,248,l),
(292,248,l),
(258,80,l),
(16,80,l),
(0,0,l)
);
}
);
width = 448;
},
{
anchors = (
{
name = bottom;
pos = (179,0);
},
{
name = top;
pos = (307,640);
}
);
layerId = "C21910D5-47BB-472B-A83D-89B2B42B8F2A";
shapes = (
{
closed = 1;
nodes = (
(338,0,l),
(466,640,l),
(170,640,l),
(161,596,l),
(409,596,l),
(352,310,l),
(158,310,l),
(149,266,l),
(343,266,l),
(299,44,l),
(41,44,l),
(32,0,l)
);
}
);
width = 448;
}
);
unicode = 398;
}
{
glyphname = Schwa;
kernLeft = O;
kernRight = O;
layers = (
{
anchors = (
{
name = bottom;
pos = (179,0);
},
{
name = top;
pos = (307,640);
}
);
background = {
anchors = (
{
name = bottom;
pos = (179,0);
},
{
name = top;
pos = (307,640);
}
);
shapes = (
{
closed = 1;
nodes = (
(304,-10,o),
(380,100,o),
(423,315,cs),
(472,558,o),
(432,647,o),
(278,647,cs),
(241,647,o),
(204,642,o),
(167,634,c),
(171,593,l),
(206,599,o),
(240,603,o),
(270,603,cs),
(400,603,o),
(416,537,o),
(373,323,cs),
(331,114,o),
(278,34,o),
(183,34,cs),
(90,34,o),
(75,120,o),
(116,330,c),
(405,330,l),
(414,374,l),
(74,376,l),
(70,360,o),
(66,339,o),
(63,323,cs),
(19,104,o),
(57,-10,o),
(181,-10,cs)
);
}
);
};
layerId = "C21910D5-47BB-472B-A83D-89B2B42B8F2A";
shapes = (
{
closed = 1;
nodes = (
(304,-10,o),
(380,100,o),
(423,315,cs),
(472,558,o),
(432,647,o),
(278,647,cs),
(241,647,o),
(204,642,o),
(167,634,c),
(171,593,l),
(206,599,o),
(240,603,o),
(270,603,cs),
(389,603,o),
(413,548,o),
(383,374,c),
(74,376,l),
(70,360,o),
(66,339,o),
(63,323,cs),
(19,104,o),
(57,-10,o),
(181,-10,cs)
);
},
{
closed = 1;
nodes = (
(374,330,l),
(373,323,l),
(331,114,o),
(278,34,o),
(183,34,cs),
(90,34,o),
(75,120,o),
(116,330,c)
);
}
);
width = 448;
},
{
anchors = (
{
name = bottom;
pos = (179,0);
},
{
name = top;
pos = (307,640);
}
);
background = {
anchors = (
{
name = bottom;
pos = (179,0);
},
{
name = top;
pos = (307,640);
}
);
shapes = (
{
closed = 1;
nodes = (
(309,-10,o),
(386,99,o),
(429,313,cs),
(478,557,o),
(435,647,o),
(277,647,cs),
(246,647,o),
(199,643,o),
(159,633,c),
(166,570,l),
(206,579,o),
(243,583,o),
(268,583,cs),
(396,583,o),
(392,510,o),
(355,325,cs),
(316,131,o),
(269,56,o),
(185,56,cs),
(107,56,o),
(94,128,o),
(132,320,c),
(403,320,l),
(416,384,l),
(71,387,l),
(67,368,o),
(61,344,o),
(57,325,cs),
(13,105,o),
(54,-10,o),
(182,-10,cs)
);
}
);
};
layerId = "BA106321-29DE-4FD0-898D-B7B08A4D4215";
shapes = (
{
closed = 1;
nodes = (
(309,-10,o),
(386,99,o),
(429,313,cs),
(478,557,o),
(435,647,o),
(277,647,cs),
(246,647,o),
(199,643,o),
(159,633,c),
(166,570,l),
(206,579,o),
(243,583,o),
(268,583,cs),
(381,583,o),
(391,526,o),
(366,384,c),
(71,387,l),
(67,368,o),
(61,344,o),
(57,325,cs),
(13,105,o),
(54,-10,o),
(182,-10,cs)
);
},
{
closed = 1;
nodes = (
(354,320,l),
(354,320,l),
(315,129,o),
(268,56,o),
(185,56,cs),
(107,56,o),
(94,128,o),
(132,320,c)
);
}
);
width = 448;
},
{
anchors = (
{
name = bottom;
pos = (179,0);
},
{
name = top;
pos = (307,640);
}
);
background = {
anchors = (
{
name = bottom;
pos = (179,0);
},
{
name = top;
pos = (307,640);
}
);
shapes = (
{
closed = 1;
nodes = (
(316,-10,o),
(396,98,o),
(438,310,cs),
(487,556,o),
(441,647,o),
(275,647,cs),
(237,647,o),
(192,641,o),
(147,629,c),
(155,553,l),
(196,561,o),
(234,567,o),
(266,567,cs),
(367,567,o),
(361,500,o),
(326,328,cs),
(289,144,o),
(249,72,o),
(187,72,cs),
(131,72,o),
(126,136,o),
(160,312,c),
(402,312,l),
(418,392,l),
(63,396,l),
(58,375,o),
(52,348,o),
(48,328,cs),
(3,106,o),
(47,-10,o),
(184,-10,cs)
);
}
);
};
layerId = "EBAB10B0-9FDE-44C7-9B16-DD2313400F4E";
shapes = (
{
closed = 1;
nodes = (
(316,-10,o),
(396,98,o),
(438,310,cs),
(487,556,o),
(441,647,o),
(275,647,cs),
(237,647,o),
(192,641,o),
(147,629,c),
(155,553,l),
(196,561,o),
(234,567,o),
(266,567,cs),
(353,567,o),
(361,517,o),
(339,393,c),
(63,396,l),
(58,375,o),
(52,348,o),
(48,328,cs),
(3,106,o),
(47,-10,o),
(184,-10,cs)
);
},
{
closed = 1;
nodes = (
(323,312,l),
(323,312,l),
(287,140,o),
(247,72,o),
(187,72,cs),
(131,72,o),
(126,136,o),
(160,312,c)
);
}
);
width = 448;
}
);
unicode = 399;
}
{
glyphname = Eopen;
kernRight = C;
layers = (
{
anchors = (
{
name = bottom;
pos = (179,0);
},
{
name = top;
pos = (307,640);
}
);
background = {
anchors = (
{
name = bottom;
pos = (179,0);
},
{
name = top;
pos = (307,640);
}
);
shapes = (
{
closed = 1;
nodes = (
(256,-8,o),
(307,-2,o),
(353,13,c),
(347,54,l),
(308,45,o),
(267,36,o),
(219,36,cs),
(116,36,o),
(79,70,o),
(94,146,cs),
(110,225,o),
(168,266,o),
(278,266,cs),
(331,266,l),
(340,310,l),
(280,310,ls),
(171,310,o),
(149,368,o),
(166,452,cs),
(184,546,o),
(231,604,o),
(340,604,cs),
(376,604,o),
(415,597,o),
(445,588,c),
(460,625,l),
(423,638,o),
(381,648,o),
(340,648,cs),
(197,648,o),
(136,556,o),
(116,456,cs),
(95,351,o),
(148,277,o),
(283,277,cs),
(325,277,l),
(330,303,l),
(281,303,ls),
(132,303,o),
(62,234,o),
(45,147,cs),
(28,64,o),
(73,-8,o),
(208,-8,cs)
);
}
);
};
layerId = "C21910D5-47BB-472B-A83D-89B2B42B8F2A";
shapes = (
{
closed = 1;
nodes = (
(256,-8,o),
(307,-2,o),
(353,13,c),
(347,54,l),
(308,45,o),
(267,36,o),
(219,36,cs),
(116,36,o),
(79,70,o),
(94,146,cs),
(110,225,o),
(168,266,o),
(278,266,cs),
(331,266,l),
(340,310,l),
(280,310,ls),
(171,310,o),
(149,368,o),
(166,452,cs),
(184,546,o),
(231,604,o),
(340,604,cs),
(376,604,o),
(415,597,o),
(445,588,c),
(460,625,l),
(423,638,o),
(381,648,o),
(340,648,cs),
(197,648,o),
(136,556,o),
(116,456,cs),
(101,380,o),
(125,320,o),
(191,293,c),
(103,271,o),
(58,214,o),
(45,147,cs),
(28,64,o),
(73,-8,o),
(208,-8,cs)
);
}
);
width = 448;
},
{
anchors = (
{
name = bottom;
pos = (179,0);
},
{
name = top;
pos = (307,640);
}
);
background = {
anchors = (
{
name = bottom;
pos = (179,0);
},
{
name = top;
pos = (307,640);
}
);
shapes = (
{
closed = 1;
nodes = (
(263,-8,o),
(313,-2,o),
(360,13,c),
(355,75,l),
(309,63,o),
(266,56,o),
(225,56,cs),
(134,56,o),
(102,84,o),
(115,151,cs),
(129,219,o),
(184,256,o),
(280,256,cs),
(338,256,l),
(351,320,l),
(285,320,ls),
(200,320,o),
(167,360,o),
(185,447,cs),
(202,536,o),
(257,584,o),
(340,584,cs),
(372,584,o),
(407,579,o),
(446,566,c),
(466,624,l),
(424,639,o),
(382,648,o),
(341,648,cs),
(206,648,o),
(133,567,o),
(111,458,cs),
(88,346,o),
(149,272,o),
(286,272,cs),
(324,272,l),
(331,308,l),
(284,308,ls),
(136,308,o),
(58,245,o),
(39,149,cs),
(21,58,o),
(76,-8,o),
(209,-8,cs)
);
}
);
};
layerId = "BA106321-29DE-4FD0-898D-B7B08A4D4215";
shapes = (
{
closed = 1;
nodes = (
(263,-8,o),
(313,-2,o),
(360,13,c),
(355,75,l),
(309,63,o),
(266,56,o),
(225,56,cs),
(134,56,o),
(102,84,o),
(115,151,cs),
(129,219,o),
(184,256,o),
(280,256,cs),
(338,256,l),
(351,320,l),
(285,320,ls),
(200,320,o),
(167,360,o),
(185,447,cs),
(202,536,o),
(257,584,o),
(340,584,cs),
(372,584,o),
(407,579,o),
(446,566,c),
(466,624,l),
(424,639,o),
(382,648,o),
(341,648,cs),
(206,648,o),
(133,567,o),
(111,458,cs),
(95,382,o),
(118,324,o),
(177,294,c),
(97,270,o),
(53,219,o),
(39,149,cs),
(21,58,o),
(76,-8,o),
(209,-8,cs)
);
}
);
width = 448;
},
{
anchors = (
{
name = bottom;
pos = (179,0);
},
{
name = top;
pos = (307,640);
}
);
background = {
anchors = (
{
name = bottom;
pos = (179,0);
},
{
name = top;
pos = (307,640);
}
);
shapes = (
{
closed = 1;
nodes = (
(265,-8,o),
(320,-2,o),
(371,13,c),
(364,91,l),
(321,80,o),
(281,72,o),
(232,72,cs),
(159,72,o),
(134,95,o),
(146,154,cs),
(158,213,o),
(204,248,o),
(284,248,cs),
(351,248,l),
(367,328,l),
(291,328,ls),
(214,328,o),
(200,373,o),
(214,442,cs),
(228,515,o),
(269,568,o),
(342,568,cs),
(380,568,o),
(415,561,o),
(450,550,c),
(475,624,l),
(434,638,o),
(385,648,o),
(341,648,cs),
(187,648,o),
(120,553,o),
(100,455,cs),
(78,344,o),
(139,264,o),
(290,264,cs),
(322,264,l),
(332,316,l),
(290,316,ls),
(123,316,o),
(48,245,o),
(30,154,cs),
(13,68,o),
(63,-8,o),
(210,-8,cs)
);
}
);
};
layerId = "EBAB10B0-9FDE-44C7-9B16-DD2313400F4E";
shapes = (
{
closed = 1;
nodes = (
(265,-8,o),
(320,-2,o),
(371,13,c),
(364,91,l),
(321,80,o),
(281,72,o),
(232,72,cs),
(159,72,o),
(134,95,o),
(146,154,cs),
(158,213,o),
(204,248,o),
(284,248,cs),
(351,248,l),
(367,328,l),
(291,328,ls),
(214,328,o),
(200,373,o),
(214,442,cs),
(228,515,o),
(269,568,o),
(342,568,cs),
(380,568,o),
(415,561,o),
(450,550,c),
(475,624,l),
(434,638,o),
(385,648,o),
(341,648,cs),
(187,648,o),
(120,553,o),
(100,455,cs),
(86,385,o),
(104,330,o),
(157,296,c),
(82,269,o),
(42,215,o),
(30,154,cs),
(13,68,o),
(63,-8,o),
(210,-8,cs)
);
}
);
width = 448;
}
);
unicode = 400;
}
{
color = 7;
glyphname = Nhookleft;
layers = (
{
layerId = "C21910D5-47BB-472B-A83D-89B2B42B8F2A";
shapes = (
{
closed = 1;
nodes = (
(18,-155,o),
(49,-101,o),
(67,-10,cs),
(69,0,l),
(21,0,l),
(19,-11,ls),
(3,-89,o),
(-30,-129,o),
(-96,-156,c),
(-82,-197,l)
);
},
{
ref = N;
}
);
width = 448;
},
{
layerId = "BA106321-29DE-4FD0-898D-B7B08A4D4215";
shapes = (
{
closed = 1;
nodes = (
(28,-159,o),
(67,-101,o),
(86,-8,cs),
(87,0,l),
(15,0,l),
(13,-10,ls),
(-1,-80,o),
(-26,-110,o),
(-91,-135,c),
(-70,-197,l)
);
},
{
ref = N;
}
);
width = 448;
},
{
layerId = "EBAB10B0-9FDE-44C7-9B16-DD2313400F4E";
shapes = (
{
closed = 1;
nodes = (
(34,-165,o),
(83,-121,o),
(105,-9,cs),
(107,0,l),
(5,0,l),
(3,-9,ls),
(-8,-68,o),
(-33,-92,o),
(-89,-114,c),
(-61,-197,l)
);
},
{
ref = N;
}
);
width = 448;
}
);
unicode = 413;
}
{
color = 0;
glyphname = Ezh;
kernLeft = Ezh;
kernRight = Ezh;
layers = (
{
anchors = (
{
name = bottom;
pos = (179,0);
},
{
name = top;
pos = (307,640);
}
);
background = {
anchors = (
{
name = bottom;
pos = (179,0);
},
{
name = top;
pos = (307,640);
}
);
shapes = (
{
closed = 1;
nodes = (
(461,588,l),
(390,605,l),
(165,320,l),
(236,303,l)
);
},
{
closed = 1;
nodes = (
(422,576,l),
(461,588,l),
(471,640,l),
(150,640,l),
(137,576,l)
);
},
{
closed = 1;
nodes = (
(292,-8,o),
(368,54,o),
(386,147,cs),
(407,248,o),
(350,320,o),
(202,320,cs),
(165,320,l),
(152,256,l),
(194,256,ls),
(290,256,o),
(326,226,o),
(313,159,cs),
(299,91,o),
(250,56,o),
(159,56,cs),
(118,56,o),
(77,61,o),
(36,73,c),
(16,15,l),
(57,0,o),
(105,-8,o),
(159,-8,cs)
);
}
);
};
layerId = "BA106321-29DE-4FD0-898D-B7B08A4D4215";
shapes = (
{
closed = 1;
nodes = (
(367,576,l),
(165,320,l),
(152,256,l),
(194,256,ls),
(290,256,o),
(326,226,o),
(313,159,cs),
(299,91,o),
(250,56,o),
(159,56,cs),
(118,56,o),
(77,61,o),
(36,73,c),
(16,15,l),
(57,0,o),
(105,-8,o),
(159,-8,cs),
(292,-8,o),
(368,54,o),
(386,147,cs),
(405,238,o),
(361,304,o),
(247,317,c),
(461,588,l),
(471,640,l),
(150,640,l),
(137,576,l)
);
}
);
width = 448;
},
{
anchors = (
{
name = bottom;
pos = (179,0);
},
{
name = top;
pos = (307,640);
}
);
background = {
anchors = (
{
name = bottom;
pos = (179,0);
},
{
name = top;
pos = (307,640);
}
);
shapes = (
{
closed = 1;
nodes = (
(470,584,l),
(356,601,l),
(147,328,l),
(260,311,l)
);
},
{
closed = 1;
nodes = (
(419,560,l),
(470,584,l),
(481,640,l),
(140,640,l),
(124,560,l)
);
},
{
closed = 1;
nodes = (
(300,-8,o),
(378,55,o),
(397,150,cs),
(418,253,o),
(358,328,o),
(203,328,cs),
(147,328,l),
(131,248,l),
(173,248,ls),
(262,248,o),
(296,223,o),
(284,164,cs),
(272,104,o),
(228,72,o),
(151,72,cs),
(112,72,o),
(72,76,o),
(33,86,c),
(7,15,l),
(51,0,o),
(102,-8,o),
(160,-8,cs)
);
}
);
};
layerId = "EBAB10B0-9FDE-44C7-9B16-DD2313400F4E";
shapes = (
{
closed = 1;
nodes = (
(325,560,l),
(147,328,l),
(131,248,l),
(173,248,ls),
(262,248,o),
(296,223,o),
(284,164,cs),
(272,104,o),
(228,72,o),
(151,72,cs),
(112,72,o),
(72,76,o),
(33,86,c),
(7,15,l),
(51,0,o),
(102,-8,o),
(160,-8,cs),
(300,-8,o),
(378,55,o),
(397,150,cs),
(415,238,o),
(376,304,o),
(269,323,c),
(470,584,l),
(481,640,l),
(140,640,l),
(124,560,l)
);
}
);
width = 448;
},
{
anchors = (
{
name = bottom;
pos = (179,0);
},
{
name = top;
pos = (307,640);
}
);
background = {
anchors = (
{
name = bottom;
pos = (179,0);
},
{
name = top;
pos = (307,640);
}
);
shapes = (
{
closed = 1;
nodes = (
(457,603,l),
(415,620,l),
(176,310,l),
(218,293,l)
);
},
{
closed = 1;
nodes = (
(426,596,l),
(457,603,l),
(464,640,l),
(157,640,l),
(148,596,l)
);
},
{
closed = 1;
nodes = (
(286,-8,o),
(361,53,o),
(379,146,cs),
(399,246,o),
(347,310,o),
(216,310,cs),
(176,310,l),
(167,266,l),
(208,266,ls),
(309,266,o),
(347,231,o),
(332,153,cs),
(316,77,o),
(262,36,o),
(160,36,cs),
(120,36,o),
(80,42,o),
(38,54,c),
(23,15,l),
(62,0,o),
(107,-8,o),
(158,-8,cs)
);
}
);
};
layerId = "C21910D5-47BB-472B-A83D-89B2B42B8F2A";
shapes = (
{
closed = 1;
nodes = (
(396,596,l),
(176,310,l),
(167,266,l),
(208,266,ls),
(309,266,o),
(347,231,o),
(332,153,cs),
(316,77,o),
(262,36,o),
(160,36,cs),
(120,36,o),
(80,42,o),
(38,54,c),
(23,15,l),
(62,0,o),
(107,-8,o),
(158,-8,cs),
(286,-8,o),
(361,53,o),
(379,146,cs),
(398,241,o),
(352,305,o),
(231,310,c),
(457,603,l),
(464,640,l),
(157,640,l),
(148,596,l)
);
}
);
width = 448;
}
);
unicode = 439;
}
{
glyphname = Ismall;
layers = (
{
anchors = (
{
name = "#center";
pos = (224,224);
},
{
name = bottom;
pos = (179,0);
},
{
name = top;
pos = (268,448);
}
);
layerId = "BA106321-29DE-4FD0-898D-B7B08A4D4215";
shapes = (
{
closed = 1;
nodes = (
(315,0,l),
(326,54,l),
(228,64,l),
(291,384,l),
(389,394,l),
(400,448,l),
(136,448,l),
(125,394,l),
(219,384,l),
(156,64,l),
(54,54,l),
(43,0,l)
);
}
);
width = 448;
},
{
anchors = (
{
name = "#center";
pos = (224,224);
},
{
name = bottom;
pos = (179,0);
},
{
name = top;
pos = (268,448);
}
);
layerId = "EBAB10B0-9FDE-44C7-9B16-DD2313400F4E";
shapes = (
{
closed = 1;
nodes = (
(343,0,l),
(357,68,l),
(251,80,l),
(308,368,l),
(415,380,l),
(428,448,l),
(108,448,l),
(95,380,l),
(196,368,l),
(139,80,l),
(29,68,l),
(15,0,l)
);
}
);
width = 448;
},
{
anchors = (
{
name = "#center";
pos = (224,224);
},
{
name = bottom;
pos = (179,0);
},
{
name = top;
pos = (269,448);
}
);
layerId = "C21910D5-47BB-472B-A83D-89B2B42B8F2A";
shapes = (
{
closed = 1;
nodes = (
(303,0,l),
(311,38,l),
(212,42,l),
(285,406,l),
(382,410,l),
(389,448,l),
(149,448,l),
(142,410,l),
(237,406,l),
(164,42,l),
(63,38,l),
(55,0,l)
);
}
);
width = 448;
}
);
unicode = 618;
}
{
glyphname = ringhalfright;
layers = (
{
layerId = "BA106321-29DE-4FD0-898D-B7B08A4D4215";
shapes = (
{
closed = 1;
nodes = (
(285,377,o),
(350,436,o),
(365,509,cs),
(379,582,o),
(334,647,o),
(253,647,c),
(247,591,l),
(296,591,o),
(312,558,o),
(303,515,cs),
(294,472,o),
(259,433,o),
(210,433,c),
(204,377,l)
);
}
);
width = 448;
},
{
layerId = "EBAB10B0-9FDE-44C7-9B16-DD2313400F4E";
shapes = (
{
closed = 1;
nodes = (
(291,377,o),
(355,431,o),
(371,508,cs),
(386,585,o),
(338,647,o),
(248,647,c),
(240,575,l),
(275,575,o),
(287,553,o),
(279,516,cs),
(272,479,o),
(244,449,o),
(209,449,c),
(201,377,l)
);
}
);
width = 448;
},
{
layerId = "C21910D5-47BB-472B-A83D-89B2B42B8F2A";
shapes = (
{
closed = 1;
nodes = (
(283,377,o),
(349,439,o),
(363,510,cs),
(377,581,o),
(334,647,o),
(257,647,c),
(251,603,l),
(307,603,o),
(325,562,o),
(316,514,cs),
(306,466,o),
(267,421,o),
(211,421,c),
(206,377,l)
);
}
);
width = 448;
}
);
unicode = 702;
}
{
glyphname = verticallinemod;
layers = (
{
layerId = "BA106321-29DE-4FD0-898D-B7B08A4D4215";
shapes = (
{
closed = 1;
nodes = (
(296,407,l),
(343,640,l),
(271,640,l),
(224,407,l)
);
}
);
width = 448;
},
{
layerId = "EBAB10B0-9FDE-44C7-9B16-DD2313400F4E";
shapes = (
{
closed = 1;
nodes = (
(306,357,l),
(363,640,l),
(251,640,l),
(194,357,l)
);
}
);
width = 448;
},
{
layerId = "C21910D5-47BB-472B-A83D-89B2B42B8F2A";
shapes = (
{
closed = 1;
nodes = (
(290,434,l),
(331,640,l),
(283,640,l),
(242,434,l)
);
}
);
width = 448;
}
);
unicode = 712;
}
{
glyphname = gravecomb;
layers = (
{
anchors = (
{
name = _top;
pos = (269,448);
},
{
name = top;
pos = (320,704);
}
);
layerId = "C21910D5-47BB-472B-A83D-89B2B42B8F2A";
shapes = (
{
closed = 1;
nodes = (
(285,704,l),
(225,704,l),
(260,512,l),
(304,512,l)
);
}
);
width = 448;
},
{
anchors = (
{
name = _top;
pos = (269,448);
},
{
name = top;
pos = (320,704);
}
);
layerId = "BA106321-29DE-4FD0-898D-B7B08A4D4215";
shapes = (
{
closed = 1;
nodes = (
(302,704,l),
(204,704,l),
(252,512,l),
(312,512,l)
);
}
);
width = 448;
},
{
anchors = (
{
name = _top;
pos = (269,448);
},
{
name = top;
pos = (320,704);
}
);
layerId = "EBAB10B0-9FDE-44C7-9B16-DD2313400F4E";
shapes = (
{
closed = 1;
nodes = (
(334,704,l),
(170,704,l),
(238,512,l),
(326,512,l)
);
}
);
width = 448;
}
);
unicode = 768;
}
{
glyphname = acutecomb;
layers = (
{
anchors = (
{
name = _top;
pos = (269,448);
},
{
name = top;
pos = (320,704);
}
);
layerId = "C21910D5-47BB-472B-A83D-89B2B42B8F2A";
shapes = (
{
closed = 1;
nodes = (
(306,512,l),
(415,704,l),
(353,704,l),
(258,512,l)
);
}
);
width = 448;
},
{
anchors = (
{
name = _top;
pos = (269,448);
},
{
name = top;
pos = (319,704);
}
);
layerId = "BA106321-29DE-4FD0-898D-B7B08A4D4215";
shapes = (
{
closed = 1;
nodes = (
(314,512,l),
(436,704,l),
(334,704,l),
(250,512,l)
);
}
);
width = 448;
},
{
anchors = (
{
name = _top;
pos = (269,448);
},
{
name = top;
pos = (320,704);
}
);
layerId = "EBAB10B0-9FDE-44C7-9B16-DD2313400F4E";
shapes = (
{
closed = 1;
nodes = (
(328,512,l),
(472,704,l),
(305,704,l),
(236,512,l)
);
}
);
width = 448;
}
);
unicode = 769;
}
{
glyphname = macroncomb;
layers = (
{
anchors = (
{
name = _top;
pos = (269,448);
},
{
name = top;
pos = (303,618);
}
);
layerId = "C21910D5-47BB-472B-A83D-89B2B42B8F2A";
shapes = (
{
closed = 1;
nodes = (
(408,576,l),
(417,620,l),
(189,620,l),
(180,576,l)
);
}
);
width = 448;
},
{
anchors = (
{
name = _top;
pos = (269,448);
},
{
name = top;
pos = (303,618);
}
);
layerId = "BA106321-29DE-4FD0-898D-B7B08A4D4215";
shapes = (
{
closed = 1;
nodes = (
(415,558,l),
(428,622,l),
(180,622,l),
(167,558,l)
);
}
);
width = 448;
},
{
anchors = (
{
name = _top;
pos = (269,448);
},
{
name = top;
pos = (303,618);
}
);
layerId = "EBAB10B0-9FDE-44C7-9B16-DD2313400F4E";
shapes = (
{
closed = 1;
nodes = (
(419,548,l),
(436,636,l),
(176,636,l),
(159,548,l)
);
}
);
width = 448;
}
);
unicode = 772;
}
{
glyphname = dotaccentcomb;
layers = (
{
anchors = (
{
name = _top;
pos = (269,448);
},
{
name = top;
pos = (303,627);
}
);
layerId = "C21910D5-47BB-472B-A83D-89B2B42B8F2A";
shapes = (
{
closed = 1;
nodes = (
(238,559,o),
(260,539,o),
(290,539,cs),
(318,539,o),
(343,555,o),
(350,588,cs),
(358,625,o),
(335,645,o),
(305,645,cs),
(277,645,o),
(251,629,o),
(245,596,cs)
);
}
);
width = 448;
},
{
anchors = (
{
name = _top;
pos = (269,448);
},
{
name = top;
pos = (307,642);
}
);
layerId = "BA106321-29DE-4FD0-898D-B7B08A4D4215";
shapes = (
{
closed = 1;
nodes = (
(231,555,o),
(256,532,o),
(291,532,cs),
(320,532,o),
(348,549,o),
(355,585,cs),
(363,626,o),
(339,650,o),
(304,650,cs),
(275,650,o),
(247,632,o),
(240,597,cs)
);
}
);
width = 448;
},
{
anchors = (
{
name = _top;
pos = (269,448);
},
{
name = top;
pos = (309,650);
}
);
layerId = "EBAB10B0-9FDE-44C7-9B16-DD2313400F4E";
shapes = (
{
closed = 1;
nodes = (
(220,547,o),
(249,520,o),
(290,520,cs),
(323,520,o),
(356,539,o),
(364,580,cs),
(374,629,o),
(345,658,o),
(304,658,cs),
(271,658,o),
(238,637,o),
(230,598,cs)
);
}
);
width = 448;
}
);
unicode = 775;
}
{
glyphname = dieresiscomb;
layers = (
{
anchors = (
{
name = _top;
pos = (269,448);
},
{
name = top;
pos = (303,624);
}
);
layerId = "C21910D5-47BB-472B-A83D-89B2B42B8F2A";
shapes = (
{
closed = 1;
nodes = (
(226,547,o),
(252,562,o),
(257,591,cs),
(262,621,o),
(242,642,o),
(214,642,cs),
(189,642,o),
(164,625,o),
(159,599,cs),
(153,566,o),
(173,547,o),
(202,547,cs)
);
},
{
closed = 1;
nodes = (
(406,547,o),
(432,562,o),
(437,591,cs),
(442,621,o),
(422,642,o),
(394,642,cs),
(369,642,o),
(344,625,o),
(339,599,cs),
(333,566,o),
(353,547,o),
(382,547,cs)
);
}
);
width = 448;
},
{
anchors = (
{
name = _top;
pos = (269,448);
},
{
name = top;
pos = (306,640);
}
);
layerId = "BA106321-29DE-4FD0-898D-B7B08A4D4215";
shapes = (
{
closed = 1;
nodes = (
(228,534,o),
(253,550,o),
(260,585,cs),
(268,625,o),
(245,648,o),
(215,648,cs),
(189,648,o),
(164,631,o),
(157,597,cs),
(148,556,o),
(172,534,o),
(202,534,cs)
);
},
{
closed = 1;
nodes = (
(406,534,o),
(431,550,o),
(438,585,cs),
(446,625,o),
(423,648,o),
(393,648,cs),
(367,648,o),
(342,631,o),
(335,597,cs),
(326,556,o),
(350,534,o),
(380,534,cs)
);
}
);
width = 448;
},
{
anchors = (
{
name = _top;
pos = (269,448);
},
{
name = top;
pos = (309,650);
}
);
layerId = "EBAB10B0-9FDE-44C7-9B16-DD2313400F4E";
shapes = (
{
closed = 1;
nodes = (
(232,512,o),
(256,530,o),
(265,576,cs),
(276,632,o),
(255,658,o),
(217,658,cs),
(187,658,o),
(162,640,o),
(153,594,cs),
(142,538,o),
(164,512,o),
(201,512,cs)
);
},
{
closed = 1;
nodes = (
(406,512,o),
(430,530,o),
(439,576,cs),
(450,632,o),
(429,658,o),
(391,658,cs),
(361,658,o),
(336,640,o),
(327,594,cs),
(316,538,o),
(338,512,o),
(375,512,cs)
);
}
);
width = 448;
}
);
unicode = 776;
}
{
glyphname = hookabovecomb;
layers = (
{
anchors = (
{
name = _top;
pos = (269,448);
},
{
name = top;
pos = (319,704);
}
);
layerId = "C21910D5-47BB-472B-A83D-89B2B42B8F2A";
shapes = (
{
closed = 1;
nodes = (
(333,536,o),
(396,570,o),
(396,632,cs),
(396,676,o),
(361,699,o),
(296,699,cs),
(269,699,o),
(241,695,o),
(223,692,c),
(223,652,l),
(242,655,o),
(268,657,o),
(289,657,cs),
(333,657,o),
(349,647,o),
(349,629,cs),
(349,592,o),
(301,565,o),
(259,548,c),
(270,511,l)
);
}
);
width = 448;
},
{
anchors = (
{
name = _top;
pos = (269,448);
},
{
name = top;
pos = (319,704);
}
);
layerId = "BA106321-29DE-4FD0-898D-B7B08A4D4215";
shapes = (
{
closed = 1;
nodes = (
(335,528,o),
(403,560,o),
(403,630,cs),
(403,678,o),
(363,704,o),
(292,704,cs),
(269,704,o),
(242,702,o),
(215,697,c),
(220,643,l),
(244,646,o),
(268,648,o),
(288,648,cs),
(322,648,o),
(336,642,o),
(336,625,cs),
(336,591,o),
(283,567,o),
(249,554,c),
(270,502,l)
);
}
);
width = 448;
},
{
anchors = (
{
name = _top;
pos = (269,448);
},
{
name = top;
pos = (319,704);
}
);
layerId = "EBAB10B0-9FDE-44C7-9B16-DD2313400F4E";
shapes = (
{
closed = 1;
nodes = (
(348,525,o),
(413,557,o),
(413,629,cs),
(413,678,o),
(379,712,o),
(292,712,cs),
(265,712,o),
(235,709,o),
(204,703,c),
(204,634,l),
(224,637,o),
(247,640,o),
(267,640,cs),
(296,640,o),
(305,630,o),
(305,615,cs),
(305,597,o),
(295,574,o),
(267,558,c),
(289,499,l)
);
}
);
width = 448;
}
);
unicode = 777;
}
{
glyphname = caroncomb;
layers = (
{
anchors = (
{
name = _top;
pos = (269,448);
},
{
name = top;
pos = (307,640);
}
);
background = {
anchors = (
{
name = _top;
pos = (269,448);
},
{
name = top;
pos = (307,640);
}
);
shapes = (
{
closed = 1;
nodes = (
(314,512,l),
(435,648,l),
(382,648,l),
(273,541,l),
(301,541,l),
(234,648,l),
(183,648,l),
(250,512,l)
);
}
);
};
layerId = "C21910D5-47BB-472B-A83D-89B2B42B8F2A";
shapes = (
{
closed = 1;
nodes = (
(314,512,l),
(435,648,l),
(382,648,l),
(290,558,l),
(234,648,l),
(183,648,l),
(250,512,l)
);
}
);
width = 448;
},
{
anchors = (
{
name = _top;
pos = (269,448);
},
{
name = top;
pos = (307,640);
}
);
background = {
anchors = (
{
name = _top;
pos = (269,448);
},
{
name = top;
pos = (307,640);
}
);
shapes = (
{
closed = 1;
nodes = (
(334,507,l),
(448,646,l),
(374,646,l),
(266,538,l),
(306,538,l),
(240,646,l),
(170,646,l),
(230,507,l)
);
}
);
};
layerId = "BA106321-29DE-4FD0-898D-B7B08A4D4215";
shapes = (
{
closed = 1;
nodes = (
(334,507,l),
(448,646,l),
(374,646,l),
(291,563,l),
(240,646,l),
(170,646,l),
(230,507,l)
);
}
);
width = 448;
},
{
anchors = (
{
name = _top;
pos = (269,448);
},
{
name = top;
pos = (307,640);
}
);
background = {
anchors = (
{
name = _top;
pos = (269,448);
},
{
name = top;
pos = (307,640);
}
);
shapes = (
{
closed = 1;
nodes = (
(359,511,l),
(469,654,l),
(364,654,l),
(252,542,l),
(320,542,l),
(254,654,l),
(153,654,l),
(207,511,l)
);
}
);
};
layerId = "EBAB10B0-9FDE-44C7-9B16-DD2313400F4E";
shapes = (
{
closed = 1;
nodes = (
(359,511,l),
(469,654,l),
(364,654,l),
(295,585,l),
(254,654,l),
(153,654,l),
(207,511,l)
);
}
);
width = 448;
}
);
unicode = 780;
}
{
glyphname = commaturnedabovecomb;
layers = (
{
anchors = (
{
name = _top;
pos = (269,448);
}
);
layerId = "C21910D5-47BB-472B-A83D-89B2B42B8F2A";
shapes = (
{
closed = 1;
nodes = (
(314,506,o),
(340,523,o),
(347,557,cs),
(353,587,o),
(339,611,o),
(302,612,c),
(317,642,o),
(345,667,o),
(373,689,c),
(351,722,l),
(287,678,o),
(254,639,o),
(243,581,cs),
(234,532,o),
(255,506,o),
(287,506,cs)
);
}
);
width = 448;
},
{
anchors = (
{
name = _top;
pos = (269,448);
}
);
layerId = "BA106321-29DE-4FD0-898D-B7B08A4D4215";
shapes = (
{
closed = 1;
nodes = (
(313,503,o),
(342,523,o),
(349,559,cs),
(355,591,o),
(340,614,o),
(310,620,c),
(323,642,o),
(347,662,o),
(372,679,c),
(339,725,l),
(292,693,o),
(248,646,o),
(236,584,cs),
(225,527,o),
(250,503,o),
(284,503,cs)
);
}
);
width = 448;
},
{
anchors = (
{
name = _top;
pos = (269,448);
}
);
layerId = "EBAB10B0-9FDE-44C7-9B16-DD2313400F4E";
shapes = (
{
closed = 1;
nodes = (
(323,506,o),
(353,531,o),
(362,572,cs),
(369,607,o),
(350,632,o),
(322,642,c),
(333,660,o),
(348,680,o),
(364,699,c),
(316,737,l),
(270,696,o),
(236,643,o),
(227,598,cs),
(214,532,o),
(250,506,o),
(285,506,cs)
);
}
);
width = 448;
}
);
unicode = 786;
}
{
glyphname = ringbelowcomb;
layers = (
{
anchors = (
{
name = _bottom;
pos = (179,0);
},
{
name = bottom;
pos = (141,-192);
}
);
layerId = "BA106321-29DE-4FD0-898D-B7B08A4D4215";
shapes = (
{
closed = 1;
nodes = (
(188,-201,o),
(226,-168,o),
(235,-124,cs),
(244,-80,o),
(215,-41,o),
(168,-41,cs),
(122,-41,o),
(83,-74,o),
(74,-118,cs),
(66,-162,o),
(95,-201,o),
(141,-201,cs)
);
},
{
closed = 1;
nodes = (
(125,-157,o),
(116,-144,o),
(120,-124,cs),
(124,-104,o),
(145,-85,o),
(165,-85,cs),
(186,-85,o),
(194,-98,o),
(190,-118,cs),
(186,-138,o),
(166,-157,o),
(145,-157,cs)
);
}
);
width = 448;
},
{
anchors = (
{
name = _bottom;
pos = (180,0);
},
{
name = bottom;
pos = (142,-192);
}
);
layerId = "EBAB10B0-9FDE-44C7-9B16-DD2313400F4E";
shapes = (
{
closed = 1;
nodes = (
(200,-201,o),
(244,-170,o),
(254,-122,cs),
(263,-74,o),
(227,-34,o),
(170,-34,cs),
(112,-34,o),
(69,-66,o),
(59,-114,cs),
(50,-162,o),
(85,-201,o),
(143,-201,cs)
);
},
{
closed = 1;
nodes = (
(128,-154,o),
(125,-141,o),
(129,-122,cs),
(133,-102,o),
(149,-82,o),
(167,-82,cs),
(184,-82,o),
(188,-94,o),
(184,-114,cs),
(180,-133,o),
(163,-154,o),
(146,-154,cs)
);
}
);
width = 448;
},
{
anchors = (
{
name = _bottom;
pos = (179,0);
},
{
name = bottom;
pos = (141,-192);
}
);
layerId = "C21910D5-47BB-472B-A83D-89B2B42B8F2A";
shapes = (
{
closed = 1;
nodes = (
(190,-200,o),
(228,-167,o),
(236,-125,cs),
(244,-83,o),
(217,-46,o),
(168,-46,cs),
(118,-46,o),
(81,-79,o),
(73,-121,cs),
(64,-163,o),
(91,-200,o),
(141,-200,cs)
);
},
{
closed = 1;
nodes = (
(117,-167,o),
(107,-149,o),
(112,-125,cs),
(117,-102,o),
(138,-80,o),
(165,-80,cs),
(192,-80,o),
(201,-98,o),
(197,-121,cs),
(192,-145,o),
(171,-167,o),
(144,-167,cs)
);
}
);
width = 448;
}
);
unicode = 805;
}
{
glyphname = commaaccentcomb;
layers = (
{
anchors = (
{
name = _bottom;
pos = (179,0);
}
);
layerId = "C21910D5-47BB-472B-A83D-89B2B42B8F2A";
shapes = (
{
closed = 1;
nodes = (
(185,-173,o),
(208,-146,o),
(216,-107,cs),
(224,-67,o),
(202,-46,o),
(171,-46,cs),
(141,-46,o),
(117,-62,o),
(111,-91,cs),
(106,-118,o),
(123,-136,o),
(154,-139,c),
(142,-150,o),
(126,-162,o),
(113,-171,c),
(132,-204,l)
);
}
);
width = 448;
},
{
anchors = (
{
name = _bottom;
pos = (179,0);
}
);
layerId = "BA106321-29DE-4FD0-898D-B7B08A4D4215";
shapes = (
{
closed = 1;
nodes = (
(177,-195,o),
(211,-162,o),
(220,-115,cs),
(230,-68,o),
(202,-46,o),
(166,-46,cs),
(132,-46,o),
(108,-63,o),
(102,-92,cs),
(96,-121,o),
(119,-143,o),
(153,-145,c),
(138,-156,o),
(118,-167,o),
(100,-174,c),
(119,-216,l)
);
}
);
width = 448;
},
{
anchors = (
{
name = _bottom;
pos = (179,0);
}
);
layerId = "EBAB10B0-9FDE-44C7-9B16-DD2313400F4E";
shapes = (
{
closed = 1;
nodes = (
(191,-193,o),
(222,-155,o),
(230,-117,cs),
(239,-70,o),
(208,-46,o),
(166,-46,cs),
(126,-46,o),
(97,-64,o),
(91,-94,cs),
(86,-123,o),
(111,-145,o),
(148,-148,c),
(133,-160,o),
(116,-175,o),
(105,-184,c),
(152,-222,l)
);
}
);
width = 448;
}
);
unicode = 806;
}
{
color = 0;
glyphname = doublemacronbelowcomb;
layers = (
{
anchors = (
{
name = _bottom;
pos = (179,0);
},
{
name = bottom;
pos = (153,-128);
}
);
layerId = "BA106321-29DE-4FD0-898D-B7B08A4D4215";
shapes = (
{
closed = 1;
nodes = (
(726,-128,l),
(738,-64,l),
(42,-64,l),
(30,-128,l)
);
}
);
width = 448;
},
{
anchors = (
{
name = _bottom;
pos = (179,0);
},
{
name = bottom;
pos = (148,-157);
}
);
layerId = "EBAB10B0-9FDE-44C7-9B16-DD2313400F4E";
shapes = (
{
closed = 1;
nodes = (
(725,-158,l),
(745,-62,l),
(37,-62,l),
(17,-158,l)
);
}
);
width = 448;
},
{
anchors = (
{
name = _bottom;
pos = (179,0);
},
{
name = bottom;
pos = (155,-118);
}
);
layerId = "C21910D5-47BB-472B-A83D-89B2B42B8F2A";
shapes = (
{
closed = 1;
nodes = (
(717,-118,l),
(726,-74,l),
(50,-74,l),
(41,-118,l)
);
}
);
width = 448;
}
);
unicode = 863;
}
{
glyphname = tonos;
layers = (
{
anchors = (
{
name = _top;
pos = (269,448);
}
);
layerId = "C21910D5-47BB-472B-A83D-89B2B42B8F2A";
shapes = (
{
closed = 1;
nodes = (
(265,512,l),
(307,512,l),
(372,704,l),
(318,704,l)
);
}
);
width = 448;
},
{
anchors = (
{
name = _top;
pos = (269,448);
}
);
layerId = "BA106321-29DE-4FD0-898D-B7B08A4D4215";
shapes = (
{
closed = 1;
nodes = (
(250,512,l),
(315,512,l),
(383,704,l),
(299,704,l)
);
}
);
width = 448;
},
{
anchors = (
{
name = _top;
pos = (269,448);
}
);
layerId = "EBAB10B0-9FDE-44C7-9B16-DD2313400F4E";
shapes = (
{
closed = 1;
nodes = (
(236,512,l),
(332,512,l),
(416,704,l),
(267,704,l)
);
}
);
width = 448;
}
);
unicode = 900;
}
{
glyphname = dieresistonos;
layers = (
{
anchors = (
{
name = _top;
pos = (269,448);
}
);
layerId = "C21910D5-47BB-472B-A83D-89B2B42B8F2A";
shapes = (
{
closed = 1;
nodes = (
(249,512,l),
(290,512,l),
(356,704,l),
(302,704,l)
);
},
{
closed = 1;
nodes = (
(128,597,cs),
(122,566,o),
(143,547,o),
(170,547,cs),
(196,547,o),
(221,562,o),
(228,593,cs),
(233,621,o),
(212,642,o),
(186,642,cs),
(159,642,o),
(134,625,o)
);
},
{
closed = 1;
nodes = (
(368,597,cs),
(362,566,o),
(383,547,o),
(410,547,cs),
(436,547,o),
(461,562,o),
(468,593,cs),
(473,621,o),
(452,642,o),
(426,642,cs),
(399,642,o),
(374,625,o)
);
}
);
width = 448;
},
{
anchors = (
{
name = _top;
pos = (269,448);
}
);
layerId = "BA106321-29DE-4FD0-898D-B7B08A4D4215";
shapes = (
{
closed = 1;
nodes = (
(239,512,l),
(303,512,l),
(372,704,l),
(288,704,l)
);
},
{
closed = 1;
nodes = (
(112,594,cs),
(104,556,o),
(127,534,o),
(155,534,cs),
(183,534,o),
(209,550,o),
(217,588,cs),
(224,625,o),
(201,648,o),
(173,648,cs),
(145,648,o),
(119,631,o)
);
},
{
closed = 1;
nodes = (
(378,594,cs),
(370,556,o),
(393,534,o),
(421,534,cs),
(449,534,o),
(475,550,o),
(483,588,cs),
(490,625,o),
(467,648,o),
(439,648,cs),
(411,648,o),
(385,631,o)
);
}
);
width = 448;
},
{
anchors = (
{
name = _top;
pos = (269,448);
}
);
layerId = "EBAB10B0-9FDE-44C7-9B16-DD2313400F4E";
shapes = (
{
closed = 1;
nodes = (
(225,512,l),
(321,512,l),
(405,704,l),
(257,704,l)
);
},
{
closed = 1;
nodes = (
(102,589,cs),
(92,538,o),
(114,512,o),
(148,512,cs),
(182,512,o),
(206,530,o),
(216,581,cs),
(226,632,o),
(204,658,o),
(170,658,cs),
(136,658,o),
(112,640,o)
);
},
{
closed = 1;
nodes = (
(376,589,cs),
(366,538,o),
(388,512,o),
(422,512,cs),
(456,512,o),
(480,530,o),
(490,581,cs),
(500,632,o),
(478,658,o),
(444,658,cs),
(410,658,o),
(386,640,o)
);
}
);
width = 448;
}
);
unicode = 901;
}
{
glyphname = Delta;
kernLeft = A;
kernRight = A;
layers = (
{
background = {
shapes = (
{
closed = 1;
nodes = (
(48,0,l),
(120,242,o),
(210,446,o),
(302,587,c),
(293,591,l),
(329,450,o),
(337,244,o),
(312,0,c),
(362,0,l),
(389,243,o),
(379,476,o),
(326,643,c),
(286,643,l),
(168,476,o),
(67,243,o),
(-4,0,c)
);
},
{
closed = 1;
nodes = (
(32,0,l),
(328,0,l),
(337,44,l),
(41,44,l)
);
}
);
};
layerId = "C21910D5-47BB-472B-A83D-89B2B42B8F2A";
shapes = (
{
closed = 1;
nodes = (
(362,0,l),
(389,243,o),
(379,476,o),
(326,643,c),
(286,643,l),
(168,476,o),
(67,243,o),
(-4,0,c)
);
},
{
closed = 1;
nodes = (
(129,262,o),
(212,447,o),
(296,578,c),
(327,447,o),
(335,261,o),
(316,44,c),
(61,44,l)
);
}
);
width = 448;
},
{
background = {
shapes = (
{
closed = 1;
nodes = (
(66,0,l),
(134,237,o),
(219,437,o),
(306,574,c),
(285,580,l),
(318,441,o),
(321,239,o),
(294,0,c),
(366,0,l),
(396,245,o),
(389,477,o),
(337,643,c),
(273,643,l),
(158,477,o),
(60,245,o),
(-9,0,c)
);
},
{
closed = 1;
nodes = (
(52,0,l),
(308,0,l),
(321,64,l),
(65,64,l)
);
}
);
};
layerId = "BA106321-29DE-4FD0-898D-B7B08A4D4215";
shapes = (
{
closed = 1;
nodes = (
(366,0,l),
(396,245,o),
(389,477,o),
(337,643,c),
(273,643,l),
(158,477,o),
(60,245,o),
(-9,0,c)
);
},
{
closed = 1;
nodes = (
(145,259,o),
(217,427,o),
(291,550,c),
(316,426,o),
(319,258,o),
(301,64,c),
(85,64,l)
);
}
);
width = 448;
},
{
background = {
shapes = (
{
closed = 1;
nodes = (
(96,0,l),
(161,237,o),
(237,436,o),
(314,573,c),
(277,581,l),
(299,442,o),
(294,241,o),
(264,0,c),
(377,0,l),
(410,242,o),
(407,477,o),
(357,643,c),
(253,643,l),
(142,477,o),
(48,242,o),
(-19,0,c)
);
},
{
closed = 1;
nodes = (
(52,0,l),
(308,0,l),
(324,80,l),
(68,80,l)
);
}
);
};
layerId = "EBAB10B0-9FDE-44C7-9B16-DD2313400F4E";
shapes = (
{
closed = 1;
nodes = (
(377,0,l),
(410,242,o),
(407,477,o),
(357,643,c),
(253,643,l),
(142,477,o),
(48,242,o),
(-19,0,c)
);
},
{
closed = 1;
nodes = (
(169,253,o),
(226,403,o),
(283,518,c),
(292,401,o),
(288,252,o),
(273,80,c),
(119,80,l)
);
}
);
width = 448;
}
);
unicode = 916;
}
{
glyphname = Theta;
layers = (
{
background = {
shapes = (
{
closed = 1;
nodes = (
(304,-10,o),
(380,100,o),
(423,315,cs),
(468,539,o),
(432,650,o),
(306,650,cs),
(185,650,o),
(107,543,o),
(63,323,cs),
(19,104,o),
(57,-10,o),
(181,-10,cs)
);
},
{
closed = 1;
nodes = (
(100,34,o),
(78,105,o),
(104,265,c),
(361,265,l),
(322,105,o),
(266,34,o),
(183,34,cs)
);
},
{
closed = 1;
nodes = (
(155,519,o),
(211,606,o),
(304,606,cs),
(392,606,o),
(412,520,o),
(372,319,c),
(114,319,l)
);
}
);
};
layerId = "C21910D5-47BB-472B-A83D-89B2B42B8F2A";
shapes = (
{
closed = 1;
nodes = (
(304,-10,o),
(380,100,o),
(423,315,cs),
(468,539,o),
(432,650,o),
(306,650,cs),
(185,650,o),
(107,543,o),
(63,323,cs),
(19,104,o),
(57,-10,o),
(181,-10,cs)
);
},
{
closed = 1;
nodes = (
(98,34,o),
(77,107,o),
(106,275,c),
(363,275,l),
(324,108,o),
(268,34,o),
(183,34,cs)
);
},
{
closed = 1;
nodes = (
(155,519,o),
(211,606,o),
(304,606,cs),
(392,606,o),
(412,520,o),
(372,319,c),
(114,319,l)
);
}
);
width = 448;
},
{
background = {
shapes = (
{
closed = 1;
nodes = (
(384,320,l),
(64,320,l),
(64,256,l),
(384,256,l)
);
},
{
closed = 1;
nodes = (
(309,-10,o),
(386,99,o),
(429,313,cs),
(474,538,o),
(436,650,o),
(304,650,cs),
(181,650,o),
(101,544,o),
(57,325,cs),
(13,105,o),
(54,-10,o),
(182,-10,cs)
);
},
{
closed = 1;
nodes = (
(107,56,o),
(93,125,o),
(131,313,cs),
(170,509,o),
(218,584,o),
(301,584,cs),
(378,584,o),
(392,513,o),
(354,320,cs),
(315,129,o),
(268,56,o),
(185,56,cs)
);
}
);
};
layerId = "BA106321-29DE-4FD0-898D-B7B08A4D4215";
shapes = (
{
closed = 1;
nodes = (
(309,-10,o),
(386,99,o),
(429,313,cs),
(474,538,o),
(436,650,o),
(304,650,cs),
(181,650,o),
(101,544,o),
(57,325,cs),
(13,105,o),
(54,-10,o),
(182,-10,cs)
);
},
{
closed = 1;
nodes = (
(115,56,o),
(97,112,o),
(120,256,c),
(340,256,l),
(303,112,o),
(258,56,o),
(185,56,cs)
);
},
{
closed = 1;
nodes = (
(171,512,o),
(219,584,o),
(301,584,cs),
(378,584,o),
(392,513,o),
(354,320,c),
(132,320,l)
);
}
);
width = 448;
},
{
background = {
shapes = (
{
closed = 1;
nodes = (
(384,328,l),
(64,328,l),
(64,248,l),
(384,248,l)
);
},
{
closed = 1;
nodes = (
(316,-10,o),
(396,98,o),
(438,310,cs),
(484,537,o),
(442,650,o),
(303,650,cs),
(174,650,o),
(91,545,o),
(48,328,cs),
(3,106,o),
(48,-10,o),
(184,-10,cs)
);
},
{
closed = 1;
nodes = (
(131,72,o),
(125,136,o),
(160,310,cs),
(197,496,o),
(237,568,o),
(299,568,cs),
(355,568,o),
(361,504,o),
(326,328,cs),
(289,144,o),
(249,72,o),
(187,72,cs)
);
}
);
};
layerId = "EBAB10B0-9FDE-44C7-9B16-DD2313400F4E";
shapes = (
{
closed = 1;
nodes = (
(316,-10,o),
(396,98,o),
(438,310,cs),
(484,537,o),
(442,650,o),
(303,650,cs),
(174,650,o),
(91,545,o),
(48,328,cs),
(3,106,o),
(48,-10,o),
(184,-10,cs)
);
},
{
closed = 1;
nodes = (
(138,72,o),
(128,121,o),
(149,248,c),
(308,248,l),
(276,124,o),
(239,72,o),
(187,72,cs)
);
},
{
closed = 1;
nodes = (
(200,501,o),
(239,568,o),
(299,568,cs),
(355,568,o),
(361,504,o),
(326,328,c),
(164,328,l)
);
}
);
width = 448;
}
);
unicode = 920;
}
{
glyphname = Lambda;
kernLeft = A;
kernRight = A;
layers = (
{
background = {
shapes = (
{
closed = 1;
nodes = (
(48,0,l),
(120,242,o),
(210,446,o),
(302,587,c),
(293,591,l),
(329,450,o),
(337,244,o),
(312,0,c),
(362,0,l),
(388,242,o),
(378,475,o),
(327,641,c),
(287,645,l),
(169,477,o),
(66,244,o),
(-5,0,c)
);
}
);
};
layerId = "C21910D5-47BB-472B-A83D-89B2B42B8F2A";
shapes = (
{
closed = 1;
nodes = (
(48,0,l),
(119,238,o),
(206,437,o),
(296,578,c),
(329,438,o),
(336,236,o),
(312,0,c),
(362,0,l),
(388,243,o),
(378,476,o),
(327,643,c),
(286,643,l),
(168,475,o),
(66,243,o),
(-5,0,c)
);
}
);
width = 448;
},
{
background = {
shapes = (
{
closed = 1;
nodes = (
(66,0,l),
(134,237,o),
(219,437,o),
(306,574,c),
(285,580,l),
(318,441,o),
(321,239,o),
(294,0,c),
(367,0,l),
(396,242,o),
(389,474,o),
(338,640,c),
(275,646,l),
(157,478,o),
(58,244,o),
(-10,0,c)
);
}
);
};
layerId = "BA106321-29DE-4FD0-898D-B7B08A4D4215";
shapes = (
{
closed = 1;
nodes = (
(66,0,l),
(130,223,o),
(209,414,o),
(291,550,c),
(318,412,o),
(319,222,o),
(294,0,c),
(367,0,l),
(396,243,o),
(389,476,o),
(337,643,c),
(273,643,l),
(156,476,o),
(58,243,o),
(-10,0,c)
);
}
);
width = 448;
},
{
background = {
shapes = (
{
closed = 1;
nodes = (
(96,0,l),
(161,236,o),
(237,436,o),
(314,573,c),
(277,581,l),
(301,442,o),
(295,240,o),
(263,0,c),
(377,0,l),
(406,240,o),
(403,471,o),
(357,636,c),
(255,644,l),
(142,477,o),
(47,244,o),
(-20,0,c)
);
}
);
};
layerId = "EBAB10B0-9FDE-44C7-9B16-DD2313400F4E";
shapes = (
{
closed = 1;
nodes = (
(96,0,l),
(152,207,o),
(217,386,o),
(283,519,c),
(296,384,o),
(288,207,o),
(263,0,c),
(377,0,l),
(406,242,o),
(403,474,o),
(356,640,c),
(252,640,l),
(140,474,o),
(46,242,o),
(-20,0,c)
);
}
);
width = 448;
}
);
unicode = 923;
}
{
glyphname = Sigma;
kernRight = C;
layers = (
{
background = {
shapes = (
{
closed = 1;
nodes = (
(77,37,l),
(272,320,l),
(218,320,l),
(23,37,l)
);
},
{
closed = 1;
nodes = (
(337,0,l),
(346,44,l),
(55,44,l),
(24,37,l),
(16,0,l)
);
},
{
closed = 1;
nodes = (
(271,320,l),
(201,603,l),
(149,603,l),
(219,320,l)
);
},
{
closed = 1;
nodes = (
(456,596,l),
(465,640,l),
(156,640,l),
(149,603,l),
(177,596,l)
);
}
);
};
layerId = "C21910D5-47BB-472B-A83D-89B2B42B8F2A";
shapes = (
{
closed = 1;
nodes = (
(337,0,l),
(346,44,l),
(83,44,l),
(271,320,l),
(203,596,l),
(456,596,l),
(465,640,l),
(156,640,l),
(149,603,l),
(219,320,l),
(24,37,l),
(16,0,l)
);
}
);
width = 448;
},
{
background = {
shapes = (
{
closed = 1;
nodes = (
(99,52,l),
(285,320,l),
(205,320,l),
(20,52,l)
);
},
{
closed = 1;
nodes = (
(343,0,l),
(356,64,l),
(59,64,l),
(20,52,l),
(10,0,l)
);
},
{
closed = 1;
nodes = (
(283,320,l),
(217,588,l),
(141,588,l),
(207,320,l)
);
},
{
closed = 1;
nodes = (
(458,576,l),
(471,640,l),
(150,640,l),
(140,588,l),
(174,576,l)
);
}
);
};
layerId = "BA106321-29DE-4FD0-898D-B7B08A4D4215";
shapes = (
{
closed = 1;
nodes = (
(343,0,l),
(356,64,l),
(107,64,l),
(284,320,l),
(219,576,l),
(458,576,l),
(471,640,l),
(150,640,l),
(140,588,l),
(206,320,l),
(20,52,l),
(10,0,l)
);
}
);
width = 448;
},
{
background = {
shapes = (
{
closed = 1;
nodes = (
(131,60,l),
(304,320,l),
(184,320,l),
(11,60,l)
);
},
{
closed = 1;
nodes = (
(353,0,l),
(369,80,l),
(62,80,l),
(12,60,l),
(0,0,l)
);
},
{
closed = 1;
nodes = (
(302,320,l),
(245,580,l),
(129,580,l),
(186,320,l)
);
},
{
closed = 1;
nodes = (
(465,560,l),
(481,640,l),
(140,640,l),
(129,580,l),
(171,560,l)
);
}
);
};
layerId = "EBAB10B0-9FDE-44C7-9B16-DD2313400F4E";
shapes = (
{
closed = 1;
nodes = (
(353,0,l),
(369,80,l),
(145,80,l),
(303,320,l),
(249,560,l),
(465,560,l),
(481,640,l),
(140,640,l),
(129,580,l),
(185,320,l),
(12,60,l),
(0,0,l)
);
}
);
width = 448;
}
);
unicode = 931;
}
{
glyphname = Upsilon;
layers = (
{
anchors = (
{
name = top;
pos = (307,640);
}
);
background = {
anchors = (
{
name = top;
pos = (307,640);
}
);
shapes = (
{
closed = 1;
nodes = (
(203,0,l),
(237,168,ls),
(274,353,o),
(364,509,o),
(501,640,c),
(436,640,l),
(324,530,o),
(244,389,o),
(203,182,c),
(228,178,l),
(269,387,o),
(244,529,o),
(177,640,c),
(118,640,l),
(199,517,o),
(227,357,o),
(190,172,cs),
(155,0,l)
);
}
);
};
layerId = "C21910D5-47BB-472B-A83D-89B2B42B8F2A";
shapes = (
{
closed = 1;
nodes = (
(203,0,l),
(237,168,ls),
(274,353,o),
(364,509,o),
(501,640,c),
(436,640,l),
(357,562,o),
(293,468,o),
(248,344,c),
(251,466,o),
(224,562,o),
(177,640,c),
(118,640,l),
(199,517,o),
(227,357,o),
(190,172,cs),
(155,0,l)
);
}
);
width = 448;
},
{
anchors = (
{
name = top;
pos = (307,640);
}
);
background = {
anchors = (
{
name = top;
pos = (307,640);
}
);
shapes = (
{
closed = 1;
nodes = (
(214,0,l),
(247,167,ls),
(285,360,o),
(383,514,o),
(513,640,c),
(413,640,l),
(310,524,o),
(237,378,o),
(199,183,c),
(229,177,l),
(269,374,o),
(251,522,o),
(193,640,c),
(105,640,l),
(184,516,o),
(216,364,o),
(177,173,cs),
(142,0,l)
);
}
);
};
layerId = "BA106321-29DE-4FD0-898D-B7B08A4D4215";
shapes = (
{
closed = 1;
nodes = (
(214,0,l),
(247,167,ls),
(285,360,o),
(383,514,o),
(513,640,c),
(413,640,l),
(345,563,o),
(291,476,o),
(250,368,c),
(251,475,o),
(231,563,o),
(193,640,c),
(105,640,l),
(184,516,o),
(216,364,o),
(177,173,cs),
(142,0,l)
);
}
);
width = 448;
},
{
anchors = (
{
name = top;
pos = (307,640);
}
);
background = {
anchors = (
{
name = top;
pos = (307,640);
}
);
shapes = (
{
closed = 1;
nodes = (
(235,0,l),
(268,166,ls),
(307,359,o),
(401,514,o),
(525,640,c),
(383,640,l),
(296,524,o),
(234,379,o),
(195,184,c),
(235,176,l),
(275,373,o),
(266,522,o),
(224,640,c),
(98,640,l),
(170,516,o),
(196,365,o),
(158,174,cs),
(123,0,l)
);
}
);
};
layerId = "EBAB10B0-9FDE-44C7-9B16-DD2313400F4E";
shapes = (
{
closed = 1;
nodes = (
(235,0,l),
(268,166,ls),
(307,359,o),
(401,514,o),
(525,640,c),
(383,640,l),
(336,576,o),
(295,501,o),
(263,416,c),
(262,503,o),
(248,575,o),
(224,640,c),
(98,640,l),
(170,516,o),
(196,365,o),
(158,174,cs),
(123,0,l)
);
}
);
width = 448;
}
);
unicode = 933;
}
